<svg width="252" height="74" fill="none" xmlns="http://www.w3.org/2000/svg"><path d="M47.6 47.197h-5.347l3.344-20.328h5.347L47.6 47.197zm19.382-19.831c-1.055-.411-2.727-.866-4.796-.866-5.28 0-8.998 2.768-9.02 6.726-.044 2.92 2.662 4.541 4.685 5.515 2.069.995 2.772 1.644 2.772 2.53-.021 1.363-1.671 1.99-3.21 1.99-2.135 0-3.279-.323-5.017-1.08l-.704-.326-.748 4.564c1.254.561 3.564 1.06 5.962 1.082 5.61 0 9.263-2.726 9.306-6.943.021-2.314-1.407-4.087-4.488-5.536-1.87-.93-3.015-1.557-3.015-2.51.022-.864.969-1.75 3.08-1.75 1.738-.044 3.015.367 3.982.778l.484.216.727-4.39zm7.105 12.63c.44-1.168 2.135-5.688 2.135-5.688-.022.043.44-1.19.703-1.946l.374 1.751s1.012 4.866 1.232 5.883h-4.444zm6.6-13.127H76.55c-1.275 0-2.244.367-2.794 1.687l-7.942 18.641h5.61l1.122-3.05h6.865c.153.715.638 3.05.638 3.05H85L80.687 26.87zm-42.899 0L32.552 40.73l-.572-2.811c-.968-3.244-4.004-6.769-7.392-8.521l4.796 17.777h5.654l8.403-20.307h-5.653z" fill="#00579F"/><path d="M27.69 26.869h-8.602l-.088.41c6.71 1.688 11.154 5.754 12.98 10.641l-1.87-9.342c-.308-1.299-1.254-1.666-2.42-1.71z" fill="#FAA61A"/><path fill-rule="evenodd" clip-rule="evenodd" d="M117.146 48.4h12.709V25.6h-12.709v22.8z" fill="#FF5F00"/><path fill-rule="evenodd" clip-rule="evenodd" d="M117.952 37c0-4.625 2.17-8.745 5.548-11.4a14.477 14.477 0 00-8.976-3.1C106.502 22.5 100 28.992 100 37s6.502 14.5 14.524 14.5c3.388 0 6.505-1.158 8.976-3.1-3.378-2.655-5.548-6.774-5.548-11.4z" fill="#EB001B"/><path fill-rule="evenodd" clip-rule="evenodd" d="M146.547 45.986v-.563h-.148l-.169.387-.169-.387h-.148v.563h.104v-.425l.159.366h.108l.159-.367v.426h.104zm-.933 0v-.467h.189v-.095h-.48v.095h.188v.467h.103zM147 37c0 8.008-6.503 14.5-14.524 14.5a14.477 14.477 0 01-8.976-3.1c3.378-2.655 5.548-6.775 5.548-11.4s-2.17-8.745-5.548-11.4a14.477 14.477 0 018.976-3.1C140.497 22.5 147 28.993 147 37z" fill="#F79E1B"/><g clip-path="url(#clip0_796_11433)"><path d="M181.133 26.507v.009c-.009 0-2.774-.01-3.512 2.75a2891.82 2891.82 0 01-2.634 9.707h-.526s-1.949-7.14-2.634-9.716c-.738-2.76-3.512-2.75-3.512-2.75H162v20.99h6.318V35.031h.527l3.687 12.466h4.387l3.687-12.457h.527v12.457h6.318v-20.99h-6.318zm23.08 0s-1.852.174-2.721 2.2l-4.475 10.266h-.527V26.507h-6.318v20.99h5.967s1.94-.183 2.81-2.2l4.386-10.266h.527v12.466h6.318v-20.99h-5.967zm8.776 9.532v11.458h6.318v-6.69h6.845c2.985 0 5.511-1.99 6.45-4.765h-19.613v-.003z" fill="#4DB45E"/><path d="M226.155 26.505h-14.052c.702 3.998 3.573 7.204 7.283 8.25a9.7 9.7 0 002.643.366h10.83a7.32 7.32 0 00.141-1.467c0-3.949-3.064-7.149-6.845-7.149z" fill="url(#paint0_linear_796_11433)"/></g><defs><linearGradient id="paint0_linear_796_11433" x1="212.102" y1="30.813" x2="233" y2="30.813" gradientUnits="userSpaceOnUse"><stop offset=".3" stop-color="#00B4E6"/><stop offset="1" stop-color="#088CCB"/></linearGradient><clipPath id="clip0_796_11433"><path fill="#fff" transform="translate(162 26.5)" d="M0 0h71v21H0z"/></clipPath></defs></svg>