<svg width="252" height="74" fill="none" xmlns="http://www.w3.org/2000/svg"><path d="M158.296 38.835h-7.861v-5.592c0-3.003-2.458-5.455-5.499-5.455h-44.538c-.57 0-1.041.469-1.041 1.033 0 .565.472 1.033 1.041 1.033h44.524c1.875 0 3.416 1.516 3.416 3.389v5.592h-4.527c-4.875 0-8.833 3.926-8.833 8.76 0 4.835 3.958 8.76 8.833 8.76h11.207v5.593c0 5.524-4.527 10.014-10.096 10.014H94.829a2.284 2.284 0 01-2.291-2.273v-2.273h52.398c3.027 0 5.499-2.438 5.499-5.454v-2.204c0-.565-.472-1.033-1.041-1.033-.57 0-1.042.468-1.042 1.033v2.204c0 1.86-1.527 3.388-3.416 3.388H92.538V29.854h3.416c.57 0 1.042-.468 1.042-1.033 0-.564-.472-1.033-1.042-1.033h-3.416v-2.272a2.284 2.284 0 012.291-2.273h50.093c5.569 0 10.096 4.49 10.096 10.014v2.204c0 .564.472 1.032 1.042 1.032.569 0 1.041-.468 1.041-1.032v-2.204c0-3.747-1.736-7.108-4.458-9.325V13.367c0-.565-.472-1.033-1.041-1.033H95.954c-.57 0-1.041.468-1.041 1.033v7.796h-.07c-2.416 0-4.388 1.942-4.388 4.339v44.16c0 2.396 1.972 4.338 4.374 4.338h50.093c6.708 0 12.179-5.413 12.179-12.08v-5.592h1.181c1.805 0 3.263-1.46 3.263-3.237V42.072c.014-1.79-1.458-3.237-3.249-3.237zM150.574 14.4v8.14a12.682 12.682 0 00-2.375-.936v-3.83c0-.564-.472-1.033-1.041-1.033H96.996V14.4h53.578zm-53.578 4.408h49.12v2.41a11.283 11.283 0 00-1.18-.055h-47.94v-2.355zm62.48 34.297c0 .648-.528 1.17-1.18 1.17h-14.471c-3.722 0-6.75-3.002-6.75-6.693 0-3.692 3.028-6.694 6.75-6.694h14.471c.652 0 1.18.523 1.18 1.17v11.047z" fill="#E7742E"/><path d="M143.825 43.243c-2.417 0-4.375 1.956-4.375 4.339 0 2.383 1.972 4.339 4.375 4.339 2.402 0 4.374-1.956 4.374-4.34 0-2.382-1.958-4.338-4.374-4.338zm0 6.625a2.285 2.285 0 01-2.292-2.273 2.285 2.285 0 012.292-2.272 2.284 2.284 0 012.291 2.273 2.284 2.284 0 01-2.291 2.272z" fill="#E7742E"/></svg>