<svg width="252" height="74" fill="none" xmlns="http://www.w3.org/2000/svg"><g clip-path="url(#clip0_796_11444)"><path d="M115.373 29.939l4.19-3.076h-14.027v18.424h14.027v-3.075h-10.019v-4.705h8.562v-3.075h-8.562v-4.493h5.829zM94.939 34.04h-4.858v-4.101h7.773l4.19-3.076h-15.97v18.424h8.349c4.676 0 7.378-2.11 7.378-5.79 0-3.527-2.43-5.457-6.862-5.457zm-.668 8.172h-4.19v-5.097h4.19c2.55 0 3.735.845 3.735 2.564 0 1.718-1.276 2.532-3.735 2.532zm36.648-15.349h-7.621v18.424h4.007v-5.216h3.644c4.858 0 7.894-2.533 7.894-6.604s-3.036-6.604-7.924-6.604zm-.091 10.132h-3.553v-7.056h3.553c2.58 0 3.977 1.266 3.977 3.528 0 2.261-1.397 3.528-3.977 3.528zm-51.617 4.312a7.279 7.279 0 01-3.461.874c-3.613 0-6.224-2.563-6.224-6.09 0-3.529 2.61-6.092 6.224-6.092 1.306-.03 2.58.392 3.644 1.146l2.884-2.11-.182-.182c-1.67-1.477-3.917-2.231-6.468-2.231-2.763 0-5.283.935-7.104 2.623a9.05 9.05 0 00-2.794 6.725 9.486 9.486 0 002.794 6.845c1.912 1.779 4.463 2.774 7.074 2.714 2.885 0 5.405-.996 7.105-2.805l-2.58-1.9-.912.483zm107.818-14.414v18.424h4.008V37.78h8.532v7.538h4.008V26.893h-4.008v7.569h-8.532v-7.569h-4.008zm-6.892 18.424h4.22l-7.834-18.424h-4.068l-7.985 18.424h4.038l1.609-3.709h8.501l1.519 3.71zm-8.806-6.784l3.097-7.388 2.915 7.388h-6.012zm41.233-.664h2.49l6.133 7.418h5.161l-8.197-9.529 7.165-8.895h-4.585l-5.951 7.9h-2.216v-7.9h-4.008v18.424h4.008V37.87zm-61.333-3.8v-4.1h10.476v-3.076h-14.483v18.424h8.349c4.676 0 7.378-2.11 7.378-5.79 0-3.527-2.429-5.457-6.861-5.457h-4.859zm0 8.173v-5.096h4.191c2.55 0 3.734.844 3.734 2.563 0 1.718-1.245 2.563-3.734 2.563h-4.191v-.03zm-98.041-15.5c.73.935 1.337 1.96 1.853 3.046L41.016 40.071l-5.89-3.68V31.99l5.86 3.649 12.205-8.896z" fill="#21A038"/><path d="M29.144 36.09c0-.21 0-.392.03-.603l-3.552-.18c0 .24-.03.512-.03.753 0 4.222 1.73 8.051 4.524 10.825l2.52-2.502a11.55 11.55 0 01-3.492-8.293z" fill="url(#paint0_linear_796_11444)"/><path d="M40.985 24.33c.213 0 .395 0 .607.03l.182-3.528c-.242 0-.516-.03-.759-.03a15.43 15.43 0 00-10.9 4.493l2.52 2.503a11.763 11.763 0 018.35-3.468z" fill="url(#paint1_linear_796_11444)"/><path d="M40.985 47.85c-.213 0-.395 0-.607-.03l-.182 3.528c.242 0 .516.03.759.03a15.43 15.43 0 0010.9-4.493l-2.52-2.502c-2.126 2.17-5.07 3.467-8.35 3.467z" fill="url(#paint2_linear_796_11444)"/><path d="M47.665 26.38l3.005-2.2a15.49 15.49 0 00-9.685-3.408V24.3c2.49.03 4.797.784 6.68 2.08z" fill="url(#paint3_linear_796_11444)"/><path d="M56.41 36.09c0-.935-.092-1.84-.244-2.744l-3.31 2.443v.301c0 3.468-1.517 6.574-3.916 8.715l2.399 2.623a15.228 15.228 0 005.07-11.338z" fill="#21A038"/><path d="M40.985 47.85a11.8 11.8 0 01-8.775-3.89l-2.642 2.383a15.367 15.367 0 0011.417 5.036V47.85z" fill="url(#paint4_linear_796_11444)"/><path d="M33.06 27.376l-2.398-2.624c-3.127 2.805-5.07 6.845-5.07 11.338h3.552c0-3.437 1.518-6.573 3.917-8.714z" fill="url(#paint5_linear_796_11444)"/></g><defs><linearGradient id="paint0_linear_796_11444" x1="29.748" y1="46.456" x2="26.157" y2="36.036" gradientUnits="userSpaceOnUse"><stop offset=".144" stop-color="#F2E913"/><stop offset=".304" stop-color="#E7E518"/><stop offset=".582" stop-color="#CADB26"/><stop offset=".891" stop-color="#A3CD39"/></linearGradient><linearGradient id="paint1_linear_796_11444" x1="31.128" y1="24.886" x2="40.328" y2="21.367" gradientUnits="userSpaceOnUse"><stop offset=".059" stop-color="#0FA8E0"/><stop offset=".538" stop-color="#0099F9"/><stop offset=".923" stop-color="#0291EB"/></linearGradient><linearGradient id="paint2_linear_796_11444" x1="39.987" y1="48.369" x2="50.962" y2="45.879" gradientUnits="userSpaceOnUse"><stop offset=".123" stop-color="#A3CD39"/><stop offset=".285" stop-color="#86C339"/><stop offset=".869" stop-color="#21A038"/></linearGradient><linearGradient id="paint3_linear_796_11444" x1="40.255" y1="23.029" x2="49.378" y2="25.855" gradientUnits="userSpaceOnUse"><stop offset=".057" stop-color="#0291EB"/><stop offset=".79" stop-color="#0C8ACB"/></linearGradient><linearGradient id="paint4_linear_796_11444" x1="30.472" y1="46.916" x2="40.264" y2="50.588" gradientUnits="userSpaceOnUse"><stop offset=".132" stop-color="#F2E913"/><stop offset=".298" stop-color="#EBE716"/><stop offset=".531" stop-color="#D9E01F"/><stop offset=".802" stop-color="#BBD62D"/><stop offset=".983" stop-color="#A3CD39"/></linearGradient><linearGradient id="paint5_linear_796_11444" x1="28.295" y1="36.517" x2="32.179" y2="26.374" gradientUnits="userSpaceOnUse"><stop offset=".07" stop-color="#A3CD39"/><stop offset=".26" stop-color="#81C55F"/><stop offset=".922" stop-color="#0FA8E0"/></linearGradient><clipPath id="clip0_796_11444"><path fill="#fff" transform="translate(25.5 20.5)" d="M0 0h201v33H0z"/></clipPath></defs></svg>