<svg width="252" height="74" viewBox="0 0 252 74" fill="none" xmlns="http://www.w3.org/2000/svg">
<path d="M47.5999 47.1974H42.2534L45.5975 26.8689H50.9437L47.5999 47.1974Z" fill="#00579F"/>
<path d="M66.9817 27.366C65.9272 26.9546 64.2546 26.5005 62.1864 26.5005C56.9065 26.5005 53.1885 29.2685 53.1657 33.2259C53.1218 36.1457 55.8277 37.7674 57.8514 38.7409C59.9199 39.7357 60.6231 40.385 60.6231 41.2718C60.602 42.6336 58.9516 43.2614 57.4123 43.2614C55.2778 43.2614 54.134 42.9377 52.3959 42.1801L51.6919 41.8553L50.9437 46.4186C52.1977 46.9802 54.508 47.4786 56.9065 47.5005C62.5164 47.5005 66.1687 44.7753 66.2119 40.5581C66.2333 38.2439 64.8045 36.4707 61.7241 35.0218C59.8542 34.0916 58.709 33.4645 58.709 32.5128C58.7309 31.6476 59.6776 30.7614 61.7884 30.7614C63.5266 30.718 64.8036 31.1288 65.7711 31.5398L66.2546 31.7557L66.9817 27.366Z" fill="#00579F"/>
<path d="M74.0873 39.9958C74.5276 38.8279 76.2219 34.308 76.2219 34.308C76.1997 34.3514 76.6613 33.1186 76.9253 32.3618L77.299 34.1134C77.299 34.1134 78.3114 38.9794 78.5313 39.9958C77.6957 39.9958 75.1433 39.9958 74.0873 39.9958ZM80.6869 26.8689H76.5514C75.2761 26.8689 74.3072 27.2362 73.7569 28.5556L65.8154 47.1972H71.4253C71.4253 47.1972 72.3489 44.6881 72.5474 44.1478C73.1629 44.1478 78.6201 44.1478 79.4119 44.1478C79.5654 44.8615 80.0498 47.1972 80.0498 47.1972H85.0001L80.6869 26.8689Z" fill="#00579F"/>
<path d="M37.7879 26.8689L32.5519 40.731L31.9798 37.9196C31.0117 34.6756 27.9758 31.1511 24.5879 29.3986L29.3839 47.1759H35.0376L43.4414 26.8689H37.7879Z" fill="#00579F"/>
<path d="M27.69 26.8689H19.088L19 27.2796C25.7101 28.9666 30.154 33.0329 31.9799 37.9205L30.1099 28.5777C29.802 27.2794 28.8559 26.9117 27.69 26.8689Z" fill="#FAA61A"/>
<path fill-rule="evenodd" clip-rule="evenodd" d="M117.146 48.4003H129.855V25.6008H117.146V48.4003Z" fill="#FF5F00"/>
<path fill-rule="evenodd" clip-rule="evenodd" d="M117.952 37.0004C117.952 32.3749 120.122 28.2553 123.5 25.6006C121.029 23.6589 117.912 22.5005 114.524 22.5005C106.502 22.5005 100 28.9924 100 37.0004C100 45.0083 106.502 51.5002 114.524 51.5002C117.912 51.5002 121.029 50.3419 123.5 48.4001C120.122 45.745 117.952 41.6258 117.952 37.0004Z" fill="#EB001B"/>
<path fill-rule="evenodd" clip-rule="evenodd" d="M146.547 45.9857V45.423H146.399L146.23 45.8101L146.061 45.423H145.913V45.9857H146.017V45.5612L146.176 45.9273H146.284L146.443 45.5604V45.9857H146.547ZM145.614 45.9857V45.5189H145.803V45.4238H145.323V45.5189H145.511V45.9857H145.614ZM147 37.0006C147 45.0086 140.497 51.5005 132.476 51.5005C129.088 51.5005 125.971 50.3421 123.5 48.4003C126.878 45.7457 129.048 41.6261 129.048 37.0006C129.048 32.3756 126.878 28.256 123.5 25.6009C125.971 23.6591 129.088 22.5007 132.476 22.5007C140.497 22.5007 147 28.9927 147 37.0006Z" fill="#F79E1B"/>
<g clip-path="url(#clip0_796_11433)">
<path d="M181.133 26.5066V26.5158C181.124 26.5158 178.359 26.5066 177.621 29.2665C176.945 31.7971 175.04 38.7808 174.987 38.9733H174.461C174.461 38.9733 172.512 31.8338 171.827 29.2573C171.089 26.4974 168.315 26.5066 168.315 26.5066H162V47.4974H168.318V35.0306H168.845L172.532 47.4973H176.919L180.606 35.0398H181.133V47.4973H187.451V26.5066H181.133ZM204.213 26.5066C204.213 26.5066 202.361 26.6808 201.492 28.7072L197.017 38.9733H196.49V26.5066H190.172V47.4974H196.139C196.139 47.4974 198.079 47.314 198.949 45.2969L203.335 35.0307H203.862V47.4974H210.18V26.5066H204.213ZM212.989 36.0393V47.4974H219.307V40.8071H226.152C229.137 40.8071 231.663 38.8175 232.602 36.0423H212.989V36.0393Z" fill="#4DB45E"/>
<path d="M226.155 26.5051H212.103C212.805 30.5028 215.676 33.7089 219.386 34.7541C220.248 34.9978 221.136 35.1212 222.029 35.121H232.859C232.956 34.6442 233 34.1583 233 33.654C233 29.7051 229.936 26.5051 226.155 26.5051Z" fill="url(#paint0_linear_796_11433)"/>
</g>
<defs>
<linearGradient id="paint0_linear_796_11433" x1="212.102" y1="30.813" x2="233" y2="30.813" gradientUnits="userSpaceOnUse">
<stop offset="0.3" stop-color="#00B4E6"/>
<stop offset="1" stop-color="#088CCB"/>
</linearGradient>
<clipPath id="clip0_796_11433">
<rect width="71" height="21" fill="white" transform="translate(162 26.5005)"/>
</clipPath>
</defs>
</svg>
