<svg width="252" height="74" viewBox="0 0 252 74" fill="none" xmlns="http://www.w3.org/2000/svg">
<path d="M158.296 38.8351H150.435V33.2428C150.435 30.2401 147.977 27.7883 144.936 27.7883H100.398C99.8287 27.7883 99.3566 28.2566 99.3566 28.8213C99.3566 29.3861 99.8287 29.8544 100.398 29.8544H144.922C146.797 29.8544 148.338 31.3696 148.338 33.2428V38.8351H143.811C138.936 38.8351 134.978 42.7607 134.978 47.5954C134.978 52.4302 138.936 56.3558 143.811 56.3558H155.018V61.9481C155.018 67.4715 150.491 71.9618 144.922 71.9618H94.8292C93.5654 71.9618 92.5377 70.9426 92.5377 69.6891V67.4164H144.936C147.963 67.4164 150.435 64.9784 150.435 61.9618V59.758C150.435 59.1932 149.963 58.7249 149.394 58.7249C148.824 58.7249 148.352 59.1932 148.352 59.758V61.9618C148.352 63.8213 146.825 65.3503 144.936 65.3503H92.5377V29.8544H95.9541C96.5235 29.8544 96.9957 29.3861 96.9957 28.8213C96.9957 28.2566 96.5235 27.7883 95.9541 27.7883H92.5377V25.5156C92.5377 24.2621 93.5654 23.2428 94.8292 23.2428H144.922C150.491 23.2428 155.018 27.7332 155.018 33.2566V35.4605C155.018 36.0252 155.49 36.4935 156.06 36.4935C156.629 36.4935 157.101 36.0252 157.101 35.4605V33.2566C157.101 29.51 155.365 26.1492 152.643 23.9315V13.3668C152.643 12.8021 152.171 12.3337 151.602 12.3337H95.9541C95.3847 12.3337 94.9125 12.8021 94.9125 13.3668V21.1629H94.8431C92.4266 21.1629 90.4546 23.1051 90.4546 25.5018V69.6616C90.4546 72.0583 92.4266 74.0004 94.8292 74.0004H144.922C151.63 74.0004 157.101 68.5872 157.101 61.9205V56.3282H158.282C160.087 56.3282 161.545 54.8682 161.545 53.0913V42.072C161.559 40.2814 160.087 38.8351 158.296 38.8351ZM150.574 14.3999V22.5404C149.824 22.1547 149.033 21.8379 148.199 21.6037V17.7745C148.199 17.2098 147.727 16.7415 147.158 16.7415H96.9957V14.3999H150.574ZM96.9957 18.8076H146.116V21.218C145.727 21.1767 145.325 21.1629 144.936 21.1629H96.9957V18.8076ZM159.476 53.1051C159.476 53.7525 158.948 54.2759 158.296 54.2759H143.825C140.103 54.2759 137.075 51.2731 137.075 47.5817C137.075 43.8902 140.103 40.8875 143.825 40.8875H158.296C158.948 40.8875 159.476 41.4109 159.476 42.0583V53.1051Z" fill="#E7742E"/>
<path d="M143.825 43.2429C141.408 43.2429 139.45 45.1988 139.45 47.5818C139.45 49.9647 141.422 51.9206 143.825 51.9206C146.227 51.9206 148.199 49.9647 148.199 47.5818C148.199 45.1988 146.241 43.2429 143.825 43.2429ZM143.825 49.8683C142.561 49.8683 141.533 48.849 141.533 47.5955C141.533 46.3421 142.561 45.3228 143.825 45.3228C145.089 45.3228 146.116 46.3421 146.116 47.5955C146.116 48.849 145.089 49.8683 143.825 49.8683Z" fill="#E7742E"/>
</svg>
