<svg width="252" height="74" viewBox="0 0 252 74" fill="none" xmlns="http://www.w3.org/2000/svg">
<g clip-path="url(#clip0_796_11444)">
<path d="M115.373 29.9388L119.563 26.863H105.536V45.2873H119.563V42.2115H109.544V37.5075H118.106V34.4317H109.544V29.9388H115.373Z" fill="#21A038"/>
<path d="M94.939 34.0397H90.081V29.9388H97.8538L102.044 26.863H86.0731V45.2873H94.4228C99.0987 45.2873 101.801 43.1765 101.801 39.4976C101.801 35.9696 99.3719 34.0397 94.939 34.0397ZM94.271 42.2115H90.081V37.1155H94.271C96.8215 37.1155 98.0056 37.9598 98.0056 39.6786C98.0056 41.3974 96.7304 42.2115 94.271 42.2115Z" fill="#21A038"/>
<path d="M130.919 26.863H123.298V45.2873H127.305V40.0706H130.949C135.807 40.0706 138.843 37.5376 138.843 33.4668C138.843 29.396 135.807 26.863 130.919 26.863ZM130.828 36.9948H127.275V29.9388H130.828C133.408 29.9388 134.805 31.2052 134.805 33.4668C134.805 35.7284 133.408 36.9948 130.828 36.9948Z" fill="#21A038"/>
<path d="M79.2113 41.3069C78.1486 41.8799 76.9645 42.1814 75.75 42.1814C72.1368 42.1814 69.5256 39.6183 69.5256 36.0902C69.5256 32.5622 72.1368 29.9991 75.75 29.9991C77.0556 29.9689 78.3308 30.3911 79.3935 31.145L82.2779 29.0342L82.0957 28.8532C80.4258 27.3757 78.179 26.6218 75.6285 26.6218C72.8655 26.6218 70.3454 27.5566 68.5237 29.2452C66.7019 30.9942 65.6696 33.4367 65.7303 35.9696C65.7 38.5327 66.7019 41.0054 68.5237 42.8146C70.4365 44.5937 72.987 45.5888 75.5981 45.5285C78.4826 45.5285 81.0027 44.5334 82.703 42.7242L80.1222 40.8245L79.2113 41.3069Z" fill="#21A038"/>
<path d="M187.029 26.8932V45.3174H191.037V37.7789H199.569V45.3174H203.577V26.8932H199.569V34.4619H191.037V26.8932H187.029ZM180.137 45.3174H184.357L176.523 26.8932H172.455L164.47 45.3174H168.508L170.117 41.6084H178.618L180.137 45.3174ZM171.331 38.5327L174.428 31.1449L177.343 38.5327H171.331ZM212.564 37.8693H215.054L221.187 45.2873H226.348L218.151 35.7585L225.316 26.863H220.731L214.78 34.7634H212.564V26.863H208.556V45.2873H212.564V37.8693ZM151.231 34.0699V29.9689H161.707V26.8932H147.224V45.3174H155.573C160.249 45.3174 162.951 43.2066 162.951 39.5278C162.951 35.9998 160.522 34.0699 156.09 34.0699H151.231ZM151.231 42.2417V37.1456H155.422C157.972 37.1456 159.156 37.9899 159.156 39.7087C159.156 41.4275 157.911 42.2718 155.422 42.2718H151.231V42.2417Z" fill="#21A038"/>
<path d="M53.1908 26.7424C53.9195 27.6772 54.5268 28.7025 55.0429 29.788L41.0155 40.0706L35.1251 36.3918V31.9893L40.9851 35.6379L53.1908 26.7424Z" fill="#21A038"/>
<path d="M29.1441 36.0902C29.1441 35.8791 29.1441 35.6982 29.1745 35.4871L25.622 35.3062C25.622 35.5474 25.5917 35.8188 25.5917 36.06C25.5917 40.2816 27.3223 44.1112 30.1157 46.8854L32.6358 44.3826C30.48 42.2718 29.1441 39.3468 29.1441 36.0902Z" fill="url(#paint0_linear_796_11444)"/>
<path d="M40.985 24.33C41.1976 24.33 41.3797 24.33 41.5923 24.3602L41.7744 20.8322C41.5315 20.8322 41.2583 20.802 41.0154 20.802C36.7646 20.802 32.9086 22.5208 30.1152 25.295L32.6353 27.7978C34.7607 25.6568 37.7362 24.33 40.985 24.33Z" fill="url(#paint1_linear_796_11444)"/>
<path d="M40.985 47.8503C40.7724 47.8503 40.5903 47.8503 40.3777 47.8201L40.1956 51.3482C40.4385 51.3482 40.7117 51.3783 40.9546 51.3783C45.2054 51.3783 49.0614 49.6596 51.8548 46.8854L49.3347 44.3826C47.2093 46.5537 44.2641 47.8503 40.985 47.8503Z" fill="url(#paint2_linear_796_11444)"/>
<path d="M47.6646 26.3807L50.6705 24.1794C48.029 22.0686 44.6587 20.772 40.9849 20.772V24.3C43.4746 24.3302 45.7821 25.084 47.6646 26.3807Z" fill="url(#paint3_linear_796_11444)"/>
<path d="M56.4091 36.0902C56.4091 35.1554 56.318 34.2508 56.1662 33.3462L52.8567 35.7887C52.8567 35.8791 52.8567 35.9998 52.8567 36.0902C52.8567 39.558 51.3386 42.6638 48.9399 44.8048L51.3386 47.4282C54.4356 44.654 56.4091 40.5832 56.4091 36.0902Z" fill="#21A038"/>
<path d="M40.9848 47.8506C37.4931 47.8506 34.3658 46.3429 32.21 43.9607L29.5685 46.3429C32.3922 49.4488 36.4608 51.3786 40.9848 51.3786V47.8506Z" fill="url(#paint4_linear_796_11444)"/>
<path d="M33.0609 27.3759L30.6622 24.7524C27.5349 27.5568 25.5917 31.5974 25.5917 36.0904H29.1441C29.1441 32.6528 30.6622 29.5168 33.0609 27.3759Z" fill="url(#paint5_linear_796_11444)"/>
</g>
<defs>
<linearGradient id="paint0_linear_796_11444" x1="29.7482" y1="46.4561" x2="26.1567" y2="36.0362" gradientUnits="userSpaceOnUse">
<stop offset="0.1444" stop-color="#F2E913"/>
<stop offset="0.3037" stop-color="#E7E518"/>
<stop offset="0.5823" stop-color="#CADB26"/>
<stop offset="0.891" stop-color="#A3CD39"/>
</linearGradient>
<linearGradient id="paint1_linear_796_11444" x1="31.1279" y1="24.8859" x2="40.3283" y2="21.3669" gradientUnits="userSpaceOnUse">
<stop offset="0.0592" stop-color="#0FA8E0"/>
<stop offset="0.5385" stop-color="#0099F9"/>
<stop offset="0.9234" stop-color="#0291EB"/>
</linearGradient>
<linearGradient id="paint2_linear_796_11444" x1="39.987" y1="48.3688" x2="50.9616" y2="45.8793" gradientUnits="userSpaceOnUse">
<stop offset="0.1226" stop-color="#A3CD39"/>
<stop offset="0.2846" stop-color="#86C339"/>
<stop offset="0.8693" stop-color="#21A038"/>
</linearGradient>
<linearGradient id="paint3_linear_796_11444" x1="40.255" y1="23.0293" x2="49.378" y2="25.8545" gradientUnits="userSpaceOnUse">
<stop offset="0.0566" stop-color="#0291EB"/>
<stop offset="0.79" stop-color="#0C8ACB"/>
</linearGradient>
<linearGradient id="paint4_linear_796_11444" x1="30.4717" y1="46.9159" x2="40.2644" y2="50.5883" gradientUnits="userSpaceOnUse">
<stop offset="0.1324" stop-color="#F2E913"/>
<stop offset="0.2977" stop-color="#EBE716"/>
<stop offset="0.5306" stop-color="#D9E01F"/>
<stop offset="0.8023" stop-color="#BBD62D"/>
<stop offset="0.9829" stop-color="#A3CD39"/>
</linearGradient>
<linearGradient id="paint5_linear_796_11444" x1="28.2947" y1="36.5166" x2="32.1794" y2="26.3739" gradientUnits="userSpaceOnUse">
<stop offset="0.0698" stop-color="#A3CD39"/>
<stop offset="0.2599" stop-color="#81C55F"/>
<stop offset="0.9216" stop-color="#0FA8E0"/>
</linearGradient>
<clipPath id="clip0_796_11444">
<rect width="201" height="33" fill="white" transform="translate(25.5 20.5005)"/>
</clipPath>
</defs>
</svg>
