<svg width="160" height="95" fill="none" xmlns="http://www.w3.org/2000/svg"><path d="M116.407 75.137a48.885 48.885 0 01-4.85 8.7c-2.551 3.628-4.64 6.139-6.249 7.533-2.495 2.29-5.169 3.461-8.031 3.528-2.055 0-4.534-.583-7.419-1.767-2.894-1.177-5.554-1.76-7.986-1.76-2.551 0-5.287.582-8.213 1.76-2.93 1.183-5.291 1.8-7.097 1.861-2.745.117-5.481-1.089-8.212-3.622-1.743-1.517-3.924-4.116-6.536-7.8-2.803-3.933-5.106-8.494-6.912-13.694C42.97 64.26 42 58.821 42 53.556c0-6.032 1.306-11.234 3.924-15.593 2.057-3.502 4.793-6.264 8.217-8.292 3.425-2.027 7.125-3.06 11.11-3.127 2.18 0 5.04.673 8.593 1.995 3.544 1.327 5.819 2 6.816 2 .746 0 3.273-.787 7.558-2.355 4.051-1.455 7.471-2.057 10.272-1.82 7.592.612 13.295 3.596 17.087 8.974-6.789 4.103-10.147 9.85-10.08 17.223.061 5.743 2.15 10.521 6.254 14.316A20.557 20.557 0 00118 70.965a66.858 66.858 0 01-1.593 4.172zM98.997 6.801c0 4.5-1.648 8.703-4.934 12.593-3.966 4.624-8.762 7.296-13.963 6.875a13.991 13.991 0 01-.105-1.706c0-4.32 1.886-8.945 5.235-12.726 1.672-1.914 3.798-3.506 6.377-4.776C94.18 5.811 96.614 5.118 98.903 5c.067.602.095 1.203.095 1.8z" fill="#E7742E"/></svg>