<svg width="160" height="95" fill="none" xmlns="http://www.w3.org/2000/svg"><path d="M107.755 19H14.252C11.914 19 10 20.901 10 23.223v53.474c0 2.322 1.914 4.223 4.252 4.223h38.247v11.26h-9.916c-2.338 0-4.252.634-4.252 1.41 0 .776 1.914 1.41 4.252 1.41h36.834c2.338 0 4.252-.634 4.252-1.41 0-.776-1.914-1.41-4.252-1.41h-9.916V80.92h38.247c2.338 0 4.252-1.901 4.252-4.223V23.223c0-2.322-1.908-4.223-4.245-4.223zm.846 58.26H13.685V22.382h94.916V77.26zM147.635 35h-23.27c-2.4 0-4.365 1.885-4.365 4.188v51.624c0 2.303 1.965 4.188 4.365 4.188h23.27c2.4 0 4.365-1.885 4.365-4.188V39.188c0-2.303-1.965-4.188-4.365-4.188zm-11.632 39.068c-1.597 0-2.908-1.257-2.908-2.79 0-1.532 1.311-2.79 2.908-2.79 1.598 0 2.908 1.258 2.908 2.79 0 1.533-1.31 2.79-2.908 2.79zm13.089-12.557h-26.177v-6.977h26.177v6.977zm0-8.369h-26.177v-6.977h26.177v6.977zm0-8.375h-26.177V37.79h26.177v6.977z" fill="#E7742E"/></svg>