<svg width="160" height="95" fill="none" xmlns="http://www.w3.org/2000/svg"><path d="M38.694 29l82.616-.019c2.59 0 4.69-2.042 4.69-4.56l-.002-8.863c0-2.518-2.1-4.559-4.692-4.558l-82.616.019c-2.59 0-4.69 2.042-4.69 4.56l.002 8.862c0 2.518 2.101 4.559 4.692 4.559zm77.365-11.548c1.443 0 2.613 1.137 2.613 2.54s-1.17 2.54-2.613 2.54-2.614-1.137-2.614-2.54 1.171-2.54 2.614-2.54zm-9.988.001c1.444 0 2.614 1.138 2.614 2.54 0 1.404-1.17 2.541-2.614 2.541-1.443 0-2.613-1.137-2.613-2.54s1.17-2.54 2.613-2.54zm-9.988.003c1.444 0 2.614 1.137 2.614 2.54 0 1.404-1.17 2.54-2.614 2.54-1.443 0-2.613-1.137-2.613-2.54s1.17-2.54 2.613-2.54zM41.33 19.708c0-1.231 1.036-2.24 2.304-2.24l38.33-.008c1.267 0 2.305 1.007 2.305 2.238v.603c0 1.23-1.038 2.238-2.304 2.24l-38.33.008c-1.268 0-2.305-1.007-2.305-2.239v-.602zM121.306 33l-82.616.019c-2.59 0-4.69 2.042-4.69 4.56l.002 8.862c0 2.518 2.101 4.559 4.692 4.559l82.616-.019c2.59 0 4.69-2.042 4.69-4.56l-.002-8.861c0-2.52-2.1-4.56-4.692-4.56zm-37.037 9.3c0 1.231-1.038 2.239-2.304 2.239l-38.33.009c-1.268 0-2.305-1.007-2.305-2.239v-.602c0-1.232 1.036-2.24 2.304-2.24l38.33-.008c1.267 0 2.305 1.006 2.305 2.238v.602zm11.814 2.236c-1.443 0-2.613-1.137-2.613-2.54s1.17-2.54 2.613-2.54c1.444 0 2.614 1.137 2.614 2.54s-1.17 2.54-2.614 2.54zm9.988-.003c-1.443 0-2.613-1.137-2.613-2.54s1.17-2.54 2.613-2.54c1.444 0 2.614 1.137 2.614 2.54s-1.17 2.54-2.614 2.54zm9.988-.002c-1.443 0-2.614-1.137-2.614-2.54s1.171-2.54 2.614-2.54c1.443 0 2.613 1.137 2.613 2.54s-1.17 2.54-2.613 2.54zM121.306 55l-82.616.019c-2.59 0-4.69 2.042-4.69 4.56l.002 8.862c0 2.518 2.101 4.559 4.692 4.559l82.616-.019c2.59 0 4.69-2.042 4.69-4.56l-.002-8.862c0-2.518-2.1-4.559-4.692-4.559zm-37.037 9.3c0 1.231-1.038 2.24-2.304 2.24l-38.33.01c-1.268 0-2.305-1.008-2.305-2.24v-.602c0-1.231 1.036-2.24 2.304-2.24l38.33-.008c1.267 0 2.305 1.007 2.305 2.239v.602zm11.814 2.237c-1.443 0-2.613-1.138-2.613-2.54 0-1.404 1.17-2.54 2.613-2.54 1.444 0 2.614 1.136 2.614 2.54 0 1.403-1.17 2.54-2.614 2.54zm9.988-.002c-1.443 0-2.613-1.137-2.613-2.54s1.17-2.54 2.613-2.54c1.444 0 2.614 1.137 2.614 2.54s-1.17 2.54-2.614 2.54zm9.988-.003c-1.443 0-2.614-1.137-2.614-2.54s1.171-2.54 2.614-2.54c1.443 0 2.613 1.137 2.613 2.54s-1.17 2.54-2.613 2.54zM121.306 77l-82.616.019c-2.59 0-4.69 2.042-4.69 4.56l.002 8.862c0 2.518 2.101 4.559 4.692 4.559l82.616-.019c2.59 0 4.69-2.042 4.69-4.56l-.002-8.863c0-2.518-2.1-4.559-4.692-4.558zm-37.037 9.3c0 1.231-1.038 2.24-2.304 2.24l-38.33.01c-1.268 0-2.305-1.008-2.305-2.24v-.602c0-1.231 1.036-2.24 2.304-2.24l38.33-.008c1.267 0 2.305 1.007 2.305 2.239v.602zm11.814 2.237c-1.443 0-2.613-1.138-2.613-2.54 0-1.404 1.17-2.54 2.613-2.54 1.444 0 2.614 1.136 2.614 2.54 0 1.403-1.17 2.54-2.614 2.54zm9.988-.003c-1.443 0-2.613-1.137-2.613-2.54s1.17-2.54 2.613-2.54c1.444 0 2.614 1.137 2.614 2.54s-1.17 2.54-2.614 2.54zm9.988-.002c-1.443 0-2.614-1.137-2.614-2.54s1.171-2.54 2.614-2.54c1.443 0 2.613 1.137 2.613 2.54s-1.17 2.54-2.613 2.54z" fill="#E7742E"/></svg>