<svg width="160" height="95" fill="none" xmlns="http://www.w3.org/2000/svg"><path fill-rule="evenodd" clip-rule="evenodd" d="M105.269 47.634c-.468-.406-1.607-.634-2.269-.634-.662 0-1.801.228-2.269.634-.468.406-.731.957-.731 1.532V65H28.48c-1.48 0-2.668.209-3.48 1-.812.791-1 2-1 3.5v21.136c0 1.158.16 2.546 1 3.364.84.818 2.292 1 3.48 1h103.04c1.188 0 2.64-.182 3.48-1 .84-.818 1-2.206 1-3.364V70c0-2.5-.16-3.182-1-4-.84-.818-2.292-1-3.48-1H106V49.166c0-.575-.263-1.126-.731-1.532zm-63.213 29.78a3.406 3.406 0 00-2.376-.959c-.891 0-1.746.345-2.376.959a3.23 3.23 0 00-.984 2.314c0 .868.354 1.7.984 2.314.63.614 1.485.958 2.376.958.891 0 1.746-.344 2.376-.958a3.23 3.23 0 00.984-2.314c0-.868-.354-1.7-.984-2.314zm77.144.132c.594 0 1.164.23 1.584.639.42.41.656.964.656 1.543 0 .578-.236 1.133-.656 1.543a2.27 2.27 0 01-1.584.638c-.594 0-1.164-.23-1.584-.639a2.154 2.154 0 01-.656-1.542c0-.579.236-1.134.656-1.543.42-.41.99-.64 1.584-.64zm-11.2 0c.594 0 1.164.23 1.584.639.42.41.656.964.656 1.543 0 .578-.236 1.133-.656 1.543a2.27 2.27 0 01-1.584.638c-.594 0-1.164-.23-1.584-.639a2.154 2.154 0 01-.656-1.542c0-.579.236-1.134.656-1.543.42-.41.99-.64 1.584-.64zm-11.2 0c.594 0 1.164.23 1.584.639.42.41.656.964.656 1.543 0 .578-.236 1.133-.656 1.543a2.27 2.27 0 01-1.584.638 2.27 2.27 0 01-1.584-.639 2.154 2.154 0 01-.656-1.542c0-.579.236-1.134.656-1.543.42-.41.99-.64 1.584-.64zm-11.2 0c.594 0 1.164.23 1.584.639.42.41.656.964.656 1.543 0 .578-.236 1.133-.656 1.543a2.27 2.27 0 01-1.584.638 2.27 2.27 0 01-1.584-.639 2.154 2.154 0 01-.656-1.542c0-.579.236-1.134.656-1.543.42-.41.99-.64 1.584-.64zm-11.2 0c.594 0 1.164.23 1.584.639.42.41.656.964.656 1.543 0 .578-.236 1.133-.656 1.543a2.27 2.27 0 01-1.584.638 2.27 2.27 0 01-1.584-.639 2.154 2.154 0 01-.656-1.542c0-.579.236-1.134.656-1.543.42-.41.99-.64 1.584-.64z" fill="#E7742E"/><path d="M98.388 45c-.54 0-1.053-.342-1.277-.913-.3-.76.029-1.64.734-1.964a12.39 12.39 0 0110.31 0c.705.324 1.033 1.204.734 1.964-.3.761-1.115 1.116-1.818.792a9.787 9.787 0 00-8.141.002 1.31 1.31 0 01-.542.119zM76.672 25a1.698 1.698 0 01-.947-.283 1.63 1.63 0 01-.614-.757 1.58 1.58 0 01-.064-.963c.08-.32.257-.608.509-.827 7.536-6.612 17.324-9.177 27.47-9.17 10.145-.006 19.932 2.558 27.47 9.166.309.293.489.692.503 1.111a1.6 1.6 0 01-.427 1.14 1.701 1.701 0 01-2.308.165c-6.926-6.073-15.915-8.588-25.238-8.582-9.322-.007-18.32 2.51-25.244 8.583-.303.27-.699.419-1.11.417z" fill="#E7742E"/><path d="M124.322 30a1.78 1.78 0 01-1.074-.352c-5.662-4.272-12.856-6.689-20.249-6.689-7.395 0-14.586 2.415-20.25 6.687a1.802 1.802 0 01-1.221.345 1.75 1.75 0 01-1.138-.535 1.466 1.466 0 01-.313-.517 1.379 1.379 0 01.113-1.155c.102-.176.241-.331.41-.457C86.864 22.602 94.82 20 102.998 20c8.181 0 16.135 2.603 22.402 7.33.708.537.802 1.489.209 2.13-.159.17-.357.306-.579.4a1.829 1.829 0 01-.709.14z" fill="#E7742E"/><path d="M118.406 35c-.332 0-.67-.1-.957-.309-4.188-3.03-9.184-4.695-14.449-4.695-5.261 0-10.255 1.663-14.445 4.692-.167.12-.358.209-.561.259a1.673 1.673 0 01-1.212-.163 1.547 1.547 0 01-.461-.396 1.483 1.483 0 01-.306-1.13c.059-.4.28-.763.619-1.011C91.381 28.815 95.917 27 102.999 27c7.084 0 11.621 1.815 16.367 5.25.338.248.56.61.619 1.01.058.4-.052.806-.306 1.13-.311.401-.787.61-1.273.61z" fill="#E7742E"/><path d="M93.458 40c-.483 0-.957-.254-1.232-.718-.43-.72-.227-1.671.453-2.126A18.542 18.542 0 01103 34c3.666 0 7.234 1.091 10.32 3.155.68.455.883 1.407.453 2.126-.429.72-1.328.935-2.009.48-2.62-1.752-5.651-2.802-8.765-2.802-3.116 0-6.147 1.051-8.77 2.803a1.375 1.375 0 01-.772.238z" fill="#E7742E"/></svg>