<svg width="160" height="95" fill="none" xmlns="http://www.w3.org/2000/svg"><path d="M97.805 24.03l-.97 2.482c-.16.32-.416.56-.764.72-.348.16-.683.158-1.003-.003l-4.57-1.855a12.504 12.504 0 01-3.3 3.197l1.915 4.574c.16.375.158.722-.003 1.042-.162.32-.403.56-.724.72l-2.491 1.035c-.322.16-.656.159-1.004-.002a1.543 1.543 0 01-.76-.724l-1.914-4.574c-.857.159-1.633.237-2.329.235-.642-.002-1.39-.084-2.246-.246l-1.939 4.563c-.108.32-.336.56-.684.72-.348.16-.71.158-1.084-.003l-2.405-1.048c-.374-.108-.627-.336-.76-.684a1.662 1.662 0 01-.038-1.082l1.939-4.483a13.72 13.72 0 01-3.283-3.295l-4.58 1.912a1.449 1.449 0 01-1.003-.043 1.368 1.368 0 01-.76-.683l-.957-2.488c-.16-.374-.172-.735-.037-1.082.134-.347.39-.573.764-.68l4.5-1.911a12.702 12.702 0 01-.235-2.325c.002-.641.084-1.416.247-2.324l-4.57-1.856a1.38 1.38 0 01-.68-.723c-.133-.32-.146-.668-.038-1.042l1.05-2.482c.162-.32.403-.56.725-.72.321-.159.669-.158 1.043.003l4.57 1.856a11.456 11.456 0 013.22-3.198L70.811 2.96c-.16-.375-.172-.722-.037-1.043.134-.32.39-.56.764-.719L74.03.163c.322-.16.656-.16 1.003.002.348.161.601.402.761.723l1.834 4.574a12.752 12.752 0 012.328-.234c.696.001 1.471.084 2.327.246L84.141.91c.162-.373.417-.627.765-.76a1.195 1.195 0 011.003.043l2.485 1.049c.375.108.628.336.761.683a1.19 1.19 0 01-.043 1.002l-1.858 4.564a13.719 13.719 0 013.282 3.295l4.5-1.912a1.669 1.669 0 011.084.043c.347.134.574.362.68.683l1.037 2.487c.16.375.172.736.037 1.082-.135.348-.39.574-.764.68l-4.58 1.912a12.7 12.7 0 01.234 2.325 12.623 12.623 0 01-.247 2.324l4.57 1.855c.375.161.628.402.761.723.133.321.119.669-.043 1.042zM79.983 10.358c-2.114-.006-3.935.737-5.464 2.23-1.529 1.492-2.296 3.307-2.302 5.444-.006 2.138.752 3.956 2.273 5.457 1.521 1.5 3.338 2.253 5.452 2.258 2.114.006 3.922-.738 5.424-2.23 1.502-1.492 2.256-3.307 2.261-5.445.006-2.137-.738-3.956-2.232-5.456-1.495-1.5-3.299-2.253-5.412-2.258zM77.33 51.193l-1.516 3.414 5.471 3.857-.72 3.418L74 63.232l.011 3.731 6.575 1.31.74 3.414-5.446 3.89 1.537 3.405 6.541-1.464 2.073 2.819-3.386 5.757 2.795 2.488 5.378-3.984 3.045 1.737-.738 6.63 3.57 1.142 3.284-5.816 3.491.354L105.507 95l3.729-.402.622-6.642 3.336-1.09 4.458 4.983 3.242-1.877-2.147-6.319 2.602-2.344 6.11 2.748 2.195-3.026-4.544-4.904 1.417-3.194 6.705.037.768-3.651-6.157-2.64-.012-3.493 6.14-2.679-.791-3.647-6.705.078-1.437-3.185 4.515-4.932-2.215-3.012-6.092 2.785-2.616-2.328 2.108-6.332-3.253-1.857-4.428 5.009-3.342-1.07-.664-6.637-3.732-.379-1.996 6.368-3.49.376-3.32-5.796-3.564 1.164.78 6.626-3.034 1.755-5.402-3.951-2.78 2.505 3.422 5.738-2.056 2.831-6.55-1.423zm31.452 1.509c6.85 2.605 10.281 10.24 7.662 17.055-2.618 6.814-10.293 10.227-17.143 7.622-6.85-2.605-10.28-10.24-7.662-17.054 2.618-6.815 10.294-10.228 17.143-7.623zM44.937 31.253l-2.697.762.393 4.989-2.32 1.22-3.925-3.128-2.15 1.79 2.394 4.405-1.617 2.059-4.857-1.271-1.23 2.511 3.98 3.061-.636 2.54-4.948.807-.098 2.796 4.878 1.186.456 2.58-4.184 2.746 1.052 2.6 4.933-.895 1.469 2.177-2.696 4.21 2.02 1.952 4.133-2.819 2.229 1.396-.742 4.945 2.638.967 2.621-4.256 2.601.374 1.342 4.826 2.8-.185.655-4.958 2.524-.712 3.192 3.872 2.477-1.304-1.425-4.803 2.013-1.677 4.49 2.25 1.727-2.2-3.26-3.816 1.152-2.35 5.013.236.678-2.713-4.529-2.172.091-2.616 4.668-1.816-.487-2.758-5.015-.149-.984-2.431 3.516-3.556-1.57-2.327-4.636 1.897-1.89-1.826 1.757-4.68-2.38-1.492-3.453 3.616-2.47-.905-.305-4.995-2.78-.4-1.674 4.71-2.62.173-2.314-4.442zM59.14 50.056a9.864 9.864 0 01-6.181 12.56c-5.192 1.754-10.842-1.027-12.619-6.211a9.864 9.864 0 016.18-12.56c5.191-1.752 10.84 1.027 12.62 6.21z" fill="#E7742E"/></svg>