<svg width="160" height="95" fill="none" xmlns="http://www.w3.org/2000/svg"><path d="M48.002 19a4.512 4.512 0 00-2.635.84 4.35 4.35 0 00-1.615 2.202 4.255 4.255 0 00.035 2.71 4.357 4.357 0 001.67 2.163v3.484a17.94 17.94 0 00-6.364 2.14l-2.825-3.957c.483-1.294.356-2.787-.51-3.982a4.525 4.525 0 00-3.664-1.867c-.891 0-1.782.25-2.546.797-2.01 1.369-2.52 4.082-1.094 6.048a4.445 4.445 0 003.64 1.867l3.003 4.181c-1.094 1.07-1.96 2.265-2.698 3.584a4.33 4.33 0 00-1.578-.298c-1.145 0-2.29.423-3.182 1.244a4.423 4.423 0 000 6.223c.739.672 1.63 1.045 2.546 1.244 0 1.344.178 2.638.458 3.883l-3.335.87a4.527 4.527 0 00-2.85-1.02c-.382 0-.79 0-1.171.15a4.447 4.447 0 00-2.698 2.042 4.276 4.276 0 00-.433 3.309c.535 1.966 2.393 3.21 4.302 3.21.382 0 .763 0 1.17-.149 1.451-.398 2.546-1.443 3.004-2.737l3.843-1.02c1.146 1.965 2.673 3.708 4.455 5.151l-2.8 4.978c-1.4.2-2.673.97-3.41 2.29a4.263 4.263 0 00-.346 3.315 4.31 4.31 0 00.813 1.501c.37.444.825.811 1.34 1.083a4.526 4.526 0 003.39.338 4.486 4.486 0 001.535-.796c.453-.361.83-.806 1.107-1.31a4.223 4.223 0 00.05-4.007l2.724-4.903a18.435 18.435 0 006.669 1.245h.458c-.331.647-.458 1.393-.458 2.19.203 2.29 2.138 4.032 4.454 4.032h.33c2.47-.2 4.302-2.29 4.124-4.68a4.363 4.363 0 00-1.654-3.06 18.55 18.55 0 003.41-1.967l5.957 5.824a4.369 4.369 0 001.196 3.883A4.697 4.697 0 0069 72.513a4.699 4.699 0 003.182-1.245 4.423 4.423 0 000-6.222A4.696 4.696 0 0069 63.8c-.254 0-.509 0-.789.075l-5.956-5.824a17.194 17.194 0 002.826-5.451h2.825a4.435 4.435 0 002.212 1.633 4.54 4.54 0 002.771.033 4.443 4.443 0 002.253-1.578c.56-.748.86-1.65.858-2.577a4.282 4.282 0 00-.858-2.577 4.443 4.443 0 00-2.253-1.578 4.54 4.54 0 00-2.771.033c-.897.3-1.672.872-2.212 1.633h-2.087c0-3.908-1.273-7.467-3.564-10.429l3.411-3.335c.28.075.535.075.79.075a4.69 4.69 0 003.18-1.245c1.706-1.717 1.706-4.48 0-6.222a4.696 4.696 0 00-3.18-1.245 4.696 4.696 0 00-3.183 1.245 4.369 4.369 0 00-1.196 3.883l-3.41 3.335a17.815 17.815 0 00-8.12-3.286v-3.484a4.356 4.356 0 001.67-2.163 4.254 4.254 0 00.034-2.71 4.35 4.35 0 00-1.614-2.203A4.512 4.512 0 0048.002 19zm0 41.068c-7.025 0-12.727-5.575-12.727-12.445s5.702-12.445 12.727-12.445 12.726 5.575 12.726 12.445-5.701 12.445-12.726 12.445zm-3.818-19.912c-2.113 0-3.818 1.668-3.818 3.733 0 2.066 1.705 3.734 3.818 3.734 2.112 0 3.818-1.668 3.818-3.733 0-2.066-1.706-3.734-3.818-3.734zm8.908 9.956c-1.4 0-2.545 1.12-2.545 2.489 0 1.369 1.145 2.489 2.545 2.489s2.546-1.12 2.546-2.49c0-1.368-1.146-2.488-2.546-2.488zM137.63 58.2a2.418 2.418 0 00-2.401 2.4h-4.93a22.327 22.327 0 00-4.867-11.68l3.49-3.488.032.032a2.417 2.417 0 003.394 0 2.414 2.414 0 000-3.392l-3.394-3.392a2.416 2.416 0 00-3.394 0 2.405 2.405 0 00-.032 3.36l-3.489 3.488a22.465 22.465 0 00-11.654-4.832V35.8h.032a2.418 2.418 0 002.401-2.4c0-1.312-1.089-2.4-2.401-2.4h-4.803a2.418 2.418 0 00-2.401 2.4c0 1.312 1.057 2.368 2.369 2.4v4.96c-4.386.448-8.388 2.208-11.653 4.832l-3.49-3.488.032-.032a2.414 2.414 0 000-3.392 2.415 2.415 0 00-3.394 0l-3.393 3.392a2.413 2.413 0 000 3.392 2.407 2.407 0 003.361.032l3.49 3.488A22.042 22.042 0 0085.733 60.6h-4.93a2.42 2.42 0 00-2.402-2.4A2.418 2.418 0 0076 60.6v4.8c0 1.312 1.088 2.4 2.401 2.4a2.418 2.418 0 002.401-2.4h4.93c.481 4.384 2.21 8.352 4.803 11.616l-3.49 3.488a2.376 2.376 0 00-3.361.032 2.413 2.413 0 000 3.392l3.393 3.392a2.416 2.416 0 003.394 0 2.414 2.414 0 000-3.392l-.032-.032 3.49-3.488a22.359 22.359 0 0011.621 4.832v4.96c-1.312.032-2.369 1.088-2.369 2.4 0 1.312 1.089 2.4 2.401 2.4h4.803a2.418 2.418 0 002.401-2.4c0-1.312-1.089-2.4-2.401-2.4h-.032v-4.928c4.386-.448 8.388-2.208 11.654-4.832l3.489 3.488c-.928.928-.896 2.432.032 3.36a2.417 2.417 0 003.394 0l3.394-3.392a2.414 2.414 0 000-3.392 2.416 2.416 0 00-3.394 0l-.032.032-3.49-3.488a22.471 22.471 0 004.867-11.68h4.93c0 1.312 1.088 2.4 2.401 2.4a2.418 2.418 0 002.401-2.4v-4.8c.032-1.28-1.056-2.368-2.369-2.368zm-24.012-8a3.21 3.21 0 013.202 3.2 3.21 3.21 0 01-3.202 3.2 3.21 3.21 0 01-3.201-3.2 3.21 3.21 0 013.201-3.2zm-5.602 16a3.21 3.21 0 01-3.202-3.2 3.21 3.21 0 013.202-3.2 3.21 3.21 0 013.201 3.2c0 1.76-1.44 3.2-3.201 3.2zm-5.603-16a3.21 3.21 0 013.201 3.2c0 1.76-1.44 3.2-3.201 3.2a3.21 3.21 0 01-3.202-3.2 3.21 3.21 0 013.202-3.2zm-5.603 16a3.21 3.21 0 01-3.2-3.2c0-1.76 1.44-3.2 3.201-3.2a3.21 3.21 0 013.202 3.2 3.21 3.21 0 01-3.202 3.2zm5.603 9.6a3.21 3.21 0 01-3.202-3.2 3.21 3.21 0 013.202-3.2 3.21 3.21 0 013.201 3.2c0 1.76-1.44 3.2-3.201 3.2zm11.205 0a3.21 3.21 0 01-3.201-3.2 3.21 3.21 0 013.201-3.2 3.21 3.21 0 013.202 3.2 3.21 3.21 0 01-3.202 3.2zM116.02 63c0-1.76 1.44-3.2 3.201-3.2a3.21 3.21 0 013.202 3.2 3.21 3.21 0 01-3.202 3.2 3.21 3.21 0 01-3.201-3.2z" fill="#E7742E"/></svg>