<svg width="132" height="96" fill="none" xmlns="http://www.w3.org/2000/svg"><path d="M25.35 28C14.99 28 10 34.571 10 44.762v10.19c0 9.62 3.838 15.715 12.472 15.715 5.373 0 9.019-2.477 10.841-7.048v14.952c0 7.048-2.494 10.667-8.25 10.667-5.373 0-7.963-3.524-7.963-9.524V78h-7.004v1.238C10.096 89.428 14.989 96 25.255 96 36 96 40.797 89.333 40.797 78.762v-34C40.797 34.572 35.712 28 25.35 28zm0 6.762c5.47 0 7.963 3.524 7.963 9.619v10c0 6-2.494 9.619-7.963 9.619-5.372 0-7.963-3.619-7.963-9.619v-10c0-6.095 2.59-9.62 7.963-9.62zm31.15.571h19.763v-6.666h-26.48l-1.822 37.047h7.004v-1.523c.671-4.858 3.453-7.143 7.579-7.143 5.373 0 7.867 3.619 7.867 9.619v12.952c0 6-2.494 9.62-7.867 9.62-5.373 0-7.867-3.62-7.867-9.62v-4.952h-7.004v4.476C47.673 89.333 52.47 96 62.736 96 73 96 77.894 89.333 77.894 79.143V66.095c0-9.524-3.837-15.81-12.472-15.81-4.51 0-7.867 1.906-9.978 5.525L56.5 35.332zM90.867 80c4.893 0 8.3-3.524 8.3-9.19 0-5.667-3.407-9.191-8.3-9.191-4.893 0-8.347 3.572-8.347 9.19 0 5.62 3.454 9.191 8.347 9.191zm-2.926 15.333h5.709L116.579 62h-5.708l-22.93 33.333zm2.926-19.238c-2.062 0-3.502-1.762-3.502-5.285 0-3.524 1.44-5.286 3.502-5.286 2.111 0 3.502 1.714 3.502 5.285 0 3.572-1.391 5.286-3.502 5.286zm22.786 19.62c4.893 0 8.347-3.572 8.347-9.191 0-5.62-3.454-9.19-8.347-9.19-4.845 0-8.299 3.57-8.299 9.19 0 5.619 3.454 9.19 8.299 9.19zm0-3.906c-2.063 0-3.502-1.714-3.502-5.285 0-3.572 1.439-5.286 3.502-5.286 2.111 0 3.502 1.762 3.502 5.286 0 3.524-1.391 5.285-3.502 5.285z" fill="#E7742E"/></svg>