<svg width="132" height="96" fill="none" xmlns="http://www.w3.org/2000/svg"><g clip-path="url(#clip0_646_362)" fill="#E7742E"><path d="M67.07 10.428a2.863 2.863 0 00-2.14 0L30.614 24.22l13.823 5.552 35.386-14.219-12.753-5.125zm20.493 8.24L52.176 32.885 66 38.44l35.385-14.22-13.823-5.552zm18.687 9.821L68.875 43.512v45.771l37.375-15.022V28.489zm-43.125 60.8V43.506L25.75 28.489v45.778l37.375 15.022zM62.797 5.06a8.587 8.587 0 016.406 0l40.991 16.478c.533.214.99.584 1.312 1.062.322.478.494 1.042.494 1.619v50.047a5.804 5.804 0 01-.99 3.238 5.758 5.758 0 01-2.627 2.123L67.07 96.234a2.863 2.863 0 01-2.14 0L23.622 79.628a5.754 5.754 0 01-2.63-2.122 5.797 5.797 0 01-.992-3.24V24.22c0-.577.172-1.141.494-1.619a2.878 2.878 0 011.311-1.062L62.797 5.06z"/><path d="M97.8 46.908a3.525 3.525 0 00-4.803 1.374L86.44 60.103l-3.752-3.76a3.532 3.532 0 00-3.878-.816 3.531 3.531 0 00-1.932 1.935 3.543 3.543 0 00.816 3.885l7.063 7.076a3.523 3.523 0 002.497 1.038l.49-.035a3.526 3.526 0 002.597-1.785l8.83-15.922a3.543 3.543 0 00-1.371-4.811z"/></g><defs><clipPath id="clip0_646_362"><path fill="#fff" transform="translate(20 4)" d="M0 0h92v92H0z"/></clipPath></defs></svg>