<svg width="102" height="96" fill="none" xmlns="http://www.w3.org/2000/svg"><path d="M93.074 22H86v3.396h7.074c3.067 0 5.561 2.517 5.561 5.611v41.37c0 3.095-2.494 5.612-5.56 5.612H67.572c-.592 0-1.143.318-1.446.832L59 90.97l-7.127-12.148a1.682 1.682 0 00-1.447-.832h-25.5c-3.067 0-5.561-2.517-5.561-5.612V59.314H16v13.063c0 4.968 4.003 9.008 8.926 9.008h24.54l8.088 13.783c.302.514.853.832 1.446.832s1.144-.318 1.446-.832l8.089-13.783h24.54c4.922 0 8.925-4.04 8.925-9.008v-41.37C102 26.04 97.993 22 93.074 22z" fill="#fff"/><path d="M33.465 59.385l8.089 13.783c.302.514.853.832 1.446.832.597 0 1.144-.318 1.446-.832l8.089-13.783h24.54c4.922 0 8.925-4.04 8.925-9.008V9.007C86 4.04 81.997 0 77.074 0H8.926C4.003 0 0 4.04 0 9.007v41.37c0 4.968 4.003 9.008 8.926 9.008h24.54zm-24.54-3.4c-3.066 0-5.56-2.517-5.56-5.612V9.003c0-3.094 2.494-5.612 5.56-5.612h68.153c3.067 0 5.561 2.518 5.561 5.612v41.37c0 3.095-2.494 5.612-5.56 5.612H51.577c-.593 0-1.144.318-1.447.832l-7.127 12.148-7.127-12.148a1.682 1.682 0 00-1.446-.832H8.926z" fill="#E7742E"/></svg>