<svg width="132" height="96" fill="none" xmlns="http://www.w3.org/2000/svg"><path d="M107.143 20H24.857C21.086 20 18 23.06 18 26.8v54.4c0 3.74 3.086 6.8 6.857 6.8h82.286c3.771 0 6.857-3.06 6.857-6.8V26.8c0-3.74-3.086-6.8-6.857-6.8zm3.428 61.2H21.429V23.4h89.142v57.8zM128.189 94c-1.9 1.08-6.564 2-10.365 2H14.176c-3.8 0-8.465-.92-10.365-2-1.9-1.08-.345-2 3.455-2h117.468c3.8 0 5.355.92 3.455 2z" fill="#E7742E"/><path d="M90.926 50.12c-.165-2.21-2.061-3.94-4.326-3.94h-.883a19.669 19.669 0 00-1.676-4.014l.626-.626c1.583-1.583 1.712-4.16.276-5.836a22.546 22.546 0 00-2.65-2.651c-1.676-1.436-4.253-1.307-5.836.276l-.626.626a21.766 21.766 0 00-4.014-1.676v-.883c0-2.247-1.73-4.143-3.94-4.327a25.586 25.586 0 00-3.755 0c-2.209.166-3.94 2.062-3.94 4.327v.883a19.667 19.667 0 00-4.013 1.676l-.626-.626c-1.583-1.584-4.16-1.712-5.835-.276a22.545 22.545 0 00-2.651 2.65c-1.436 1.676-1.307 4.254.276 5.837l.626.626a21.769 21.769 0 00-1.676 4.014H45.4c-2.246 0-4.142 1.73-4.326 3.94A21.353 21.353 0 0041 51.998c0 .626.018 1.252.074 1.878.165 2.209 2.062 3.94 4.326 3.94h.883a19.644 19.644 0 001.676 4.013l-.626.626c-1.583 1.584-1.712 4.161-.276 5.837a22.546 22.546 0 002.65 2.65c1.676 1.437 4.253 1.308 5.836-.275l.626-.626a21.72 21.72 0 004.014 1.675v.884c0 2.246 1.73 4.142 3.94 4.326.625.056 1.251.074 1.877.074.626 0 1.252-.018 1.878-.074 2.209-.165 3.94-2.062 3.94-4.326v-.884a19.743 19.743 0 004.013-1.675l.626.626c1.583 1.583 4.16 1.712 5.835.276a22.545 22.545 0 002.651-2.651c1.436-1.676 1.307-4.253-.276-5.837l-.626-.626a21.769 21.769 0 001.675-4.013h.884c2.246 0 4.142-1.731 4.326-3.94.056-.626.074-1.252.074-1.878 0-.626-.018-1.252-.074-1.878zm-2.761 3.535c-.055.773-.755 1.38-1.565 1.38h-1.95c-.645 0-1.197.442-1.344 1.068a17.581 17.581 0 01-2.173 5.23c-.33.552-.257 1.251.203 1.693l1.38 1.38c.571.572.627 1.492.13 2.081-.369.424-.737.829-1.123 1.215-.387.387-.792.774-1.215 1.124-.59.515-1.51.441-2.08-.13l-1.381-1.38a1.37 1.37 0 00-1.694-.203 17.863 17.863 0 01-5.228 2.173c-.626.147-1.068.7-1.068 1.344v1.97c0 .81-.608 1.51-1.38 1.565a19.93 19.93 0 01-3.314 0c-.774-.056-1.381-.755-1.381-1.565v-1.952c0-.644-.442-1.197-1.068-1.344a17.579 17.579 0 01-5.228-2.172 1.29 1.29 0 00-.718-.203c-.35 0-.718.147-.976.405l-1.38 1.381c-.571.57-1.492.626-2.08.129a23.714 23.714 0 01-1.216-1.123 17.558 17.558 0 01-1.123-1.215c-.515-.59-.442-1.51.13-2.08l1.38-1.382c.46-.46.534-1.16.202-1.694a17.867 17.867 0 01-2.172-5.228 1.379 1.379 0 00-1.344-1.068h-1.951c-.81 0-1.51-.608-1.565-1.38-.037-.553-.074-1.106-.074-1.658 0-.552.019-1.105.074-1.657.055-.773.755-1.38 1.565-1.38h1.951a1.38 1.38 0 001.344-1.069 17.58 17.58 0 012.172-5.228c.332-.553.258-1.252-.202-1.694l-1.38-1.381c-.572-.57-.627-1.491-.13-2.08.368-.424.737-.829 1.123-1.216.387-.386.792-.773 1.215-1.123.59-.515 1.51-.442 2.08.13l1.381 1.38c.46.46 1.16.534 1.694.203a17.865 17.865 0 015.228-2.173 1.379 1.379 0 001.068-1.344v-1.951c0-.81.607-1.51 1.38-1.566a19.927 19.927 0 013.314 0c.773.056 1.381.755 1.381 1.566v1.951c0 .644.442 1.197 1.068 1.344a17.576 17.576 0 015.228 2.173c.552.331 1.252.257 1.694-.203l1.38-1.38c.571-.572 1.492-.627 2.08-.13.424.369.83.737 1.216 1.123.386.387.773.792 1.123 1.216.515.589.441 1.51-.13 2.08l-1.38 1.38a1.37 1.37 0 00-.203 1.695 17.85 17.85 0 012.173 5.228c.147.626.7 1.068 1.344 1.068h1.95c.81 0 1.51.608 1.565 1.381.037.552.074 1.105.074 1.657s-.019 1.086-.074 1.639z" fill="#E7742E"/><path d="M53.61 47.69l8.138 4.068a6.525 6.525 0 00-.037.608 4.333 4.333 0 004.326 4.327 4.333 4.333 0 004.326-4.327c0-.7-.166-1.344-.46-1.933l7.419-7.42a1.39 1.39 0 000-1.951 1.389 1.389 0 00-1.951 0l-7.42 7.42a4.274 4.274 0 00-1.932-.461c-1.197 0-2.265.497-3.057 1.27l-8.136-4.069a1.404 1.404 0 00-1.86.627 1.37 1.37 0 00.645 1.84zm10.844 4.694a1.564 1.564 0 113.129 0 1.564 1.564 0 11-3.13 0zM66 40.104a1.39 1.39 0 001.38-1.38V37.25A1.39 1.39 0 0066 35.87a1.39 1.39 0 00-1.38 1.38v1.473A1.39 1.39 0 0066 40.104zm0 23.806a1.39 1.39 0 00-1.38 1.38v1.473A1.39 1.39 0 0066 68.144a1.39 1.39 0 001.38-1.38V65.29c0-.773-.607-1.38-1.38-1.38zm14.764-13.293h-1.472a1.39 1.39 0 00-1.381 1.381c0 .755.626 1.38 1.38 1.38h1.473a1.39 1.39 0 001.381-1.38 1.39 1.39 0 00-1.38-1.38zm-28.037 0h-1.473a1.39 1.39 0 00-1.38 1.381c0 .755.625 1.38 1.38 1.38h1.473a1.39 1.39 0 001.38-1.38 1.39 1.39 0 00-1.38-1.38z" fill="#E7742E"/></svg>