<svg width="132" height="96" fill="none" xmlns="http://www.w3.org/2000/svg"><g clip-path="url(#clip0_646_372)" fill="#E7742E"><path d="M52.3 32.661a1.126 1.126 0 01-.206-1.22l2.59-5.906a15.816 15.816 0 01-2.546-8.624C52.138 8.141 59.288 1 68.07 1 76.851 1 84 8.14 84 16.911s-7.149 15.912-15.93 15.912a15.88 15.88 0 01-8.077-2.204l-6.487 2.321c-.117.044-.25.059-.382.059a1.1 1.1 0 01-.824-.338zm2.089-15.735c0 2.836.868 5.554 2.5 7.86.25.353.265.808.074 1.175l-1.765 3.997 4.457-1.602a1.13 1.13 0 011.06.074 13.68 13.68 0 007.354 2.145c7.546 0 13.68-6.127 13.68-13.664S75.615 3.248 68.07 3.248c-7.546.015-13.68 6.141-13.68 13.678zM34.727 38a8 8 0 100-16 8 8 0 000 16zm11.559 2H22.714a4.74 4.74 0 00-3.333 1.367 4.643 4.643 0 00-1.381 3.3V68h7.071V49.333h1.179V96h7.66V69.167h1.18V96h7.66V49.333h1.179V68H51V44.667a4.643 4.643 0 00-1.38-3.3A4.74 4.74 0 0046.285 40zm51.441-2a8 8 0 008-8 8 8 0 10-8 8zm11.559 2H85.714a4.74 4.74 0 00-3.333 1.367 4.643 4.643 0 00-1.381 3.3V68h7.071V49.333h1.179V96h7.66V69.167h1.18V96h7.66V49.333h1.179V68H114V44.667a4.644 4.644 0 00-1.381-3.3A4.738 4.738 0 00109.286 40z"/></g><defs><clipPath id="clip0_646_372"><path fill="#fff" d="M0 0h132v96H0z"/></clipPath></defs></svg>