<svg width="132" height="96" fill="none" xmlns="http://www.w3.org/2000/svg"><path d="M32.458 33c4.426 0 8-3.575 8-8s-3.574-8-8-8a7.99 7.99 0 00-8 8c.085 4.425 3.66 8 8 8zm0 44c4.426 0 8-3.575 8-8s-3.574-8-8-8a7.99 7.99 0 00-8 8c.085 4.425 3.66 8 8 8zm66.455-44c4.426 0 8-3.575 8-8s-3.574-8-8-8a7.99 7.99 0 00-8 8c.085 4.425 3.66 8 8 8z" fill="#E7742E"/><path d="M110 51.52V38.678c0-2.552-1.878-4.678-4.182-4.678H93.015c-2.305 0-4.183 2.126-4.183 4.678v3.232l-6.828 6.803a3.55 3.55 0 00-1.366-.255H52.13c-.598 0-1.11.17-1.536.34l-7.426-6.718v-3.402c0-2.552-1.878-4.678-4.182-4.678H26.181C23.878 34 22 36.126 22 38.678V51.52c0 .17.085.255.085.425h20.997c0-.17.086-.255.086-.425v-5.954L48.8 50.67a3.326 3.326 0 00-.341 1.531v16.84c0 .595.17 1.19.426 1.7l-6.572 9.1c-.768-1.105-1.963-1.785-3.243-1.785H26.268c-2.305 0-4.183 2.126-4.183 4.677v12.843c0 .17.086.255.086.425h20.997c0-.17.085-.255.085-.425V82.988l7.597-10.546a4 4 0 001.45.255h28.51a3.55 3.55 0 001.366-.255l6.913 9.27c-.085.34-.085.595-.085.935V95.49c0 .17.085.255.085.425h20.827c0-.17.085-.255.085-.425V82.647c0-2.551-1.878-4.677-4.182-4.677H93.015c-1.11 0-2.049.425-2.817 1.19l-6.316-8.42c.256-.51.512-1.105.512-1.785V52.2c0-.68-.17-1.19-.427-1.786l4.865-4.848v5.954c0 .17.086.255.086.425h20.997c.085-.17.085-.255.085-.425z" fill="#E7742E"/><path d="M90.998 69c0 4.425 3.574 8 8 8 4.425 0 8-3.575 8-8s-3.575-8-8-8a7.99 7.99 0 00-8 8z" fill="#E7742E"/><path d="M56.744 56.125H53v8.75h1.69V62.35h2.054c2.392 0 3.874-1.188 3.874-3.113 0-1.937-1.482-3.112-3.874-3.112zm-.078 4.85H54.69V57.5h1.976c1.482 0 2.249.638 2.249 1.737 0 1.1-.767 1.738-2.249 1.738zm13.414 3.9L67.987 62c1.235-.462 1.937-1.438 1.937-2.763 0-1.937-1.482-3.112-3.874-3.112h-3.744v8.75h1.69v-2.55h2.054c.117 0 .234 0 .35-.013l1.86 2.563h1.82zm-1.86-5.638c0 1.1-.766 1.75-2.248 1.75h-1.976V57.5h1.976c1.482 0 2.249.638 2.249 1.737zM76.066 65c2.82 0 4.9-1.9 4.9-4.5s-2.08-4.5-4.9-4.5c-2.822 0-4.901 1.913-4.901 4.5 0 2.587 2.08 4.5 4.9 4.5zm0-1.425c-1.834 0-3.198-1.288-3.198-3.075 0-1.788 1.365-3.075 3.198-3.075 1.832 0 3.197 1.288 3.197 3.075 0 1.788-1.365 3.075-3.198 3.075z" fill="#fff"/></svg>