<svg width="132" height="96" fill="none" xmlns="http://www.w3.org/2000/svg"><path d="M107.794 50.38H97.622v-7.255c0-3.895-3.181-7.076-7.117-7.076H32.868c-.737 0-1.348.608-1.348 1.34 0 .733.611 1.34 1.348 1.34h57.62c2.425 0 4.42 1.966 4.42 4.396v7.255H89.05c-6.308 0-11.43 5.093-11.43 11.365S82.742 73.11 89.05 73.11h14.504v7.255c0 7.165-5.859 12.99-13.066 12.99H25.661a2.96 2.96 0 01-2.965-2.948v-2.948h67.81c3.917 0 7.116-3.163 7.116-7.077v-2.859c0-.732-.611-1.34-1.348-1.34-.737 0-1.348.608-1.348 1.34v2.86c0 2.412-1.977 4.395-4.42 4.395h-67.81V38.73h4.421c.737 0 1.348-.607 1.348-1.34 0-.732-.611-1.34-1.348-1.34h-4.421v-2.948a2.96 2.96 0 012.965-2.949h64.826c7.207 0 13.066 5.826 13.066 12.991v2.86c0 .732.611 1.34 1.348 1.34.737 0 1.348-.608 1.348-1.34v-2.86c0-4.86-2.247-9.22-5.769-12.097V17.34c0-.732-.611-1.34-1.348-1.34H27.117c-.737 0-1.348.608-1.348 1.34v10.114h-.09c-3.127 0-5.679 2.52-5.679 5.629V90.37c0 3.111 2.552 5.63 5.661 5.63h64.826c8.68 0 15.762-7.023 15.762-15.671v-7.255h1.527c2.337 0 4.224-1.894 4.224-4.2V54.58c.018-2.323-1.887-4.199-4.206-4.199zm-9.992-31.7v10.561c-.97-.5-1.995-.911-3.073-1.215v-4.968c0-.732-.611-1.34-1.348-1.34H28.465V18.68h69.337zm-69.337 5.718h63.568v3.128a14.57 14.57 0 00-1.528-.072h-62.04v-3.056zm80.857 44.495c0 .84-.683 1.518-1.528 1.518H89.067c-4.816 0-8.734-3.895-8.734-8.684s3.918-8.684 8.734-8.684h18.727c.845 0 1.528.679 1.528 1.519v14.33z" fill="#E7742E"/><path d="M89.067 56.098c-3.127 0-5.66 2.538-5.66 5.63 0 3.09 2.551 5.628 5.66 5.628 3.11 0 5.662-2.537 5.662-5.629 0-3.091-2.534-5.629-5.662-5.629zm0 8.595a2.96 2.96 0 01-2.965-2.948 2.96 2.96 0 012.965-2.948 2.96 2.96 0 012.966 2.948 2.96 2.96 0 01-2.966 2.948z" fill="#E7742E"/></svg>