<svg width="132" height="96" fill="none" xmlns="http://www.w3.org/2000/svg"><path d="M57.597 29h16.827c.862 0 1.576-.68 1.576-1.5s-.714-1.5-1.576-1.5H57.576c-.862 0-1.576.68-1.576 1.5s.714 1.5 1.597 1.5zm28.216 53.94h2.733c.795 0 1.454-.691 1.454-1.524 0-.832-.698-1.502-1.493-1.502h-2.733c-1.628 0-3.16.67-4.323 1.868l-1.608 1.685-5.97-4.873a1.505 1.505 0 00-1.164-.305c-.407.082-.756.346-.988.711l-1.028 1.807-2.655-5.015A1.506 1.506 0 0066.797 75c-.523 0-1.008.264-1.28.731l-3.295 5.767c-.581 1.015-1.628 1.624-2.752 1.624h-2.016c-.795 0-1.454.69-1.454 1.523 0 .832.66 1.523 1.454 1.523h2.016c2.132 0 4.148-1.199 5.253-3.107l2.016-3.513 2.655 5.016c.252.467.737.771 1.241.791.523 0 1.008-.264 1.28-.73l1.492-2.6 5.699 4.65c.271.224.582.325.892.325.368 0 .756-.142 1.027-.447" fill="#E7742E"/><path d="M100 27.188c0-1.255-.486-2.43-1.398-3.306l-12.72-12.508A4.812 4.812 0 0082.518 10H35.16c-1.742 0-3.14 1.394-3.14 3.087L32 92.913C32 94.626 33.418 96 35.14 96h61.68c1.722 0 3.14-1.374 3.14-3.087V37.565h.04V27.188zM83.754 13.505l12.68 12.448H83.857c-.06 0-.102-.04-.102-.1V13.506zM96.82 93.032H77.597c-.081-.02-.162-.02-.243-.02H35.16c-.06 0-.101-.04-.101-.1V13.088c0-.06.04-.1.101-.1h45.556v12.867c0 1.713 1.418 3.087 3.14 3.087H96.92v63.992c0 .06-.04.1-.101.1z" fill="#E7742E"/><path d="M46.465 37.722c-.8 0-1.465.68-1.465 1.5s.645 1.5 1.465 1.5H55v-3h-8.535zm0 8c-.8 0-1.465.68-1.465 1.5s.645 1.5 1.465 1.5H55v-3h-8.535zm0 8c-.8 0-1.465.68-1.465 1.5s.645 1.5 1.465 1.5H55v-3h-8.535zm0 8c-.8 0-1.465.68-1.465 1.5s.645 1.5 1.465 1.5H55v-3h-8.535zm39.065-21c.803 0 1.47-.68 1.47-1.5s-.667-1.5-1.47-1.5H77v3h8.53zm0 8c.803 0 1.47-.68 1.47-1.5s-.667-1.5-1.47-1.5H77v3h8.53zm0 8c.803 0 1.47-.68 1.47-1.5s-.667-1.5-1.47-1.5H77v3h8.53zm0 8c.803 0 1.47-.68 1.47-1.5s-.667-1.5-1.47-1.5H77v3h8.53zM69.89 37.023c-.186 0-.371.04-.538.12-.26.06-.52.199-.724.418l-8.836 9.413c-.556.597-.556 1.592 0 2.189a1.372 1.372 0 002.042 0l6.645-7.065v21.373c0 .836.65 1.552 1.448 1.552.78 0 1.448-.676 1.448-1.552V38.556c-.056-.836-.706-1.533-1.485-1.533z" fill="#E7742E"/></svg>