<svg width="132" height="96" fill="none" xmlns="http://www.w3.org/2000/svg"><path d="M64.607 48.117l-1.641 3.698 5.926 4.178-.78 3.703L61 61.158l.012 4.043 7.123 1.42.802 3.697-5.9 4.214 1.665 3.689 7.086-1.587 2.245 3.054-3.667 6.238 3.028 2.695 5.825-4.316 3.3 1.882-.8 7.183 3.868 1.237 3.557-6.301 3.782.383 2.207 6.885 4.04-.436.674-7.195 3.613-1.18 4.83 5.397 3.512-2.033-2.326-6.846 2.818-2.54 6.62 2.977 2.378-3.278-4.923-5.312 1.535-3.46 7.264.04.832-3.955-6.67-2.861-.013-3.783 6.652-2.903-.857-3.95-7.264.084-1.557-3.45 4.891-5.344-2.399-3.262-6.6 3.017-2.834-2.523 2.284-6.86-3.525-2.01-4.796 5.426-3.62-1.159-.72-7.19-4.043-.411-2.163 6.898-3.78.408-3.597-6.28-3.861 1.261.845 7.178-3.287 1.902-5.852-4.28-3.011 2.714 3.706 6.215-2.226 3.068-7.096-1.541zM98.68 49.75c7.421 2.822 11.138 11.094 8.301 18.476-2.837 7.382-11.151 11.08-18.572 8.258-7.42-2.823-11.137-11.094-8.3-18.476 2.837-7.382 11.151-11.08 18.572-8.258zM30.375 26.3l-2.998.846.437 5.543-2.576 1.357-4.363-3.477-2.388 1.99 2.66 4.894-1.796 2.287-5.398-1.412-1.367 2.79 4.423 3.401-.706 2.822-5.499.897-.109 3.107 5.42 1.317.508 2.867-4.65 3.051 1.17 2.888 5.48-.993 1.632 2.419-2.995 4.678 2.243 2.168 4.594-3.131 2.476 1.55-.824 5.495 2.93 1.075 2.914-4.73 2.89.416 1.49 5.362 3.112-.205.727-5.51 2.805-.79 3.546 4.302 2.753-1.45-1.583-5.336 2.236-1.863 4.988 2.499 1.92-2.444-3.622-4.24 1.28-2.611 5.57.262.753-3.014-5.032-2.413.101-2.907 5.186-2.018-.54-3.064-5.573-.166-1.094-2.701 3.907-3.951-1.745-2.586-5.15 2.108-2.1-2.03 1.952-5.199-2.644-1.657-3.837 4.017-2.744-1.006-.34-5.55-3.087-.443-1.861 5.233-2.912.193-2.57-4.937zm15.78 20.891a10.96 10.96 0 01-6.867 13.956c-5.769 1.949-12.046-1.141-14.021-6.901a10.96 10.96 0 016.867-13.956c5.767-1.947 12.045 1.142 14.021 6.901z" fill="#E7742E"/></svg>