<svg width="132" height="96" fill="none" xmlns="http://www.w3.org/2000/svg"><path d="M58.857 85.543V54.546l-34.928.071v26.56l34.928 4.366zm3.786-32.859v35.15c-.143 1.002-1.072 1.718-2.072 1.647l-38.714-4.797a1.871 1.871 0 01-1.714-1.861V52.756c0-1.002.857-1.861 1.857-1.861l38.5-.072h.143c1.143-.072 2 .788 2 1.861zm-3.786-10.022V12.38l-35.143 4.44v25.843h35.143zm3.786-32.43v34.291c0 1.002-.857 1.862-1.857 1.862H21.857A1.846 1.846 0 0120 44.523v-29.35c0-.931.714-1.719 1.643-1.862l38.714-4.868c.143 0 .286-.072.429-.072 1 0 1.857.86 1.857 1.862zm8.143 32.43h37.357V6.009l-37.357 4.94v31.713zm39.285 3.723H68.929a1.846 1.846 0 01-1.858-1.862V9.302c0-.93.715-1.718 1.643-1.861l41-5.37c.143 0 .286-.071.429-.071 1.071 0 1.857.86 1.857 1.861v40.662c-.071 1.074-.929 1.862-1.929 1.862zm-1.928 45.53V54.617l-37.357-.071v32.429l37.357 4.94zm3.786-39.16V94.35c-.143 1.002-1.072 1.718-2.072 1.646l-41-5.44c-1-.072-1.786-.86-1.786-1.862V52.756c0-1.074.858-1.861 1.858-1.861l41 .071h.142c1-.071 1.858.716 1.858 1.79z" fill="#E7742E"/></svg>