<svg width="32" height="32" viewBox="0 0 32 32" fill="none" xmlns="http://www.w3.org/2000/svg">
<path d="M29.631 2.00297C29.2358 2.03198 28.8479 2.12552 28.4824 2.27994H28.4775C28.1266 2.42029 26.4586 3.12825 23.9226 4.20137L14.835 8.06286C8.31407 10.8326 1.90398 13.5601 1.90398 13.5601L1.98031 13.5303C1.98031 13.5303 1.53836 13.6769 1.07672 13.9961C0.791515 14.1792 0.5461 14.4187 0.355319 14.7003C0.128805 15.0356 -0.0533902 15.5486 0.0143177 16.079C0.125112 16.9757 0.701245 17.5135 1.11488 17.8103C1.53344 18.1109 1.9323 18.2513 1.9323 18.2513H1.94215L7.95337 20.2944C8.22297 21.1676 9.78518 26.3493 10.1606 27.5429C10.3822 28.2559 10.5977 28.7018 10.8673 29.0421C10.9978 29.216 11.1504 29.3613 11.3338 29.478C11.4292 29.534 11.5309 29.5782 11.6367 29.6097L11.5751 29.5948C11.5936 29.5997 11.6084 29.6147 11.6219 29.6196C11.6712 29.6333 11.7044 29.6382 11.7672 29.6482C12.7188 29.9388 13.4833 29.3426 13.4833 29.3426L13.5263 29.3079L17.0755 26.0475L23.0239 30.6517L23.1593 30.7101C24.399 31.2591 25.6547 30.9536 26.3182 30.4145C26.9867 29.8717 27.2464 29.1775 27.2464 29.1775L27.2895 29.0657L31.8863 5.30678C32.0168 4.72054 32.05 4.17156 31.906 3.63873C31.7574 3.09947 31.4145 2.63567 30.9445 2.33832C30.5499 2.09626 30.0922 1.97943 29.631 2.00297ZM29.5066 4.54914C29.5017 4.62739 29.5165 4.61869 29.482 4.76898V4.78264L24.9284 28.2944C24.9087 28.3279 24.8754 28.4012 24.7843 28.4745C24.6883 28.5515 24.612 28.5999 24.2119 28.4397L16.9364 22.812L12.5415 26.8536L13.4648 20.9043L25.3518 9.72594C25.8418 9.26639 25.6781 9.16951 25.6781 9.16951C25.7125 8.60563 24.9382 9.00432 24.9382 9.00432L9.94891 18.373L9.94398 18.3481L2.75956 15.9075V15.9026L2.7411 15.8989C2.75369 15.8946 2.76603 15.8897 2.77803 15.884L2.81742 15.8641L2.85559 15.8504C2.85559 15.8504 9.2706 13.1229 15.7915 10.3532C19.0562 8.96582 22.3456 7.56853 24.8754 6.49044C27.4052 5.41857 29.2752 4.63236 29.3811 4.59013C29.482 4.55038 29.434 4.55038 29.5066 4.55038V4.54914Z" fill="#E7742E"/>
</svg>
