<svg width="134" height="78" fill="none" xmlns="http://www.w3.org/2000/svg"><path fill-rule="evenodd" clip-rule="evenodd" d="M80.926 4c.448 4.062-1.18 8.137-3.593 11.068-2.412 2.927-6.37 5.207-10.245 4.906-.531-3.98 1.428-8.129 3.662-10.72C73.245 6.325 77.45 4.14 80.926 4zm11.306 23.445c-.604.376-7.208 4.492-7.135 12.85.091 10.1 8.574 13.55 8.895 13.681a.21.21 0 01.008.004 3.683 3.683 0 00-.012.04c-.158.524-1.495 4.981-4.577 9.581-2.767 4.119-5.634 8.224-10.152 8.314-2.17.04-3.622-.602-5.13-1.268-1.58-.697-3.221-1.422-5.817-1.422-2.718 0-4.436.746-6.091 1.465-1.435.623-2.823 1.227-4.776 1.306-4.363.17-7.682-4.455-10.47-8.56-5.692-8.4-10.047-23.734-4.2-34.08 2.9-5.142 8.087-8.395 13.721-8.48 2.428-.048 4.78.903 6.838 1.735 1.572.636 2.972 1.202 4.105 1.202 1.016 0 2.379-.547 3.969-1.187 2.502-1.006 5.567-2.238 8.724-1.912 2.165.094 8.234.891 12.133 6.71a3.387 3.387 0 01-.033.021z" fill="#fff"/></svg>