<svg width="134" height="78" fill="none" xmlns="http://www.w3.org/2000/svg"><path d="M124.536 33.131v-6.13h-22.504c-4.698 0-6.815 2.905-7.163 5.723v.087-5.81h-6.612v6.13h36.279zM94.84 35.339l-6.612-.377v7.06c0 2.208-1.102 2.877-4.93 2.877H78.02c-3.161 0-4.495-.901-4.495-2.877v-7.729l-6.699-.494v8.775h-.145c-.377-2.557-1.334-5.52-7.714-5.956L38 35.223c0 3.225 2.291 5.143 5.887 5.52l14.616 1.482c1.16.088 2.001.436 2.001 1.395 0 1.046-.87 1.162-2.204 1.162H37.739v-9.559l-6.699-.436V51h27.289c6.09 0 8.033-3.167 8.323-5.81h.145c.754 4.183 4.408 5.81 10.585 5.81h6.815c7.221 0 10.643-2.208 10.643-7.38v-8.28zm21.257 1.25l-20.967-1.25c0 3.225 2.117 5.376 5.713 5.666l14.935 1.162c1.16.087 1.856.378 1.856 1.337 0 .9-.812 1.25-2.494 1.25H94.782V51h20.793c6.554 0 9.425-2.295 9.425-7.525 0-4.707-2.581-6.48-8.903-6.886zM66.826 27h6.699v6.131h-6.699v-6.13zm-39.469 7.497l-7.279-.727L9 51h8.149l10.208-16.503zM65.608 27H45.163c-4.756 0-6.844 2.964-7.337 5.811v-5.81H26.487c-1.595 0-2.349.493-3.103 1.597l-3.132 4.533h45.356v-6.13z" fill="#fff"/></svg>