<svg width="134" height="78" fill="none" xmlns="http://www.w3.org/2000/svg"><path d="M64.62 30.556l-8.446 6.497c-.866-3.25-3.683-5.632-7.148-5.632h-6.063v14.943h6.063c3.465 0 6.497-2.383 7.146-5.632l8.447 6.497 8.446-6.497v5.632h9.528v-3.032h-6.28v-11.91h-3.465v5.629l-8.013 6.498-1.733-1.516 3.9-3.033 4.113-3.248-2.381-1.948-8.013 6.279-1.733-1.517 8.013-6.063-2.383-1.948h.001zm-18.408 3.896h2.599c.541 0 1.07.123 1.557.346.487.224.932.548 1.311.954.38.406.691.893.908 1.44a4.91 4.91 0 01.337 1.809c0 .595-.108 1.177-.308 1.715s-.49 1.032-.855 1.452c-.366.42-.805.765-1.303 1.005a3.763 3.763 0 01-1.647.375h-2.6v-9.096zm47.21 8.88v3.032h-9.529V31.421h3.465v11.91h6.064v.001zM67 5C48.376 5 33 20.376 33 39c0 18.625 15.16 34 34 34s34-15.159 34-34c0-18.84-15.376-34-34-34zm0 3.466c2.111 0 4.171.212 6.161.618a30.342 30.342 0 0110.924 4.59 30.602 30.602 0 018.242 8.241 30.35 30.35 0 014.59 10.924c.405 1.99.617 4.05.617 6.161 0 2.112-.212 4.172-.618 6.161a30.34 30.34 0 01-4.59 10.924 30.6 30.6 0 01-8.241 8.242 30.348 30.348 0 01-10.924 4.59c-1.99.405-4.05.617-6.161.617-2.111 0-4.171-.212-6.161-.618a30.14 30.14 0 01-5.737-1.773 30.534 30.534 0 01-13.428-11.055 30.354 30.354 0 01-4.59-10.924 30.775 30.775 0 01-.618-6.161c0-2.112.212-4.172.618-6.16a30.347 30.347 0 014.589-10.925 30.563 30.563 0 0113.428-11.055 30.35 30.35 0 015.738-1.776 30.774 30.774 0 016.16-.618L67 8.466z" fill="#fff"/></svg>