<svg width="134" height="78" fill="none" xmlns="http://www.w3.org/2000/svg"><path fill-rule="evenodd" clip-rule="evenodd" d="M67 5c18.778 0 34 15.222 34 34 0 18.777-15.222 34-34 34-.338 0-.675-.006-1.01-.015l6.948-19.097h9.563c1.678 0 3.52-1.29 4.094-2.867l7.538-20.707c1.234-3.388-.707-6.163-4.314-6.163H76.552l-11.13 30.587h-.006l-6.31 17.34C44.137 68.517 33 55.06 33 39c0-15.596 10.502-28.739 24.82-32.744L51.31 24.15h-.002L40.483 53.888h7.206l9.206-25.269h5.416l-9.206 25.27h7.203l8.578-23.575c1.234-3.388-.708-6.163-4.311-6.163h-6.058l6.955-19.115A33.31 33.31 0 0167 5zm15.16 23.601h5.413l-7.582 20.802h-5.413l7.581-20.802z" fill="#fff"/></svg>