<svg width="134" height="78" fill="none" xmlns="http://www.w3.org/2000/svg"><g clip-path="url(#clip0_796_10523)"><path fill-rule="evenodd" clip-rule="evenodd" d="M18.392 47.806a.132.132 0 01-.036.156l.001.001a.15.15 0 01-.176.026c-1.831-.901-9.703-4.883-12.953-8.038a6.229 6.229 0 01-2.16-4.25c-.265-3.533 3.461-7.052 3.461-7.052a96.84 96.84 0 0111.863 19.157zm-1.317 2.77c.03.02.053.05.065.086h-.012s.035.072-.064.161v.004c-1.27.913-5.17 3.62-6.891 4.049-2.48.6-4.888-1.358-6.308-3.881l13.106-.455v.002a.18.18 0 01.104.033zm.212-1.278s.114.09.05.191l-.002-.001a.175.175 0 01-.135.091h-.162c-2.245.01-9.476.042-9.668.005a8.044 8.044 0 01-2.506-.549 7.745 7.745 0 01-4.132-3.89 7.693 7.693 0 01-.356-5.651s11.169 5.937 16.912 9.8l-.002.004zm-1.19-25.884s1.54-.348 2.11-.399L18.21 23s3.862 4.99 1.978 23.759h-.002a.16.16 0 01-.122.162s-.071.032-.158-.054c-1.222-1.764-6.923-10.172-8.08-15.287a7.945 7.945 0 01-.018-4.138 6.07 6.07 0 014.29-4.028zm6.636 23.432a.15.15 0 01-.189.07v-.001a.154.154 0 01-.102-.142h-.002c-1.89-18.78 1.996-23.759 1.996-23.759 1.061.149 2.063.4 2.063.4a6.096 6.096 0 012.692 1.454 6.057 6.057 0 011.64 2.574 8.582 8.582 0 01-.022 4.138c-1.151 5.093-6.816 13.455-8.075 15.266zm2.764 3.807c.02-.084.148-.1.148-.1l.003-.006 13.122.458c-2.942 5.03-6.33 3.882-6.33 3.882-1.838-.499-5.64-3.16-6.891-4.056a.188.188 0 01-.052-.178zm-.139-1.367c5.762-3.87 16.903-9.821 16.903-9.821v-.002a7.858 7.858 0 01-.293 5.553 7.673 7.673 0 01-4.22 4.017 7.865 7.865 0 01-2.255.518l-10.065.026v-.003c-.08 0-.135-.098-.135-.098a.178.178 0 01.065-.19zm-.874-1.297a.168.168 0 01-.179-.013l.015-.002a.18.18 0 01-.036-.208h-.004A96.758 96.758 0 0136.123 28.66s3.682 3.38 3.446 7.033a6.279 6.279 0 01-2.16 4.27c-3.235 3.138-11.049 7.093-12.925 8.026zm24.235-2.223h3.127v-5.719h6.957v5.718h3.127v-13.66h-3.127v5.535h-6.957v-5.536h-3.127v13.662zm22.232-2.058c-2.585 0-3.35-1.007-3.35-3.423l-.015-8.182h-3.105v8.258c0 1.73.169 2.934.853 3.668 1.22 1.337 3.02 1.887 5.605 1.887 2.584 0 4.362-.55 5.587-1.887a5.398 5.398 0 00.868-3.668v-8.258h-3.125v8.182c0 2.406-.732 3.423-3.318 3.423zm22.993 2.056l-6.33-13.661H84.3l-6.285 13.661h3.322l1.323-3.255h6.458l1.365 3.255h3.462zm-5.853-5.688h-4.429l2.173-5.25 2.256 5.25zm22.427 5.688l4.594-13.66-3.182.014-3.207 10.502-3.329-10.502h-3.684L98.813 42.62l-3.446-10.502h-3.356l4.948 13.66h3.809l2.769-10.198 3.153 10.184h3.828zm17.461-8.105h-8.649l-.011-.01c.127-2.15 1.264-3.175 3.516-3.174h5.13v-2.381h-5.19c-4.78 0-6.994 2.249-6.994 7.077a6.226 6.226 0 002.274 5.384 7.054 7.054 0 004.635 1.198h5.276v-2.38h-5.13c-2.463 0-3.518-.892-3.535-3.346h8.678v-2.368zM134 32.104h-3.267v13.662H134V32.104z" fill="#fff"/></g><defs><clipPath id="clip0_796_10523"><path fill="#fff" d="M0 0h134v78H0z"/></clipPath></defs></svg>