<svg width="134" height="78" fill="none" xmlns="http://www.w3.org/2000/svg"><path fill-rule="evenodd" clip-rule="evenodd" d="M8.588 46.683h12.529v4.981H3V26h5.588v20.683zm19.546-8.822c.938-1.24 2.434-1.97 4.24-1.97 1.986 0 3.493 1.117 4.272 2.765l-9.63 3.932c-.264-2.017.261-3.596 1.118-4.727zm10.59 7.73c-2.32 1.689-3.646 2.092-5.761 2.092-1.904 0-3.395-.582-4.446-1.602l14.093-5.753c-.308-2.144-1.135-4.06-2.407-5.516-1.852-2.116-4.592-3.236-7.93-3.236-6.06 0-10.631 4.4-10.631 10.212 0 5.963 4.581 10.212 11.24 10.212 3.73 0 7.544-1.74 9.328-3.773l-3.486-2.637zm11.378-10.848c1.606-2.111 4.235-3.166 6.546-3.166 4.85 0 8.153 3.297 8.153 7.841v12.247H59.29V40.423c0-2.612-2.36-4.174-4.641-4.174-2.952 0-4.546 2.151-4.546 4.174v11.242h-5.511V31.909h5.512v2.834zm48.895 10.624l4.983-13.457h6.296l-8.26 19.749h-6.04l-8.26-19.75h6.297l4.984 13.458zm21.178-9.142c-3.079 0-5.314 2.295-5.314 5.561 0 3.119 2.368 5.562 5.388 5.562 3.079 0 5.313-2.359 5.313-5.562 0-3.118-2.366-5.562-5.387-5.562zm0 15.772c-6.029 0-10.753-4.42-10.753-10.21 0-5.726 4.757-10.211 10.827-10.211 6.028 0 10.751 4.42 10.751 10.21 0 5.725-4.755 10.21-10.825 10.21zm-47.754-10.21c0-3.267 2.234-5.563 5.312-5.563 3.021 0 5.388 2.444 5.388 5.562 0 3.203-2.234 5.562-5.313 5.562-3.02 0-5.387-2.443-5.387-5.562zm-5.439 0c0 5.79 4.723 10.21 10.751 10.21 6.07 0 10.827-4.486 10.827-10.21 0-5.791-4.724-10.211-10.752-10.211-6.07 0-10.826 4.485-10.826 10.21z" fill="#fff"/></svg>