<svg width="134" height="78" fill="none" xmlns="http://www.w3.org/2000/svg"><path fill-rule="evenodd" clip-rule="evenodd" d="M34.552 65c14.112 0 25.551-11.645 25.551-25.998C60.103 24.639 48.664 13 34.552 13 20.439 13 9 24.64 9 39.002 9 53.355 20.44 65 34.552 65zm-1.015-37.414v22.795h7.117v-2.037h-5.088V27.586h-2.029zm-4.076 3.11c0 1.715-1.375 3.114-3.067 3.114-1.686 0-3.062-1.4-3.062-3.115 0-1.718 1.376-3.115 3.062-3.115 1.692 0 3.067 1.397 3.067 3.115zm6.105-13.45a28.111 28.111 0 00-1.014-.016c-11.786 0-21.38 9.762-21.38 21.763 0 5.81 2.213 11.274 6.25 15.382 4.052 4.117 9.425 6.38 15.13 6.38 5.707 0 11.08-2.264 15.127-6.38 4.036-4.108 6.255-9.572 6.255-15.382v-.99H40.669v2.025h13.236v.29c-.68 10.262-9.103 18.4-19.353 18.4-5.175 0-10.04-2.049-13.706-5.774-3.664-3.727-5.68-8.683-5.68-13.951 0-5.266 2.016-10.225 5.68-13.952 3.666-3.73 8.53-5.78 13.706-5.78.234 0 .782.006 1.014.012v-2.027zm76.189 25.75h6.216v5.875c-1.147.447-3.381.888-5.509.888-6.867 0-9.157-3.55-9.157-10.757 0-6.877 2.179-10.926 9.046-10.926 3.82 0 5.999 1.22 7.796 3.547l4.745-4.435c-2.89-4.215-7.96-5.489-12.701-5.489-10.687 0-16.3 5.93-16.3 17.245 0 11.262 5.069 17.364 16.243 17.364 5.123 0 10.142-1.333 12.866-3.275V36.73h-13.245v6.267zM80.959 55.809h14.004v-6.55h-15.81V22.2h-7.626v33.61h9.432z" fill="#fff"/></svg>