<svg width="134" height="78" fill="none" xmlns="http://www.w3.org/2000/svg"><path d="M46.422 27.048h-6.877v9.157h-7.158v-9.157H25.51v23.037h6.877v-9.061h7.158v9.061h6.877V27.048zm23.922 18.408V27.048h-6.877v23.037h12.435l1.034-4.629h-6.592zm-11.96-18.408h-6.878v23.037h6.877V27.048zm27.878 0h-6.874v23.037h6.874V27.048zm33.904 5.88c0-1.254 1.226-1.834 3.202-1.834 2.167 0 4.523.485 6.124 1.163l-.563-5.016c-1.793-.386-3.394-.674-6.311-.674-5.557 0-9.326 2.242-9.326 6.94 0 8.096 10.742 6.46 10.742 10.218 0 1.443-1.041 2.212-3.583 2.212-2.257 0-5.747-.769-7.818-1.83l.755 5.304c2.072.773 4.896 1.156 7.159 1.156 5.744 0 10.453-1.929 10.453-7.713 0-7.707-10.834-6.263-10.834-9.926zm-19.398 11.664c6.4 0 10.453-3.375 10.453-9.255 0-6.456-4.332-8.77-11.397-8.77-2.731 0-6.029.193-8.382.48v23.038h6.877v-5.493h2.449zm3.672-9.157c0 2.986-1.412 5.012-4.994 5.012h-1.127v-9.52c.4-.023.775-.023 1.127-.023 3.39 0 4.994 1.637 4.994 4.531zm-92.114 9.157c6.403 0 10.453-3.375 10.453-9.255 0-6.456-4.332-8.77-11.394-8.77-2.734 0-6.029.193-8.385.48v23.038h6.877v-5.493h2.449zm3.675-9.157c0 2.986-1.415 5.012-4.994 5.012h-1.13v-9.52c.4-.023.778-.023 1.13-.023 3.39 0 4.994 1.637 4.994 4.531z" fill="#fff"/></svg>