<svg width="134" height="78" fill="none" xmlns="http://www.w3.org/2000/svg"><path d="M110.919 44.023h-.104l-4.405-15.395h-7.107v19.409h4.707l-.265-15.928h.104l4.731 15.928h6.819v-19.41h-4.74l.26 15.396zM20.502 28.627L16.956 48.24h5.174l2.621-17.804h.11l2.552 17.805h5.143l-3.53-19.615h-8.524zm28.939.002l-2.365 14.996h-.108L44.615 28.63h-7.81l-.425 19.61h4.788l.12-17.638h.108l3.199 17.638h4.857l3.2-17.632.106-.006.124 17.638h4.791l-.423-19.612h-7.81zM5.09 33.672a2.563 2.563 0 01-.02-1.023c.139-.63.553-1.321 1.752-1.321 1.123 0 1.777.712 1.777 1.776v1.212h4.782v-1.37c0-4.278-3.747-4.946-6.46-4.946C3.52 28 .74 29.16.228 32.358c-.14.86-.157 1.648.047 2.64.831 4.01 7.634 5.17 8.622 7.706.185.472.125 1.085.034 1.456-.155.642-.585 1.31-1.864 1.31-1.196 0-1.926-.703-1.926-1.773l-.002-1.903H.003L0 43.31C0 47.685 3.361 49 6.96 49c3.47 0 6.314-1.201 6.774-4.475.234-1.698.062-2.811-.021-3.227-.81-4.109-8.075-5.323-8.621-7.626zm62.307.046a2.483 2.483 0 01-.023-1.005c.134-.627.545-1.31 1.733-1.31 1.11 0 1.762.702 1.762 1.752v1.203h4.73V33c0-4.226-3.712-4.892-6.39-4.892-3.374 0-6.13 1.133-6.63 4.312-.14.856-.162 1.638.043 2.617.825 3.966 7.56 5.119 8.54 7.627.178.472.124 1.075.037 1.442-.156.647-.587 1.294-1.847 1.294-1.19 0-1.907-.691-1.907-1.75l-.004-1.889h-5.089v1.503c0 4.33 3.332 5.63 6.896 5.63 3.427 0 6.247-1.19 6.699-4.43.232-1.676.06-2.78-.02-3.194-.803-4.065-7.998-5.273-8.53-7.553zm21.718 9.414c.004.25-.004.538-.045.748-.095.488-.504 1.411-1.836 1.411-1.327 0-1.741-.923-1.837-1.41-.04-.211-.05-.5-.048-.749V28.625h-4.84v14.058c-.008.364.028 1.1.045 1.295.329 3.657 3.157 4.838 6.679 4.838 3.518 0 6.346-1.181 6.685-4.838.017-.195.054-.933.048-1.295V28.625h-4.852v14.507h.001zm38.106-5.918v2.872h1.961v2.845a3.85 3.85 0 01-.045.745c-.085.528-.574 1.419-1.955 1.419-1.385 0-1.872-.892-1.961-1.42a4.296 4.296 0 01-.043-.744v-8.974c0-.32.02-.668.078-.92.102-.484.514-1.424 1.907-1.424 1.465 0 1.827.993 1.914 1.423.056.273.06.741.06.74v1.104h4.827v-.655c-.002 0 .017-.67-.039-1.282-.355-3.689-3.331-4.85-6.722-4.85-3.393 0-6.299 1.17-6.72 4.85-.041.317-.084.934-.084 1.282l-.002 8.252c.002.37.014.643.067 1.296.315 3.571 3.346 4.851 6.735 4.851 3.391 0 6.422-1.28 6.739-4.85.052-.655.06-.928.061-1.297v-5.263h-6.778z" fill="#fff"/></svg>