<svg width="134" height="78" fill="none" xmlns="http://www.w3.org/2000/svg"><path d="M51.326 49c-4.202 0-8.103-1.296-10.707-3.699-1.967-1.815-2.912-4.281-2.912-6.82 0-2.507.986-4.99 2.912-6.796C43.037 29.42 47.306 28 51.326 28c4.448 0 8.008 1.152 10.73 3.692 1.936 1.806 2.872 4.279 2.872 6.79 0 2.434-.993 5.026-2.872 6.82C59.52 47.72 55.539 49 51.326 49v-2.77c2.23 0 4.299-.792 5.744-2.27 1.435-1.468 2.103-3.273 2.103-5.478 0-2.113-.72-4.089-2.103-5.49-1.426-1.444-3.544-2.256-5.744-2.256-2.207 0-4.327.804-5.754 2.256-1.374 1.4-2.097 3.382-2.097 5.49 0 2.1.731 4.08 2.097 5.478 1.428 1.461 3.54 2.27 5.754 2.27V49zM20.613 28.01c-2.248 0-4.802.433-6.971 1.429-2.003.919-3.642 2.405-3.642 4.868 0 2.219 1.37 3.518 1.333 3.482.583.552 1.522 1.492 3.977 2.044 1.097.247 3.443.626 5.779.877 2.318.252 4.6.49 5.53.732.738.194 1.978.457 1.978 1.888 0 1.425-1.306 1.86-1.534 1.954-.226.092-1.794.832-4.612.832-2.08 0-4.582-.643-5.494-.979-1.05-.384-2.153-.893-3.181-2.185-.256-.32-.66-1.2-.66-2.073h-2.55v7.349h2.835v-.993c0-.113.137-.578.613-.357.592.277 2.33.988 4.148 1.378 1.49.32 2.45.55 4.303.55 3.023 0 4.646-.506 5.769-.835 1.057-.312 2.364-.87 3.426-1.741.574-.47 1.835-1.677 1.835-3.867 0-2.102-1.097-3.407-1.483-3.804-.526-.54-1.168-.96-1.837-1.283a13.255 13.255 0 00-2.256-.81c-1.461-.369-4.765-.824-6.345-.994-1.657-.178-4.531-.423-5.679-.788-.348-.111-1.057-.459-1.057-1.305 0-.603.324-1.113.965-1.526 1.018-.656 3.074-1.064 5.217-1.064 2.534-.01 4.68.586 6.045 1.214.464.213 1.008.52 1.439.881.487.408 1.17 1.257 1.417 2.44h2.29v-6.397h-2.557v.744c0 .24-.24.551-.697.294-1.144-.617-4.379-1.95-8.345-1.955zm56.028 1.163l12.471 11.573-.128-7.792c-.012-1.022-.195-1.448-1.27-1.448h-2.345v-2.331h10.664v2.33h-2.288c-1.096 0-1.165.361-1.178 1.449l.193 14.889h-3.652L74.743 34.66l.003 9.356c.013 1.017.06 1.496 1.078 1.496h2.561v2.33H67.913v-2.33h2.448c.914 0 .878-.897.878-1.55v-10.92c0-.704-.096-1.535-1.532-1.535H67.72v-2.334h8.92zm31.577 16.334c.1 0 .545-.013.631-.04a.793.793 0 00.491-.448c.032-.079.049-.428.049-.504l.002-3.684c0-.089-.007-.127-.153-.324-.161-.216-6.533-7.64-6.824-7.968-.362-.406-.998-1.033-1.965-1.033h-2.215v-2.332h12.505v2.329h-1.508c-.348 0-.58.34-.282.718 0 0 4.207 5.175 4.247 5.23.039.054.073.068.126.017.053-.051 4.313-5.2 4.347-5.24a.45.45 0 00-.372-.723h-1.546v-2.331H126v2.332h-2.29c-.83 0-1.168.158-1.793.884-.286.332-6.726 7.89-6.901 8.096-.092.107-.084.256-.084.345v3.683c0 .074.016.425.049.503.078.19.245.37.491.448.087.027.525.04.625.04h2.343v2.332h-12.441v-2.332l2.219.002z" fill="#fff"/></svg>