<svg width="134" height="78" fill="none" xmlns="http://www.w3.org/2000/svg"><path fill-rule="evenodd" clip-rule="evenodd" d="M87.435 25C85.297 27.162 84 29.042 84 34.516v16.876h4.684v-17.11c0-2.687.193-3.98 1.543-5.385L87.435 25zM68.63 45.921c2.598 3.937 5.868 5.393 9.453 5.393v-4.298c-2.522 0-4.269-1.4-6.096-4.254-.685-1.066-1.425-2.242-2.228-3.518a441.528 441.528 0 00-4.626-7.239c-2.777-4.255-6.155-6.174-10.125-6.174-3.978 0-7.352 1.92-10.123 6.174a463.068 463.068 0 00-4.734 7.419c-.759 1.207-1.46 2.322-2.11 3.338-1.84 2.855-3.593 4.213-6.112 4.213-2.516 0-4.268-1.358-6.097-4.213a688.063 688.063 0 00-3.53-5.39c-.955-1.447-2-3.031-3.17-4.82C16.354 28.3 12.976 26.377 9 26.377v4.377c2.756 0 4.357 1.376 6.074 3.944.998 1.5 2.413 3.652 3.927 5.953 1.147 1.744 2.351 3.573 3.472 5.27 2.601 3.937 5.865 5.393 9.456 5.393 3.602 0 6.86-1.456 9.46-5.393a455.601 455.601 0 004.188-6.526c1.307-2.062 2.51-3.96 3.371-5.25 1.704-2.57 3.312-3.892 6.06-3.892 2.753 0 4.354 1.323 6.06 3.893.848 1.27 2.028 3.132 3.314 5.16 1.389 2.19 2.9 4.573 4.248 6.615zm-9.894-2.828c0 1.962-1.57 3.556-3.518 3.556-1.946 0-3.521-1.594-3.521-3.556 0-1.964 1.575-3.559 3.52-3.559 1.949 0 3.52 1.595 3.52 3.559zm61.597-4.522c0 4.953-3.862 8.97-8.622 8.97-4.767 0-8.624-4.017-8.624-8.97 0-4.958 3.857-8.973 8.624-8.973 4.76 0 8.622 4.015 8.622 8.973zm-8.622-13.431c-7.34 0-13.288 6.012-13.288 13.431 0 7.413 5.948 13.43 13.288 13.43C119.05 52 125 45.983 125 38.57c0-7.419-5.95-13.431-13.289-13.431z" fill="#fff"/></svg>