<svg width="134" height="78" fill="none" xmlns="http://www.w3.org/2000/svg"><path fill-rule="evenodd" clip-rule="evenodd" d="M35.581 73h62.837A2.581 2.581 0 00101 70.42V7.58A2.58 2.58 0 0098.418 5H35.581A2.58 2.58 0 0033 7.58v62.84A2.581 2.581 0 0035.581 73zm45.39-46.611h5.35c.227 0 .415.182.415.407v24.408a.412.412 0 01-.415.405h-5.35a.41.41 0 01-.414-.405V26.796a.41.41 0 01.415-.407zm-12.916-.004H47.677a.41.41 0 00-.413.406v24.41a.41.41 0 00.413.404h5.351a.413.413 0 00.417-.405V32.043a.41.41 0 01.413-.405h11.526c3.242 0 4.162 2.483 4.162 4.084V51.2a.41.41 0 00.415.405h5.348a.411.411 0 00.414-.405V33.885c0-1.429-.172-3.482-2.014-5.29-1.929-1.887-3.688-2.21-5.654-2.21zM58.69 36.11h5.618a.41.41 0 01.413.405v14.69a.41.41 0 01-.413.404H58.69a.412.412 0 01-.417-.404v-14.69c0-.223.188-.405.417-.405z" fill="#fff"/></svg>