<svg width="1064" height="414" fill="none" xmlns="http://www.w3.org/2000/svg"><path d="M187.971 337.341h-6.474v1.873h6.474v-1.873zm0-4.655h-6.474v1.872h6.474v-1.872zm25.186-27.678a2.246 2.246 0 002.226-2.227 2.246 2.246 0 00-2.226-2.226 2.246 2.246 0 00-2.225 2.226 2.214 2.214 0 002.225 2.227zm14.415 0a2.246 2.246 0 002.225-2.227 2.246 2.246 0 00-2.225-2.226 2.246 2.246 0 00-2.226 2.226c-.05 1.265.961 2.227 2.226 2.227zm-39.601 36.988h-6.474v1.316h6.474v-1.316zm0-13.965h-6.474v1.872h6.474v-1.872zm53.964-27.476a2.245 2.245 0 00-2.225 2.226 2.245 2.245 0 002.225 2.227 2.246 2.246 0 002.226-2.227 2.246 2.246 0 00-2.226-2.226zm-53.964 22.72h-6.474v1.973h6.474v-1.973zm233.458 2.631h-31.862v2.783h31.862v-2.783zm401.776 34.762l-46.176-30.816H590.657v-2.783h187.232l46.833 31.271-1.517 2.328zm207.415-84.856h-2.78v-77.013H922.688v77.013h-2.781v-79.796h110.713v79.796z" fill="#E7742E"/><path d="M1015.04 293.623v-2.783c8.19 0 11.48-8.855 12.54-12.549H902.458v1.417c0 6.173 3.844 11.183 8.547 11.183h99.885v2.783h-99.885c-6.271 0-11.329-6.275-11.329-13.966v-4.2h131.344l-.3 1.619c-.05.152-2.99 16.496-15.68 16.496z" fill="#E7742E"/><path d="M966.083 283.958h-23.265c-3.743 0-6.828-3.036-6.828-6.831v-.809h2.781v.809a4.059 4.059 0 004.047 4.048h23.265a4.059 4.059 0 004.046-4.048v-.809h2.781v.809c0 3.795-3.085 6.831-6.827 6.831zm24.934-39.114h-30.194v-26.666h30.194v26.666zm-27.413-2.783h24.631v-21.1h-24.631v21.1z" fill="#E7742E"/><path d="M972.91 237.963c-.354 0-.657-.101-.961-.253a1.935 1.935 0 01-.91-1.619v-8.349c0-.658.354-1.265.91-1.62.557-.354 1.265-.354 1.872-.05l7.839 4.2a1.878 1.878 0 011.012 1.669c0 .709-.405 1.316-1.012 1.67l-7.839 4.2a2.872 2.872 0 01-.911.152zm.911-8.703v5.363l5.007-2.682-5.007-2.681zm33.789 29.196h-4.46v-2.783h4.46v2.783zm-8.906 0h-4.451v-2.783h4.451v2.783zm-8.851 0h-4.451v-2.783h4.451v2.783zm-8.851 0h-4.45v-2.783h4.45v2.783zm-8.85 0h-4.451v-2.783h4.451v2.783zm-8.851 0h-4.451v-2.783h4.451v2.783zm-8.851 0h-4.451v-2.783h4.451v2.783zm-8.851 0h-4.451v-2.783h4.451v2.783z" fill="#E7742E"/><path d="M932.905 271.308h-2.782v-65.071h91.387v64.717h-88.605v.354zm0-3.137h85.825V209.02h-85.825v59.151zm67.565-84.856h-46.576v2.783h46.576v-2.783zm13.61 0h-6.83v2.783h6.83v-2.783zM358.563 356.822h-28.069v-5.566c0-8.501-6.019-16.951-11.38-24.44-.404-.556-.758-1.062-1.163-1.619-4.046-5.718-5.917-12.397-5.361-19.228.607-7.539 3.743-14.522 8.8-19.683 5.311-5.364 12.391-8.501 20.483-8.956 9.408-.557 18.005 2.428 24.277 8.349 6.12 5.819 9.508 13.813 9.508 22.618 0 6.021-1.871 11.84-5.462 16.85-4.653 6.527-11.683 16.445-11.683 25.806v5.869h.05zm-25.338-2.783h22.506v-3.036c0-10.272 7.334-20.594 12.189-27.425 3.237-4.554 4.956-9.816 4.956-15.281 0-8.046-3.085-15.332-8.648-20.594-5.715-5.415-13.605-8.096-22.203-7.59-14.768.86-25.49 11.334-26.704 26.059-.506 6.223 1.163 12.245 4.855 17.406.354.557.759 1.063 1.164 1.619 5.563 7.793 11.885 16.648 11.885 26.059v2.783z" fill="#E7742E"/><path d="M353.759 290.941c-1.467-.607-2.984-1.012-4.552-1.316l.455-2.732c1.77.304 3.49.81 5.108 1.467l-1.011 2.581zm-31.054 19.329l-2.782-.202c.961-12.6 11.127-22.669 23.721-23.428.556-.051 1.112-.051 1.669-.051v2.783c-.506 0-1.012 0-1.518.051-11.177.658-20.281 9.614-21.09 20.847zm39.146 2.783h-35.504v2.783h35.504v-2.783zm-9.957 9.178l-5.9 32.921 2.738.492 5.9-32.922-2.738-.491zm-14.403-.022l-2.736.505 6.068 32.891 2.735-.505-6.067-32.891z" fill="#E7742E"/><path d="M344.099 333.799c-6.069 0-11.987-1.568-17.196-4.604l1.416-2.429a31.588 31.588 0 0015.83 4.25 31.71 31.71 0 0015.578-4.098l1.365 2.428a34.642 34.642 0 01-16.993 4.453zm1.062 63.756l-14.718-21.049v-19.987h2.782v19.076l11.784 16.9 10.571-16.85v-19.126h2.781v19.936l-13.2 21.1z" fill="#E7742E"/><path d="M358.311 375.595h-2.782a4.858 4.858 0 00-4.855-4.858 4.858 4.858 0 00-4.856 4.858h-2.781a4.858 4.858 0 00-4.856-4.858 4.858 4.858 0 00-4.855 4.858h-2.782c0-4.2 3.439-7.641 7.637-7.641a7.524 7.524 0 016.221 3.239 7.527 7.527 0 016.221-3.239c4.248 0 7.688 3.441 7.688 7.641zm-6.525 6.629h-13.858v2.783h13.858v-2.783zm4.906-20.848h-25.288v2.783h25.288v-2.783zm19.219-7.286l-12.796-6.528 1.265-2.479 11.025 5.617 8.851-8.4-5.31-11.992.354-.607c1.517-2.581 2.731-5.364 3.641-8.198l.202-.657 12.442-4.048.304-12.195-12.24-4.706-.202-.708a41.113 41.113 0 00-3.186-8.4l-.354-.658 5.917-11.688-8.396-8.855-11.986 5.313-.607-.354c-2.579-1.518-5.361-2.733-8.193-3.644l-.658-.202-4.046-12.448-12.189-.354-4.703 12.245-.708.203a40.947 40.947 0 00-8.396 3.188l-.658.303-11.683-5.92-8.85 8.4 5.31 11.992-.354.607a39.694 39.694 0 00-3.641 8.197l-.203.658-12.441 4.048-.354 12.195 12.188 4.705.203.709a42.117 42.117 0 003.186 8.399l.303.658-5.917 11.689 8.396 8.855 11.329-5.01 1.112 2.53-13.099 5.819-11.127-11.739 6.171-12.144c-1.214-2.429-2.175-5.009-2.934-7.64l-12.694-4.909.455-16.141 12.947-4.2c.86-2.58 1.973-5.11 3.338-7.438l-5.512-12.448 11.733-11.081 12.138 6.173c2.428-1.214 5.007-2.176 7.637-2.935l4.906-12.751 16.134.456 4.198 12.953a40.815 40.815 0 017.435 3.34l12.441-5.516 11.127 11.74-6.17 12.144c1.213 2.428 2.174 5.009 2.933 7.64l12.695 4.908-.456 16.142-12.947 4.2c-.86 2.58-1.972 5.11-3.338 7.438l5.513 12.498-11.481 11.031zm532.11 13.257a6.271 6.271 0 01-6.271-6.274c0-3.441 2.781-6.275 6.271-6.275a6.24 6.24 0 016.272 6.275 6.272 6.272 0 01-6.272 6.274zm0-9.715a3.498 3.498 0 00-3.49 3.491 3.498 3.498 0 003.49 3.492 3.498 3.498 0 003.49-3.492 3.498 3.498 0 00-3.49-3.491zm-47.794 43.263h-15.729v-6.274h2.782v3.491h10.165v-3.491h2.782v6.274zm64.838 0l-15.779-.051v-6.274h2.781v3.542h10.217l.05-3.491h2.782l-.051 6.274zm-2.124-83.035h-2.782v-2.125a1.34 1.34 0 00-1.315-1.316h-2.124a1.382 1.382 0 00-1.365 1.367v2.175h-2.782v-2.175c0-1.114.455-2.126 1.214-2.885.758-.759 1.821-1.214 2.883-1.214h2.124c2.276 0 4.097 1.872 4.097 4.149l.05 2.024zm-65.951 0h-2.782v-2.125a1.34 1.34 0 00-1.315-1.316h-2.124a1.382 1.382 0 00-1.365 1.367v2.175h-2.782v-2.175c0-1.114.455-2.126 1.214-2.885.758-.759 1.821-1.214 2.883-1.214h2.124c2.276 0 4.097 1.872 4.097 4.149l.05 2.024z" fill="#E7742E"/><path d="M935.484 392.242H835.192c-3.187 0-5.817-2.631-5.817-5.819v-60.365c0-3.188 2.63-5.819 5.817-5.819h100.292c3.186 0 5.816 2.631 5.816 5.819v60.365c0 3.188-2.63 5.819-5.816 5.819zm-100.343-69.22a3.044 3.044 0 00-3.034 3.036v60.365a3.044 3.044 0 003.034 3.036h100.292a3.044 3.044 0 003.035-3.036v-60.365a3.044 3.044 0 00-3.035-3.036H835.141z" fill="#E7742E"/><path d="M930.882 383.59h-92.2c-.961 0-1.771-.81-1.771-1.771v-51.157c0-.961.81-1.771 1.771-1.771h92.2c.961 0 1.77.81 1.77 1.771v51.157c0 .961-.809 1.771-1.77 1.771zm-91.189-2.783h90.177v-49.133h-90.177v49.133z" fill="#E7742E"/><path d="M908.021 376c-8.193 0-14.92-6.679-14.92-14.927 0-8.197 6.676-14.927 14.92-14.927s14.92 6.679 14.92 14.927S916.215 376 908.021 376zm0-27.021c-6.676 0-12.138 5.415-12.138 12.144 0 6.73 5.412 12.144 12.138 12.144a12.111 12.111 0 0012.138-12.144c0-6.729-5.462-12.144-12.138-12.144zm-37.831.456h-17.297v2.783h17.297v-2.783zm6.474 6.476H846.42v2.783h30.244v-2.783zm0 7.59H846.42v2.783h30.244v-2.783zm-6.474 6.477h-17.297v2.783h17.297v-2.783zm52.549-30.764h-4.451v-2.783h4.451v2.783zm-8.851 0h-4.451v-2.783h4.451v2.783zm-8.851 0h-4.45v-2.783h4.45v2.783zm-8.85 0h-4.451v-2.783h4.451v2.783zm-8.851 0h-4.451v-2.783h4.451v2.783zm-8.851 0h-4.451v-2.783h4.451v2.783zm-8.851 0h-4.451v-2.783h4.451v2.783zm-8.851 0h-4.45v-2.783h4.45v2.783zm-8.851 0h-4.45v-2.783h4.45v2.783zm26.992-55.245l-28.037 28.051 1.967 1.967 28.037-28.051-1.967-1.967z" fill="#E7742E"/><path d="M881.014 287.349a4.081 4.081 0 01-4.097-4.099 4.081 4.081 0 014.097-4.099 4.08 4.08 0 014.096 4.099c0 2.226-1.871 4.099-4.096 4.099zm0-5.415a1.34 1.34 0 00-1.315 1.316 1.34 1.34 0 001.315 1.316 1.34 1.34 0 001.315-1.316 1.34 1.34 0 00-1.315-1.316zm.505 11.79v-2.783c4.35 0 7.941-3.542 7.941-7.944h2.782c-.051 5.92-4.856 10.727-10.723 10.727zm-9.053-10.727h-2.781c0-5.92 4.804-10.727 10.722-10.727v2.783c-4.35.05-7.941 3.592-7.941 7.944zm-624.664-60.315c-10.267 0-18.612-8.349-18.612-18.621 0-10.272 8.345-18.621 18.612-18.621 10.267 0 18.612 8.349 18.612 18.621 0 10.272-8.345 18.621-18.612 18.621zm0-34.408c-8.699 0-15.83 7.084-15.83 15.837 0 8.704 7.08 15.838 15.83 15.838 8.699 0 15.83-7.084 15.83-15.838 0-8.753-7.08-15.837-15.83-15.837z" fill="#E7742E"/><path d="M248.004 216.458c-6.827 0-12.34-5.566-12.34-12.347 0-6.831 5.563-12.346 12.34-12.346 6.828 0 12.341 5.566 12.341 12.346 0 6.781-5.563 12.347-12.341 12.347zm0-21.961c-5.26 0-9.559 4.301-9.559 9.564 0 5.262 4.299 9.563 9.559 9.563 5.26 0 9.559-4.301 9.559-9.563 0-5.263-4.299-9.564-9.559-9.564zm32.369-.86h-12.239v-10.626h12.239v2.783h-9.458v5.06h9.458v2.783zm-58.061-9.664h-2.782v-2.125c0-.759-.354-1.215-.455-1.265h-4.147c-.102.05-.456.506-.456 1.265v2.125h-2.781v-2.125c0-2.277 1.416-4.048 3.237-4.048h4.147c1.821 0 3.237 1.771 3.237 4.048v2.125z" fill="#E7742E"/><path d="M273.292 229.26h-60.236c-4.4 0-8.041-3.593-8.041-8.046v-30.005c0-4.15 3.388-7.54 7.535-7.54h10.065c.759 0 1.416-.506 1.568-1.265.961-3.593 3.692-6.021 6.828-6.021h1.416l1.264-2.277c2.023-3.694 5.918-5.971 10.166-5.971h6.878c4.552 0 8.699 2.682 10.571 6.78l.657 1.468h10.166c5.108 0 9.255 4.149 9.255 9.26v35.571c-.05 4.453-3.692 8.046-8.092 8.046zm-60.691-42.808a4.75 4.75 0 00-4.754 4.757v30.005a5.257 5.257 0 005.26 5.263h60.236a5.257 5.257 0 005.26-5.263v-35.571a6.456 6.456 0 00-6.474-6.477h-41.017c-1.821 0-3.54 1.619-4.147 3.947-.506 1.973-2.276 3.289-4.299 3.289h-10.065v.05zm23.012-10.069h23.265l-.152-.304c-1.416-3.137-4.551-5.161-8.041-5.161h-6.879c-3.186 0-6.17 1.72-7.687 4.554l-.506.911z" fill="#E7742E"/><path d="M219.732 196.876h-7.03c-3.388 0-6.322-2.227-7.333-5.566l2.68-.81c.607 2.125 2.478 3.593 4.653 3.593h7.03v2.783zm0 11.03h-7.03c-4.198 0-7.637-3.542-7.637-7.893h2.782c0 2.783 2.175 5.11 4.855 5.11h7.03v2.783zm0 11.082h-7.03c-4.198 0-7.637-3.542-7.637-7.894h2.782c0 2.783 2.175 5.111 4.855 5.111h7.03v2.783zm26.654-14.927c0 .809.657 1.417 1.416 1.417.809 0 1.416-.658 1.416-1.417 0-.81-.657-1.417-1.416-1.417-.759 0-1.416.658-1.416 1.417zm.556 7.438c-.86 0-1.719-.202-2.478-.607-2.731-1.366-3.793-4.706-2.428-7.438l2.479 1.265c-.709 1.366-.152 3.036 1.213 3.694a2.494 2.494 0 002.074.151c.708-.253 1.264-.708 1.618-1.366l2.479 1.265c-.658 1.316-1.821 2.277-3.237 2.733a4.936 4.936 0 01-1.72.303zm-21.697-17.406h-2.68v2.783h2.68v-2.783zm-108.738 95.735H8.223l5.007-24.642h22.406l8.85 8.855H79.94l9.964-8.855H111.5l5.007 24.642zm-104.895-2.783h101.506l-3.844-19.076H91.016l-10.014 8.855H43.323l-8.85-8.855H15.505l-3.894 19.076z" fill="#E7742E"/><path d="M82.975 267.311h-2.782v-7.135H44.942v7.135H42.16v-9.918h40.815v9.918zm1.871-16.546H43.475v2.783h41.371v-2.783zm-40.613 98.872H16.518l-8.244-47.766h108.233l-3.288 16.748-2.731-.506 2.63-13.459H11.561l7.283 42.2h24.024l5.159-6.679h26.552v2.783H49.392l-5.159 6.679zm72.779-54.85H7.718v2.783h109.294v-2.783z" fill="#E7742E"/><path d="M100.171 364.21l-3.389-5.414c-1.011-.101-2.074-.253-3.034-.506l-5.008 3.947-7.13-4.504 1.415-6.224a20.65 20.65 0 01-1.77-2.53l-6.322-.759-1.871-8.247 5.412-3.391c.1-1.012.252-2.074.556-3.036l-3.945-5.009 4.501-7.135 6.221 1.417c.81-.658 1.67-1.265 2.529-1.771l.758-6.325 8.244-1.872 3.389 5.414c1.011.101 2.074.253 3.035.506l5.007-3.947 7.131 4.504-1.416 6.224a20.725 20.725 0 011.77 2.53l6.322.759 1.871 8.247-5.412 3.391c-.101 1.012-.252 2.074-.556 3.086l3.945 5.01-4.501 7.134-6.221-1.417a20.691 20.691 0 01-2.529 1.771l-.758 6.325-8.244 1.822zm-7.081-9.007l.708.203c1.264.354 2.529.607 3.844.657l.708.051 3.085 4.908 4.4-1.012.708-5.768.607-.354a14.144 14.144 0 003.186-2.277l.557-.456 5.664 1.265 2.428-3.795-3.591-4.604.202-.709c.354-1.265.607-2.58.658-3.845l.05-.709 4.906-3.137-1.011-4.402-5.766-.709-.354-.607a18.15 18.15 0 00-2.276-3.188l-.455-.556 1.264-5.667-3.793-2.429-4.602 3.592-.708-.202c-1.265-.354-2.58-.607-3.844-.658l-.708-.05-3.136-4.909-4.4 1.012-.708 5.769-.607.354a14.079 14.079 0 00-3.186 2.277l-.557.455-5.664-1.265-2.428 3.795 3.591 4.605-.202.708c-.354 1.265-.607 2.581-.658 3.897l-.05.708-4.906 3.087 1.011 4.402 5.766.708.354.607a18.15 18.15 0 002.276 3.188l.455.557-1.264 5.667 3.793 2.429 4.653-3.593zm5.563-6.527c-1.922 0-3.793-.557-5.411-1.569a10.358 10.358 0 01-4.502-6.375c-1.213-5.465 2.226-10.981 7.688-12.195 2.68-.607 5.361-.152 7.688 1.316 2.326 1.467 3.894 3.744 4.501 6.375.607 2.682.152 5.414-1.315 7.691-1.467 2.328-3.743 3.897-6.373 4.504-.758.152-1.517.253-2.276.253zm.05-17.609a6.31 6.31 0 00-1.668.202c-3.996.911-6.524 4.858-5.614 8.855a7.558 7.558 0 003.287 4.656 7.282 7.282 0 005.614.961 7.55 7.55 0 004.653-3.289 7.29 7.29 0 00.961-5.617 7.557 7.557 0 00-3.287-4.655c-1.214-.708-2.529-1.113-3.945-1.113z" fill="#E7742E"/><path d="M3.318 414H.536v-50.448h122.242v48.981h-2.782v-46.198H3.318V414zm801.629-104.641h-77.988v2.783h77.988v-2.783zm258.853 70.739H951.972v-2.783h109.038V340.58H951.972v-2.783H1063.8v42.301zm0-51.409h-2.79v-25.958H919.249v-2.783H1063.8v28.741z" fill="#E7742E"/><path d="M1041.39 368.106c-5.87 0-10.67-4.453-10.67-9.867 0-5.414 4.75-9.867 10.67-9.867s10.67 4.453 10.67 9.867c0 5.414-4.8 9.867-10.67 9.867zm0-17.002c-4.35 0-7.89 3.188-7.89 7.084 0 3.897 3.54 7.084 7.89 7.084s7.89-3.187 7.89-7.084c-.05-3.896-3.54-7.084-7.89-7.084zm0-21.353c-5.87 0-10.67-4.453-10.67-9.867 0-5.464 4.75-9.867 10.67-9.867s10.67 4.453 10.67 9.867c-.05 5.465-4.8 9.867-10.67 9.867zm0-16.951c-4.35 0-7.89 3.188-7.89 7.084 0 3.896 3.54 7.084 7.89 7.084s7.89-3.188 7.89-7.084c-.05-3.896-3.54-7.084-7.89-7.084zm-758.033 40.227H135.119V250.461h148.289v102.566h-.051zM137.9 350.244h142.726v-97H137.9v97zm61.032 6.218l-6.923 19.395 2.62.936 6.923-19.395-2.62-.936zm21.285-.027l-2.619.936 6.922 19.394 2.62-.936-6.923-19.394z" fill="#E7742E"/><path d="M173.658 381.869h-2.782v-7.64h31.559v2.783h-28.777v4.857zm75.762 0h-2.781v-4.857h-28.323v-2.783h31.104v7.64zm31.408 3.239H142.705v2.783h138.123v-2.783zm-35.1 11.081h-6.929v2.783h6.929v-2.783zm-14.313 0h-58.668v2.783h58.668v-2.783zm17.196-43.06h-78.747v-53.991c0-8.602 6.98-15.584 15.578-15.584h47.642c8.598 0 15.578 6.982 15.578 15.584v53.991h-.051zm-75.965-2.783h73.184v-51.208c0-7.033-5.716-12.751-12.746-12.751h-47.642c-7.03 0-12.745 5.718-12.745 12.751v51.208h-.051z" fill="#E7742E"/><path d="M209.212 305.919a4.988 4.988 0 01-5.007-5.01 4.987 4.987 0 015.007-5.009 4.988 4.988 0 015.008 5.009c.05 2.783-2.226 5.01-5.008 5.01zm0-7.236a2.246 2.246 0 00-2.225 2.226 2.246 2.246 0 002.225 2.227 2.246 2.246 0 002.226-2.227c.05-1.214-.961-2.226-2.226-2.226zm14.415 7.236a4.988 4.988 0 01-5.007-5.01 4.987 4.987 0 015.007-5.009 4.987 4.987 0 015.007 5.009 4.988 4.988 0 01-5.007 5.01zm0-7.236a2.246 2.246 0 00-2.226 2.226 2.246 2.246 0 002.226 2.227 2.246 2.246 0 002.225-2.227 2.246 2.246 0 00-2.225-2.226zm14.363 7.236a4.988 4.988 0 01-5.007-5.01 4.987 4.987 0 015.007-5.009 4.987 4.987 0 015.007 5.009 4.988 4.988 0 01-5.007 5.01zm0-7.236a2.245 2.245 0 00-2.225 2.226 2.245 2.245 0 002.225 2.227 2.246 2.246 0 002.226-2.227 2.213 2.213 0 00-2.226-2.226zm-27.361 26.16h-25.137v-2.783h22.355V308.6h2.782v16.243z" fill="#E7742E"/><path d="M224.992 332.635h-39.5v-2.783h36.719V308.6h2.781v24.035z" fill="#E7742E"/><path d="M239.406 339.719h-53.914v-2.783h51.133V308.6h2.781v31.119z" fill="#E7742E"/><path d="M186.858 344.273h-12.037v-25.654h12.037v25.654zm-9.256-2.783h6.474v-20.088h-6.474v20.088z" fill="#E7742E"/><path d="M185.442 323.376h-9.256v2.783h9.256v-2.783zm0 4.655h-9.256v2.783h9.256v-2.783zm0 4.655h-9.256v2.783h9.256v-2.783zm0 4.655h-9.256v2.783h9.256v-2.783zM615.844 88.592l-1.164-2.53a43.785 43.785 0 003.996-2.176l1.467 2.378a50.828 50.828 0 01-4.299 2.328zm9.71-6.427l-1.871-2.074c6.777-6.123 11.076-14.472 12.037-23.58.556-5.515-.051-10.879-1.871-16.09l2.63-.911c1.972 5.566 2.63 11.385 2.023 17.305a39.95 39.95 0 01-12.948 25.35zM595.512 15.88l-.253-2.784c1.619-.151 3.237-.202 4.856-.151l-.102 2.783c-1.466-.051-2.984 0-4.501.151zm-33.127 31.979l-2.782-.355c.759-5.87 2.782-11.334 5.968-16.343a39.448 39.448 0 0122.962-16.85l.708 2.682c-8.801 2.378-16.387 7.944-21.343 15.635-2.934 4.655-4.805 9.766-5.513 15.23z" fill="#E7742E"/><path d="M598.951 83.785c-5.766 0-11.582-1.62-16.791-4.96-14.414-9.31-18.612-28.588-9.306-43.06 9.306-14.42 28.575-18.62 43.04-9.31s18.612 28.589 9.306 43.06c-5.968 9.21-16.033 14.27-26.249 14.27zm.101-59.506c-9.306 0-18.46 4.605-23.872 13.004-8.446 13.156-4.653 30.714 8.497 39.215 13.15 8.45 30.7 4.655 39.197-8.5 8.446-13.157 4.653-30.715-8.497-39.216-4.805-3.036-10.115-4.503-15.325-4.503z" fill="#E7742E"/><path d="M589.291 71.337c-.404 0-.86-.05-1.214-.101l-.404-.101-2.428-2.43 3.49-3.49c.759-.76.759-1.063.759-1.063-.051-.152-.405-.506-.557-.658l-.86-.86c-.151-.152-.505-.506-.657-.557 0 0-.354 0-1.062.76l-3.49 3.49-2.428-2.428-.101-.405c-.505-2.53.708-6.072 2.782-8.045 2.478-2.379 5.462-2.53 7.435-2.328l8.952-8.956c-.253-1.923-.051-4.959 2.326-7.438 1.973-2.024 5.513-3.239 8.042-2.783l.404.1 2.428 2.43-3.49 3.491c-.758.759-.758 1.063-.758 1.063 0 .151.404.506.556.657l.86.86c.151.152.505.507.657.557 0 0 .354 0 1.062-.759l3.49-3.491 2.428 2.429.101.404c.506 2.53-.708 6.072-2.782 8.046-2.478 2.378-5.462 2.53-7.435 2.327l-8.952 8.957c.253 1.922.102 4.958-2.326 7.438-1.72 1.72-4.501 2.884-6.828 2.884zm-1.82-11.992c.101 0 .252 0 .354.05 1.062.152 1.719.81 2.225 1.316l.86.86c.505.506 1.163 1.164 1.315 2.227.151 1.113-.354 2.226-1.568 3.44l-1.315 1.316c1.568 0 3.641-.86 4.754-2.024 1.871-1.923 1.72-4.402 1.467-5.718l-.152-.708 10.975-10.98.708.151c1.315.253 3.793.405 5.715-1.467 1.163-1.113 2.023-3.188 2.023-4.756l-1.315 1.315c-2.933 2.935-4.855 1.063-5.664.253l-.86-.86c-.455-.455-1.163-1.164-1.315-2.226-.152-1.114.354-2.227 1.568-3.441l1.315-1.316c-1.568 0-3.642.86-4.754 2.024-1.821 1.923-1.72 4.402-1.467 5.718l.152.708-10.975 10.98-.708-.151c-1.315-.253-3.794-.405-5.716 1.467-1.163 1.113-2.023 3.188-2.023 4.757l1.315-1.316c1.062-1.063 2.074-1.62 3.086-1.62zm12.998 95.735h-2.782v-3.289h2.782v3.289zm0-7.742h-2.782v-4.452h2.782v4.452zm0-8.855h-2.782v-4.452h2.782v4.452zm0-8.855h-2.782v-4.453h2.782v4.453zm0-8.855h-2.782v-4.453h2.782v4.453zm0-8.855h-2.782v-4.453h2.782v4.453zm0-8.855h-2.782V98.61h2.782v4.453zm0-8.855h-2.782v-4.453h2.782v4.453zm-189.054 18.419a7.427 7.427 0 01-2.326-.354c-4.248-1.265-6.626-5.769-5.361-10.019 1.264-4.25 5.766-6.629 10.014-5.364 4.248 1.265 6.625 5.769 5.361 10.019a8.04 8.04 0 01-7.688 5.718zm-5.007-9.564a5.227 5.227 0 00.405 3.998 5.284 5.284 0 003.085 2.53c2.782.86 5.715-.709 6.524-3.492.86-2.783-.708-5.717-3.489-6.527-2.782-.81-5.715.708-6.525 3.491z" fill="#E7742E"/><path d="M411.415 126.137c-1.365 0-2.731-.152-4.046-.405l-.86-.152-1.416-5.616a15.715 15.715 0 01-3.793-2.176l-5.563 1.619-.607-.658a22.18 22.18 0 01-4.046-7.033l-.304-.86 4.198-4.048a15.702 15.702 0 010-4.352l-4.198-4.048.304-.86a22.182 22.182 0 014.046-7.034l.556-.657 5.564 1.619a15.689 15.689 0 013.793-2.176l1.416-5.617.86-.151a21.757 21.757 0 018.092 0l.86.151 1.416 5.617a15.708 15.708 0 013.793 2.176l5.563-1.62.607.658a22.182 22.182 0 014.046 7.034l.304.86-4.198 4.048a15.702 15.702 0 010 4.352l4.198 4.048-.304.86a22.18 22.18 0 01-4.046 7.033l-.607.658-5.563-1.619a15.715 15.715 0 01-3.793 2.176l-1.366 5.616-.86.152c-1.315.253-2.68.405-4.046.405zm-2.68-2.986c1.77.253 3.54.253 5.31 0l1.315-5.313.708-.253c1.568-.556 2.984-1.366 4.198-2.428l.556-.456 5.26 1.518c1.113-1.417 2.023-2.935 2.681-4.604l-3.945-3.795.152-.709a13.09 13.09 0 000-4.857l-.152-.709 3.945-3.795c-.658-1.67-1.568-3.188-2.681-4.604l-5.26 1.518-.556-.456a13.979 13.979 0 00-4.198-2.429l-.708-.253-1.315-5.313a18.67 18.67 0 00-5.31 0l-1.315 5.313-.708.253a13.651 13.651 0 00-4.249 2.43l-.556.455-5.26-1.518c-1.113 1.416-2.023 2.934-2.68 4.604l3.944 3.795-.151.709a13.047 13.047 0 000 4.857l.151.709-3.944 3.795c.657 1.669 1.567 3.187 2.68 4.604l5.26-1.518.556.456a14 14 0 004.198 2.428l.708.253 1.366 5.313zm27.412 18.267l-1.568-2.328c4.4-2.934 8.143-6.679 11.127-11.081 4.451-6.578 6.979-14.219 7.232-22.112l2.782.101c-.253 8.45-2.933 16.597-7.688 23.63-3.186 4.655-7.181 8.653-11.885 11.79zm-38.589 5.313c-7.991-2.631-15.072-7.489-20.484-14.067a44.882 44.882 0 01-7.991-14.724l2.63-.861a40.359 40.359 0 007.485 13.814 40.973 40.973 0 0019.169 13.156l-.809 2.682zm47.743-66.539c-1.011-1.366-2.073-2.732-3.237-3.947l2.023-1.872a45.995 45.995 0 013.44 4.2l-2.226 1.619zm-8.547-8.804c-8.193-6.275-18.41-9.26-28.727-8.45-6.221.505-12.088 2.327-17.449 5.414l-1.416-2.43a44.556 44.556 0 0118.612-5.818c11.026-.91 21.899 2.277 30.649 9.007l-1.669 2.277z" fill="#E7742E"/><path d="M411.415 139.495c-14.667 0-28.373-9.361-33.177-24.035a35.134 35.134 0 01-.759-19.126l2.68.657a31.888 31.888 0 00.709 17.558c5.512 16.85 23.669 26.059 40.511 20.544 16.842-5.515 26.047-23.681 20.534-40.53-5.513-16.85-23.67-26.06-40.512-20.544a32.05 32.05 0 00-17.195 13.46l-2.378-1.468c4.299-6.882 10.975-12.093 18.714-14.623 18.308-5.971 38.033 3.997 44.001 22.314 5.968 18.267-3.996 38.051-22.304 44.022-3.541 1.215-7.233 1.771-10.824 1.771zm1.669 47.362h-2.781v-4.453h2.781v4.453zm0-8.855h-2.781v-4.453h2.781v4.453zm0-8.855h-2.781v-4.453h2.781v4.453zm0-8.855h-2.781v-4.453h2.781v4.453zm0-8.855h-2.781v-4.453h2.781v4.453zm390.447 44.376h-8.345v2.783h8.345v-2.783z" fill="#E7742E"/><path d="M821.03 213.219h-.303c-5.513 0-10.52-3.491-12.391-8.652l-1.062-2.884 2.63-.962 1.062 2.884c1.517 4.099 5.411 6.831 9.761 6.831h.303c2.934 0 5.766-1.265 7.688-3.44a10.59 10.59 0 002.68-7.995l-1.77-18.115c-.607-6.173-5.715-10.879-11.936-10.879a11.93 11.93 0 00-8.092 3.137l-1.922 1.721h-16.133l-2.175-1.923a11.961 11.961 0 00-7.89-2.986c-6.221 0-11.329 4.656-11.936 10.879l-1.77 18.115c-.304 2.935.708 5.819 2.68 7.995 1.973 2.176 4.805 3.441 7.688 3.441 4.299 0 8.193-2.682 9.711-6.73l1.163-3.036 2.579 1.012-1.163 3.036c-1.922 5.111-6.878 8.501-12.341 8.501-3.692 0-7.283-1.569-9.761-4.352a13.303 13.303 0 01-3.388-10.17l1.77-18.115c.758-7.641 7.08-13.359 14.717-13.359 3.591 0 7.03 1.316 9.762 3.644l1.365 1.214h14.01l1.112-1.012a14.802 14.802 0 019.964-3.846c7.687 0 14.009 5.769 14.717 13.359l1.771 18.115a13.238 13.238 0 01-3.389 10.17c-2.428 2.834-5.968 4.402-9.711 4.402z" fill="#E7742E"/><path d="M804.947 174.915h-10.418v-3.997c0-1.518 1.264-2.783 2.781-2.783h4.856c1.517 0 2.781 1.265 2.781 2.783v3.997zm-7.637-2.783h4.856v-1.265h-4.856v1.265zm-10.57 9.918h-2.782v8.501h2.782v-8.501z" fill="#E7742E"/><path d="M789.623 184.884h-8.396v2.783h8.396v-2.783z" fill="#E7742E"/><path d="M782.239 196.37c-4.451-1.366-7.486-5.414-7.486-10.12 0-5.819 4.755-10.576 10.571-10.576s10.57 4.757 10.57 10.576c0 1.164-.202 2.327-.556 3.441l-2.63-.911c.303-.81.404-1.67.404-2.53 0-4.301-3.489-7.793-7.788-7.793s-7.789 3.492-7.789 7.793c0 3.441 2.225 6.426 5.513 7.438l-.809 2.682zm33.734.405l-.303-2.783c3.945-.456 6.929-3.745 6.929-7.742 0-4.301-3.49-7.793-7.789-7.793-4.299 0-7.789 3.492-7.789 7.793 0 .506.051 1.062.152 1.568.05.253.101.506.202.759l-2.63.81c-.101-.354-.202-.658-.253-1.012a10.132 10.132 0 01-.202-2.125c0-5.819 4.754-10.576 10.57-10.576 5.817 0 10.571 4.757 10.571 10.576-.101 5.414-4.097 9.968-9.458 10.525z" fill="#E7742E"/><path d="M808.437 202.34c-3.439 0-6.271-2.833-6.271-6.274s2.832-6.274 6.271-6.274 6.271 2.833 6.271 6.274-2.832 6.274-6.271 6.274zm0-9.765a3.497 3.497 0 00-3.49 3.491 3.497 3.497 0 003.49 3.491 3.497 3.497 0 003.49-3.491 3.497 3.497 0 00-3.49-3.491zm-18.106 9.765c-3.439 0-6.272-2.833-6.272-6.274s2.833-6.274 6.272-6.274 6.271 2.833 6.271 6.274-2.832 6.274-6.271 6.274zm0-9.765a3.497 3.497 0 00-3.49 3.491 3.497 3.497 0 003.49 3.491 3.497 3.497 0 003.49-3.491 3.497 3.497 0 00-3.49-3.491zm25.794-10.525h-2.782v2.53h2.782v-2.53zm2.984 2.631h-2.529v2.783h2.529v-2.783zm-2.984 3.34h-2.782v2.53h2.782v-2.53zm-3.085-3.34h-2.529v2.783h2.529v-2.783zm32.621 98.366H770.96c-6.676 0-12.138-5.464-12.138-12.144v-23.529c0-6.679 5.462-12.144 12.138-12.144h74.701c6.676 0 12.138 5.465 12.138 12.144v23.529c0 6.68-5.411 12.144-12.138 12.144zm-74.701-45.034c-5.158 0-9.356 4.2-9.356 9.361v23.529c0 5.162 4.198 9.361 9.356 9.361h74.701c5.159 0 9.357-4.199 9.357-9.361v-23.529c0-5.161-4.198-9.361-9.357-9.361H770.96z" fill="#E7742E"/><path d="M829.426 274.597H785.88V244.49h43.546v30.107zm-40.764-2.783h37.982v-24.591h-37.982v24.591zm-14.313-6.679c-5.665 0-10.267-4.605-10.267-10.272s4.602-10.272 10.267-10.272c5.665 0 10.267 4.605 10.267 10.272s-4.653 10.272-10.267 10.272zm0-17.71c-4.097 0-7.485 3.34-7.485 7.489 0 4.098 3.338 7.489 7.485 7.489 4.097 0 7.485-3.34 7.485-7.489-.05-4.149-3.388-7.489-7.485-7.489z" fill="#E7742E"/><path d="M775.714 249.398h-2.781v10.93h2.781v-10.93z" fill="#E7742E"/><path d="M779.76 253.497h-10.924v2.783h10.924v-2.783zm61.703 11.638c-5.664 0-10.267-4.605-10.267-10.272s4.603-10.272 10.267-10.272c5.665 0 10.267 4.605 10.267 10.272s-4.602 10.272-10.267 10.272zm0-17.71c-4.096 0-7.485 3.34-7.485 7.489 0 4.098 3.338 7.489 7.485 7.489a7.47 7.47 0 007.485-7.489c-.05-4.149-3.388-7.489-7.485-7.489z" fill="#E7742E"/><path d="M842.829 250.663h-2.782v2.632h2.782v-2.632zm3.135 2.834h-2.629v2.783h2.629v-2.783zm-3.135 3.441h-2.782v2.631h2.782v-2.631zm-3.186-3.441h-2.63v2.783h2.63v-2.783zm-60.085 22.214a4.19 4.19 0 01-4.198-4.2c0-2.328 1.872-4.2 4.198-4.2a4.188 4.188 0 014.198 4.2c0 2.327-1.922 4.2-4.198 4.2zm0-5.617c-.759 0-1.416.658-1.416 1.417s.657 1.417 1.416 1.417c.759 0 1.416-.658 1.416-1.417s-.657-1.417-1.416-1.417zm56.747 5.617a4.189 4.189 0 01-4.198-4.2c0-2.328 1.871-4.2 4.198-4.2a4.188 4.188 0 014.197 4.2c0 2.327-1.871 4.2-4.197 4.2zm0-5.617c-.759 0-1.417.658-1.417 1.417s.658 1.417 1.417 1.417c.758 0 1.416-.658 1.416-1.417s-.658-1.417-1.416-1.417zm-9.039-24.5l-16.503 10.716 1.515 2.334 16.502-10.716-1.514-2.334zm-19.745 12.811l-13.938 9.184 1.53 2.324 13.938-9.184-1.53-2.324z" fill="#E7742E"/><path d="M739.654 301.516h-2.782V144.049h158.556v127.259h-2.782V146.832H739.654v154.684z" fill="#E7742E"/><path d="M856.434 292.155H746.583V155.687h138.729v99.176h-2.781V158.47H749.364v130.902h107.07v2.783z" fill="#E7742E"/><path d="M872.214 218.178H747.948v2.783h124.266v-2.783zm-19.27-2.125a4.06 4.06 0 01-4.046-4.048v-40.733c0-.708-.556-1.265-1.264-1.265h-.354c-.709 0-1.265.557-1.265 1.265v40.733a4.06 4.06 0 01-4.046 4.048h-.253a4.06 4.06 0 01-4.046-4.048v-33.953c0-7.235-5.867-13.105-13.099-13.105h-19.775c-2.023 0-3.692 1.67-3.692 3.694h-2.782a6.456 6.456 0 016.474-6.477h19.775c8.75 0 15.881 7.135 15.881 15.888v33.953c0 .708.556 1.265 1.264 1.265h.253c.708 0 1.264-.557 1.264-1.265v-40.733a4.06 4.06 0 014.047-4.048h.354a4.06 4.06 0 014.046 4.048v40.733c0 .708.556 1.265 1.264 1.265s1.264-.557 1.264-1.265v-15.433c0-8.804 7.182-15.99 15.982-15.99v2.783c-7.283 0-13.2 5.921-13.2 13.207v15.433a4.027 4.027 0 01-4.046 4.048z" fill="#E7742E"/><path d="M881.267 185.946h-8.194a4.297 4.297 0 01-4.299-4.301 4.297 4.297 0 014.299-4.301h8.194v8.602zm-8.194-5.819c-.809 0-1.517.658-1.517 1.518 0 .81.657 1.518 1.517 1.518h5.412v-2.985h-5.412v-.051zm189.307 212.115h-4.45v-2.783h4.45v2.783zm-8.85 0h-4.45v-2.783h4.45v2.783zm-8.85 0h-4.45v-2.783h4.45v2.783zm-8.85 0h-4.45v-2.783h4.45v2.783zm-8.85 0h-4.45v-2.783h4.45v2.783zm-8.85 0h-4.46v-2.783h4.46v2.783zm-8.86 0h-4.45v-2.783h4.45v2.783zm-8.85 0h-4.447v-2.783h4.447v2.783zm-8.847 0h-4.451v-2.783h4.451v2.783zm-8.851 0h-4.451v-2.783h4.451v2.783zm-8.851 0h-4.451v-2.783h4.451v2.783zm-8.851 0h-4.45v-2.783h4.45v2.783zm-8.85 0h-4.198v-2.783h4.198v2.783zM187.667 239.481h-2.782v-90.878h156.432v82.478h-2.782v-79.695H187.667v88.095z" fill="#E7742E"/><path d="M331.202 254.914h-2.782v-92.699H197.327v77.165h-2.782v-79.948h136.657v95.482z" fill="#E7742E"/><path d="M310.617 233.257H195.911v2.783h114.706v-2.783zM766.56 365.07h-17.347c-4.906 0-8.851-3.997-8.851-8.855 0-4.908 3.995-8.855 8.851-8.855h17.347v17.71zm-17.347-14.927c-3.338 0-6.069 2.732-6.069 6.072s2.731 6.072 6.069 6.072h14.566v-12.144h-14.566zm-10.166 1.316h-30.245v2.783h30.245v-2.783zm0 6.78h-30.245v2.783h30.245v-2.783z" fill="#E7742E"/><path d="M710.724 366.841h-8.648V345.64h8.648v21.201zm-5.867-2.783h3.085v-15.635h-3.085v15.635z" fill="#E7742E"/><path d="M695.855 366.841h-22.102c-4.147 0-7.536-3.39-7.536-7.539v-6.123c0-4.149 3.389-7.539 7.536-7.539h23.518v1.417a2.267 2.267 0 002.276 2.277h.253a2.267 2.267 0 002.276-2.277h2.781c0 2.783-2.276 5.06-5.057 5.06h-.253a5.113 5.113 0 01-4.906-3.694h-20.888a4.75 4.75 0 00-4.754 4.756v6.123a4.75 4.75 0 004.754 4.756h20.888c.607-2.176 2.579-3.744 4.906-3.744h.253c2.781 0 5.057 2.277 5.057 5.06l-2.781.05c0-1.315-1.012-2.327-2.276-2.327h-.253a2.267 2.267 0 00-2.276 2.277v1.416l-1.416.051z" fill="#E7742E"/><path d="M693.073 361.376h-15.426c-2.832 0-5.158-2.327-5.158-5.161 0-2.834 2.326-5.161 5.158-5.161h15.426v2.783h-15.426a2.374 2.374 0 00-2.377 2.378 2.374 2.374 0 002.377 2.378h15.426v2.783zm6.879 39.367c-4.754-.708-8.345-5.06-8.345-10.069 0-5.111 3.641-9.462 8.446-10.12l.354 2.783c-3.439.455-6.069 3.643-6.069 7.337s2.579 6.831 5.968 7.337l-.354 2.732zm-65.142.709l-.354-2.783c3.439-.456 6.069-3.644 6.069-7.337 0-3.694-2.58-6.831-5.968-7.337l.404-2.733c4.754.708 8.345 5.06 8.345 10.07-.05 5.161-3.692 9.462-8.496 10.12z" fill="#E7742E"/><path d="M633.899 406.309c-6.018 0-11.278-2.783-13.655-7.236l-.152-.303v-3.897h10.52c1.517-1.265 3.034-3.086 3.034-3.896 0-.86-1.517-2.631-3.034-3.896h-10.52v-3.795l.152-.304c2.427-4.402 7.788-7.286 13.605-7.286 8.193 0 14.818 6.882 14.818 15.281 0 4.099-1.517 7.894-4.349 10.829-2.731 2.934-6.474 4.503-10.419 4.503zm-11.025-8.248c1.972 3.39 6.17 5.465 11.025 5.465 3.187 0 6.221-1.316 8.497-3.643a12.735 12.735 0 003.54-8.855c0-6.882-5.411-12.498-12.037-12.498-4.602 0-9.002 2.226-11.025 5.515v.253h8.699l.354.304c.758.607 4.501 3.643 4.501 6.375 0 2.733-3.743 5.819-4.501 6.376l-.354.303h-8.699v.405zm63.574-11.891h-35.505v2.783h35.505v-2.783zm14.869 19.785c-6.069 0-11.278-3.542-13.554-9.26l2.579-1.062c1.871 4.604 6.069 7.488 10.975 7.488 4.603 0 9.003-2.226 11.026-5.515v-.253h-8.699l-.354-.304c-.759-.607-4.502-3.643-4.502-6.375 0-2.733 3.743-5.819 4.502-6.376l.354-.303h8.699v-.405c-1.973-3.39-6.171-5.465-11.026-5.465-4.703 0-9.002 2.935-11.026 7.438l-2.528-1.113c2.478-5.515 7.788-9.108 13.554-9.108 6.019 0 11.279 2.783 13.656 7.236l.151.303v3.897h-10.519c-1.518 1.265-3.035 3.086-3.035 3.896 0 .86 1.517 2.631 3.035 3.896h10.519v3.795l-.151.304c-2.479 4.452-7.84 7.286-13.656 7.286zm-14.363-13.207h-35.505v2.783h35.505v-2.783zm-580.917 14.725H52.73v-2.783h50.526v-31.524H20.008v33.953h-2.782v-36.736h88.811v37.09z" fill="#E7742E"/><path d="M61.632 397.909c-4.653 0-8.396-3.795-8.396-8.399 0-4.655 3.793-8.4 8.396-8.4 4.653 0 8.395 3.795 8.395 8.4.05 4.604-3.742 8.399-8.395 8.399zm0-14.066c-3.085 0-5.614 2.53-5.614 5.616 0 3.087 2.529 5.617 5.614 5.617s5.614-2.53 5.614-5.617c.05-3.086-2.479-5.616-5.614-5.616zm619.859-164.197l-10.519-8.552c-3.136-2.53-5.614-5.97-7.233-9.867-1.77-4.2-2.377-8.905-1.821-13.662l.759-6.375 1.517.354s3.035.658 5.058-.962c1.366-1.062 2.023-3.035 2.023-5.717v-1.417h16.892v2.783h-14.161c-.253 2.935-1.264 5.11-3.034 6.527-1.973 1.569-4.35 1.771-5.867 1.67l-.405 3.441c-.506 4.301.051 8.501 1.619 12.245 1.466 3.491 3.692 6.527 6.423 8.754l8.749 7.135 8.699-7.135c2.732-2.277 4.957-5.263 6.424-8.754 1.567-3.744 2.124-7.944 1.618-12.245l-.405-3.593c-1.567 0-4.046-.253-6.069-1.923-1.972-1.669-2.984-4.199-2.984-7.64h2.782c0 2.53.657 4.352 1.972 5.465 2.074 1.771 5.26 1.214 5.311 1.214l1.467-.253.758 6.376c.557 4.756-.05 9.462-1.82 13.611-1.619 3.896-4.097 7.287-7.233 9.817l-10.52 8.703z" fill="#E7742E"/><path d="M681.441 206.793l-10.267-11.233v-11.537l11.127 12.245 9.761-8.247v8.855h-2.782v-2.834l-7.232 6.123-8.092-8.957v3.239l7.687 8.501 5.816-4.959 1.77 2.125-7.788 6.679z" fill="#E7742E"/><path d="M681.188 227.084c-18.106 0-32.824-14.725-32.824-32.84 0-18.114 14.718-32.839 32.824-32.839 18.106 0 32.824 14.725 32.824 32.839 0 18.115-14.718 32.84-32.824 32.84zm0-62.845c-16.538 0-30.042 13.459-30.042 30.056 0 16.546 13.453 30.056 30.042 30.056 16.589 0 30.042-13.459 30.042-30.056s-13.453-30.056-30.042-30.056zm-5.867-10.171l-.404-2.732a42.996 42.996 0 016.271-.456v2.783a32.39 32.39 0 00-5.867.405z" fill="#E7742E"/><path d="M691.05 236.546l-.607-2.732c18.46-4.301 31.357-20.595 31.357-39.57 0-2.327-.202-4.705-.607-6.982l2.732-.456c.404 2.429.657 4.959.657 7.438 0 9.867-3.389 19.532-9.559 27.173-6.069 7.59-14.566 12.953-23.973 15.129zm-9.862 1.164v-2.783c1.871 0 3.742-.152 5.563-.405l.354 2.733a37.941 37.941 0 01-5.917.455zm-38.994-24.339c-2.934-5.971-4.4-12.397-4.4-19.127 0-17.912 10.722-33.75 27.361-40.378l1.012 2.58c-15.578 6.173-25.642 20.999-25.642 37.798a40.266 40.266 0 004.147 17.862l-2.478 1.265zM474.534 58.738h-2.781V47.2c0-.304-.152-.557-.405-.658-2.276 2.277-5.361 3.593-8.598 3.593-6.676 0-12.088-5.415-12.088-12.094 0-6.679 5.412-12.093 12.088-12.093h1.416v.101c2.731.304 5.26 1.569 7.233 3.491.252-.151.404-.404.404-.657V.598h28.222c1.972 0 3.59 1.62 3.59 3.593v.708l-.505.405c-2.074 1.771-3.237 4.352-3.237 7.084v.86c.455 4.757 4.45 8.501 9.306 8.501 5.159 0 9.306-4.2 9.306-9.31 0-2.733-1.163-5.263-3.237-7.084l-.506-.405v-.71a3.606 3.606 0 013.591-3.59h30.295v35.875h-2.782V3.432h-27.513c-.303 0-.556.152-.657.354 2.275 2.277 3.59 5.364 3.59 8.602 0 6.68-5.411 12.094-12.087 12.094s-12.088-5.415-12.088-12.094v-1.417h.101c.304-2.732 1.568-5.262 3.49-7.236-.152-.202-.405-.354-.657-.354h-25.44v25.452a3.606 3.606 0 01-3.591 3.593h-.708l-.405-.506c-1.77-2.075-4.349-3.239-7.08-3.239h-.86c-4.754.456-8.497 4.453-8.497 9.31 0 5.162 4.198 9.311 9.306 9.311 2.731 0 5.26-1.164 7.081-3.238l.404-.506h.708a3.605 3.605 0 013.591 3.592v11.588zm-172.919 88.347c-.051 0-.051 0 0 0h-1.416v-.101c-2.478-.304-4.805-1.467-6.575-3.238l-.051.05c-.05.051-.202.203-.202.456h-2.782c0-.911.354-1.771 1.012-2.429a3.403 3.403 0 012.428-1.012h.708l.404.455c1.619 1.873 3.945 2.986 6.423 2.986h.759c4.349-.405 7.738-4.048 7.789-8.501 0-2.277-.86-4.402-2.479-6.021-1.618-1.62-3.742-2.53-6.018-2.53a8.454 8.454 0 00-6.423 2.934l-.405.456h-.708c-1.871 0-3.389-1.518-3.389-3.441l.051-24.794h1.366v-1.417h7.94v2.783h-6.575l-.05 23.428c0 .202.101.354.252.506 2.125-2.075 4.957-3.289 7.941-3.289h.05c3.035 0 5.867 1.214 7.991 3.34a11.294 11.294 0 013.288 7.994c-.051 6.325-5.108 11.385-11.329 11.385zm58.263 23.529h-1.82v-1.416h-.961l.05-24.794c0-.203-.101-.355-.253-.506-2.124 2.074-4.956 3.289-7.94 3.289-6.221 0-11.278-5.111-11.278-11.335 0-6.224 5.108-11.284 11.329-11.284h1.416v.102c2.478.303 4.804 1.467 6.575 3.238l.05-.051a.628.628 0 00.203-.455l.05-23.428-23.417-.05c-.91 0-1.77-.355-2.427-1.012a3.407 3.407 0 01-1.012-2.429v-.709l.455-.404c2.125-1.822 3.187-4.504 2.934-7.338-.405-3.946-3.541-7.185-7.485-7.64-2.479-.304-4.856.455-6.676 2.125a8.434 8.434 0 00-2.833 5.769v.607c0 2.48 1.062 4.857 2.934 6.477l.455.404v.709a3.39 3.39 0 01-3.389 3.39h-7.788v-2.783h7.788c.203 0 .354-.101.506-.253a11.237 11.237 0 01-3.186-6.578h-.101l-.051-1.417c0-3.188 1.366-6.274 3.793-8.4 2.377-2.125 5.614-3.137 8.851-2.782 5.26.607 9.458 4.857 9.963 10.12.304 3.39-.859 6.73-3.236 9.108l.05.05c.051.051.202.203.455.203l26.199.05-.051 26.211a3.41 3.41 0 01-1.011 2.429 3.407 3.407 0 01-2.428 1.012h-.708l-.405-.456c-1.618-1.872-3.945-2.985-6.423-2.985h-.809a8.358 8.358 0 00-5.26 2.429c-1.618 1.619-2.529 3.744-2.529 6.021 0 4.706 3.793 8.552 8.497 8.552a8.455 8.455 0 006.423-2.935l.405-.456h.708c1.871 0 3.388 1.518 3.388 3.441v26.16zm-234.116 93.61h-6.12l.051-29.145a.84.84 0 00-.253-.608.69.69 0 00-.202-.151 12.407 12.407 0 01-10.166 3.643c-5.816-.607-10.47-5.212-11.127-11.031a12.417 12.417 0 013.136-9.715 12.57 12.57 0 019.306-4.149h1.416v.101a12.16 12.16 0 017.485 3.694c.253-.152.456-.456.456-.759l.05-27.78h1.416v-1.366l27.766.051c2.024 0 3.642 1.669 3.642 3.643v.708l-.455.405a9.696 9.696 0 00-3.389 7.337v.911a9.553 9.553 0 002.782 5.971c1.821 1.821 4.248 2.833 6.878 2.833a9.603 9.603 0 006.828-2.833c1.821-1.822 2.832-4.251 2.832-6.882 0-2.834-1.214-5.515-3.338-7.337l-.455-.405v-.708a3.627 3.627 0 013.641-3.643l13.959-.102v2.783l-13.908.152c-.354 0-.607.203-.759.456 2.378 2.327 3.692 5.566 3.692 8.905 0 3.34-1.314 6.477-3.692 8.805-2.377 2.327-5.462 3.643-8.8 3.643h-.05a12.237 12.237 0 01-8.801-3.694c-2.377-2.378-3.641-5.515-3.641-8.855v-1.366h.101a12.18 12.18 0 013.692-7.489c-.152-.253-.455-.455-.759-.455l-26.4-.051-.051 26.363a3.627 3.627 0 01-3.641 3.643h-.708l-.405-.456a9.686 9.686 0 00-7.333-3.39h-.86c-2.428.203-4.704 1.366-6.373 3.188-1.871 2.075-2.731 4.756-2.427 7.59.505 4.503 4.096 8.096 8.648 8.551 3.186.304 6.221-.86 8.345-3.289l.405-.455h.708c.961 0 1.871.405 2.579 1.063a3.596 3.596 0 011.062 2.58l-.05 26.363h3.338v2.732h-.051zm606.862-117.695l-18.966-.051a3.403 3.403 0 01-2.428-1.012 3.407 3.407 0 01-1.012-2.429v-.708l.506-.405c1.872-1.619 2.984-3.947 2.984-6.426v-.81a8.366 8.366 0 00-2.427-5.262c-1.619-1.619-3.743-2.53-6.019-2.53-4.704 0-8.497 3.795-8.547 8.501 0 2.479 1.062 4.857 2.933 6.476l.506.405v.709a3.39 3.39 0 01-3.389 3.39l-26.198-.051.05-26.211c0-.202-.101-.354-.252-.506-2.378 2.379-5.766 3.542-9.104 3.239-5.26-.506-9.508-4.757-10.065-10.019a11.364 11.364 0 012.832-8.804 11.304 11.304 0 018.396-3.745h1.366v.101c2.478.304 4.804 1.468 6.575 3.239l.05-.051a.628.628 0 00.202-.455l.051-24.845h1.416v-1.366l24.833.05c.91 0 1.77.355 2.428 1.013a3.41 3.41 0 011.011 2.428v.709l-.506.405c-1.871 1.619-2.984 3.947-2.984 6.426v.81a8.367 8.367 0 002.428 5.262c1.618 1.62 3.743 2.53 6.019 2.53 2.276 0 4.4-.86 6.018-2.48 1.619-1.619 2.529-3.744 2.529-6.02 0-2.48-1.062-4.859-2.933-6.478l-.456-.405v-.708c0-.91.354-1.77 1.012-2.429a3.404 3.404 0 012.428-1.012l24.782.05v1.367h1.416v7.944h-2.782v-6.578l-23.416-.05a.641.641 0 00-.456.202l-.05.05c2.073 2.126 3.287 5.01 3.287 7.995 0 3.037-1.214 5.87-3.338 7.995-2.124 2.126-4.956 3.29-7.991 3.29h-.05c-3.035 0-5.867-1.215-7.991-3.34a11.296 11.296 0 01-3.288-7.995v-1.417h.101c.304-2.48 1.467-4.807 3.237-6.578l-.05-.05a.633.633 0 00-.456-.203l-23.416-.05-.051 23.427a3.41 3.41 0 01-1.011 2.429 3.407 3.407 0 01-2.428 1.012h-.708l-.405-.506c-1.618-1.872-3.945-2.985-6.423-2.985h-.759c-2.124.202-4.147 1.163-5.563 2.783-1.618 1.821-2.377 4.199-2.124 6.679.405 3.947 3.641 7.134 7.586 7.539 2.833.304 5.463-.759 7.334-2.884l.404-.455h.709c.91 0 1.77.354 2.427 1.012a3.405 3.405 0 011.012 2.428l-.051 23.428 23.417.051c.202 0 .354-.101.506-.253-2.074-2.125-3.288-5.01-3.288-7.995 0-3.036 1.214-5.87 3.338-7.995s4.957-3.289 7.991-3.289c6.221 0 11.279 5.111 11.279 11.335v1.366h-.102c-.303 2.479-1.466 4.807-3.236 6.578a.62.62 0 00.505.253l18.966.05-.151 2.885z" fill="#E7742E"/><path d="M739.907 135.346h-2.782l.051-14.977a3.39 3.39 0 013.388-3.391h.708l.405.456c1.821 2.125 4.501 3.188 7.333 2.935 3.945-.405 7.182-3.542 7.637-7.489.253-2.48-.455-4.858-2.124-6.679a8.426 8.426 0 00-5.766-2.834h-.606a8.457 8.457 0 00-6.424 2.935l-.404.455h-.708c-1.872 0-3.389-1.518-3.389-3.441v-7.792h2.782v7.792c0 .203.101.355.202.456l.051.05a11.222 11.222 0 016.575-3.187v-.102l1.416-.05a11.09 11.09 0 018.395 3.795c2.124 2.378 3.136 5.616 2.782 8.855-.607 5.262-4.855 9.462-10.115 9.968-3.389.304-6.727-.86-9.104-3.238a.621.621 0 00-.253.506l-.05 14.977zM376.518 225.92l-.253-45.793h-11.582l19.421-21.404 19.421 21.404h-11.581v15.433h-2.782v-18.216h8.041l-13.099-14.472-13.149 14.472h8.092l.253 48.525-2.782.051z" fill="#E7742E"/><path d="M391.944 250.613h-2.782v-4.453h2.782v4.453zm0-8.855h-2.782v-4.453h2.782v4.453zm0-8.855h-2.782v-4.453h2.782v4.453zm0-8.855h-2.782v-4.453h2.782v4.453zm0-8.855h-2.782v-4.453h2.782v4.453zm0-8.855h-2.782v-4.453h2.782v4.453zm229.564-26.059l-.354-63.554h-8.598l14.465-15.989 14.515 15.989h-8.598v10.323h-2.781v-13.106h5.108l-8.244-9.057-8.193 9.057h5.108l.354 66.337h-2.782z" fill="#E7742E"/><path d="M632.939 146.377h-2.782v-4.453h2.782v4.453zm0-8.855h-2.782v-4.453h2.782v4.453zm25.136 179.984h-2.782v-15.079h6.221l-10.065-11.081-10.065 11.081h6.221l.051 13.46h-2.782l-.05-10.677h-9.762l16.387-18.013 16.387 18.013h-9.761v12.296zm0 5.364h-2.782v4.453h2.782v-4.453zm20.989-10.576h-2.782v-4.453h2.782v4.453zm0-8.855h-2.782v-4.453h2.782v4.453zm0-8.855h-2.782v-4.453h2.782v4.453zm0-8.855h-2.782v-4.453h2.782v4.453zm0-8.855h-2.782v-4.453h2.782v4.453zm0-8.855h-2.782v-4.453h2.782v4.453zm0-8.855h-2.782v-4.453h2.782v4.453zm0-8.855h-2.782v-4.453h2.782v4.453zm36.061 11.79h-12.948v-12.953h12.948v12.953zm-10.166-2.783h7.384v-7.387h-7.384v7.387zm10.166 20.442h-12.948v-12.953h12.948v12.953zm-10.166-2.783h7.384v-7.387h-7.384v7.387zm10.166 20.392h-12.948v-12.953h12.948v12.953zm-10.166-2.783h7.384v-7.387h-7.384v7.387zM435.388 395.127h-67.569v2.783h67.569v-2.783zm8.952-11.436h-4.45v-2.783h4.45v2.783zm-8.85 0h-4.451v-2.783h4.451v2.783zm-8.851 0h-4.451v-2.783h4.451v2.783zm-8.851 0h-4.451v-2.783h4.451v2.783zm-8.851 0h-4.451v-2.783h4.451v2.783zm-8.851 0h-2.63v-2.783h2.63v2.783zm-77.179-155.545H290.64V204.87h32.267v23.276zm-29.485-2.783h26.704v-17.71h-26.704v17.71z" fill="#E7742E"/><path d="M313.197 206.642h-12.543v-21.961h12.543v21.961zm-9.812-2.783h6.98v-16.395h-6.98v16.395zm14.364 19.734h-22.001v-14.118h22.001v14.118zm-19.219-2.783h16.437v-8.552H298.53v8.552zm220.663 105.096h-32.369v2.783h32.369v-2.783z" fill="#E7742E"/><path d="M566.077 113.487l-3.288-1.316c.101-.253 9.509-24.237 1.72-38.304-2.832-5.161-7.789-8.4-14.617-9.665l.658-3.49c7.94 1.466 13.706 5.261 17.095 11.435 8.547 15.584-1.164 40.277-1.568 41.34zm-6.878 22.466l-.051-3.542c.202 0 5.209-.303 5.917-9.057.152-1.721-.455-3.643-1.416-4.655-.506-.506-1.062-.759-1.669-.709l-.152-3.542c1.669-.05 3.187.557 4.4 1.771 1.669 1.721 2.58 4.605 2.377 7.388-.96 12.144-9.356 12.346-9.406 12.346zm-68.481 4.959c-.91 0-9.103-.354-9.963-11.942-.354-4.807 2.782-8.753 7.334-9.209l.354 3.542c-2.63.253-4.35 2.53-4.148 5.414.658 8.805 6.12 8.653 6.322 8.653l.152 3.542h-.051z" fill="#0B1427"/><path d="M525.413 173.347c-12.745 0-29.232-11.841-34.189-29.601-2.326-8.45-3.591-18.722-4.299-25.756l3.54-.354c.709 6.882 1.922 17.002 4.198 25.148 4.754 17.002 21.546 28.387 32.875 26.869l.455 3.491c-.86.152-1.72.203-2.58.203zm-19.37-69.069l-.556-3.492c32.217-5.11 38.286-20.645 40.005-35.167l3.541.405c-1.771 14.927-8.244 32.789-42.99 38.254zm-12.492 14.168l-2.934-.861c-.505-.151-12.188-3.795-12.998-20.391l3.541-.152c.404 8.905 4.45 13.409 7.434 15.534-3.186-15.281-2.478-26.565 2.276-37.343l3.237 1.417c-4.805 10.828-5.159 22.416-1.264 38.81l.708 2.986z" fill="#0B1427"/><path d="M492.337 114.651l-2.832-2.126c1.517-2.024 3.135-3.946 4.703-5.819 6.828-8.197 13.251-15.888 12.341-28.841l3.54-.253c1.062 14.37-6.17 23.022-13.15 31.371a125.09 125.09 0 00-4.602 5.668z" fill="#0B1427"/><path d="M480.401 121.279c-10.52-17.204-13.656-32.637-9.205-45.843 5.159-15.282 18.309-21.86 23.771-23.985 9.205-3.592 20.837-5.465 30.447-4.857 12.492.759 20.786 5.363 24.023 13.307l-3.287 1.316c-5.867-14.42-33.229-13.004-49.868-6.477-10.368 4.048-18.46 12.195-21.697 21.809-4.097 12.194-1.113 26.615 8.85 42.858l-3.034 1.872zm31.98 6.476l-3.57.388.381 3.521 3.57-.388-.381-3.521zm33.262-3.54l-3.369.367.383 3.521 3.369-.367-.383-3.521zm-17.066 37.937l-3.38.245.256 3.533 3.38-.245-.256-3.533zm-.685-4.694c-.708 0-1.467-.05-2.226-.152-2.275-.253-4.299-.86-6.119-1.821l1.618-3.137c1.416.759 3.085 1.214 4.906 1.416 1.821.203 3.54.102 5.108-.303l.911 3.441c-1.366.404-2.731.556-4.198.556z" fill="#0B1427"/><path d="M509.128 130.286c-2.175 0-4.4-.304-6.423-.961l1.062-3.391c4.198 1.316 9.559.962 12.947-.961l1.72 3.087c-2.579 1.467-5.917 2.226-9.306 2.226zm32.318-3.491c-1.871 0-3.692-.253-5.31-.759l1.112-3.39c3.692 1.214 9.003.556 12.897-1.569l1.72 3.087c-3.136 1.72-6.878 2.631-10.419 2.631z" fill="#0B1427"/><path d="M526.122 146.023l-.405-3.542c1.568-.152 3.389-.354 5.159-.506.91-.101 1.821-.203 2.68-.253a41.82 41.82 0 01-.303-1.771c-.86-4.655-2.276-12.498-3.035-17.255l-.05-.253.05-.253c.456-3.289 2.226-6.122 5.058-8.197 3.54-2.581 8.547-3.643 12.998-2.834l-.657 3.492c-3.49-.658-7.536.202-10.318 2.226-1.416 1.012-3.136 2.783-3.591 5.516.809 4.756 2.175 12.346 2.984 16.951.354 1.872.556 3.187.658 3.693l.303 1.873-1.871.202a275.08 275.08 0 01-4.603.455c-1.669.102-3.439.304-5.057.456zm-25.693-25.705l-1.568-3.188c6.929-3.441 15.527-3.694 20.989-.557l-1.77 3.087c-4.4-2.53-11.835-2.277-17.651.658z" fill="#0B1427"/><path d="M527.639 173.195l-.152-3.542c10.166-.506 26.452-12.954 28.778-31.321 1.113-8.603.961-16.193.658-23.074v-.203c1.213-14.471-1.669-17.052-5.614-20.644-3.035-2.733-6.778-6.123-9.306-14.978l3.388-.961c2.226 7.843 5.311 10.626 8.244 13.308 4.35 3.946 8.143 7.337 6.777 23.478.304 7.033.405 14.724-.708 23.58-2.579 20.391-20.433 33.8-32.065 34.357zm-1.973 8.855c-2.427 0-5.108-.203-7.94-.759l.658-3.492c14.414 2.733 23.012-3.491 23.062-3.542l2.124 2.834c-.354.253-6.777 4.959-17.904 4.959zm-87.091.506l-2.984-1.923c5.715-8.956 12.745-15.129 13.048-15.382l.152-.102c9.458-6.679 38.286-12.65 39.5-12.903l.708 3.492c-.304.05-29.182 6.072-38.084 12.296-.708.607-7.182 6.476-12.34 14.522zm146.721 148.612l-2.226-2.732 49.767-40.48 3.642-10.171c2.174-7.135 3.034-10.677 3.641-14.978-3.591-28.285-18.157-52.472-30.952-73.774-3.035-5.01-5.867-9.766-8.447-14.371-2.984-5.313-8.496-9.361-12.593-11.79-3.996-2.378-19.017-3.693-24.428-3.997l.202-3.542c2.074.101 20.635 1.214 26.097 4.503 4.501 2.682 10.52 7.135 13.858 13.106 2.579 4.554 5.412 9.26 8.396 14.269 13.048 21.707 27.816 46.248 31.458 75.394l.05.202-.05.203c-.607 4.604-1.467 8.298-3.793 15.787v.051l-3.996 11.182-50.626 41.138zm-39.095-12.397c-1.973-.506-8.497-2.176-9.762-2.732-1.011-.456-1.719-1.215-2.073-2.227-.607-1.67 0-3.592.657-4.857l.506-1.063 15.78 1.113 10.368 3.34-1.113 3.39-9.963-3.238-12.847-.911c-.151.455-.151.86-.05 1.012 0 .05.05.101.202.202.658.304 5.159 1.518 9.104 2.53l-.809 3.441zm4.804 27.071l-.152-3.542 12.29-.405 7.435-4.149 1.72 3.087-8.143 4.554-13.15.455zm-22.86-2.631l-2.074-2.884 6.221-4.453 12.948-1.063.303 3.542-12.037 1.012-5.361 3.846zm-7.384-2.986l-1.973-2.934 7.637-5.111 12.695-2.682.758 3.492-12.087 2.53-7.03 4.705z" fill="#0B1427"/><path d="M530.067 348.979c-2.377 0-4.856-.506-6.272-1.72a3.633 3.633 0 01-.607-.658c-2.377-.253-5.765-1.619-6.676-4.048-.253-.708-.455-1.822.203-3.087-1.012-.506-1.669-1.163-1.973-2.074-.506-1.569.152-3.239 2.074-5.06l.202-.203c7.688-5.161 9.458-6.375 9.812-6.628l.202-.203 13.352-3.592.91 3.441-12.593 3.39c-.809.556-3.034 2.074-9.609 6.477-.658.607-.911 1.012-1.012 1.214.253.152.911.405 2.074.506l4.956.455-4.147 2.783c-1.062.709-1.315 1.215-1.264 1.316.354.911 3.186 1.973 4.349 1.771l2.074-.304-.051 1.873c.607.455 2.984 1.062 5.968.657l6.12-3.39 7.536.152-.102 3.542-6.574-.152-5.817 3.188-.303.051c-.759.202-1.77.303-2.832.303z" fill="#0B1427"/><path d="M517.777 331.117l-2.377-2.631c.859-.759 2.023-1.923 3.237-3.188 4.096-4.149 6.726-6.729 8.699-7.185 5.614-1.265 18.561-2.783 19.117-2.884l.253-.051 7.637 1.518-.708 3.492-7.081-1.417c-1.921.253-13.453 1.67-18.46 2.783-1.163.304-4.906 4.149-6.929 6.173-1.264 1.366-2.478 2.581-3.388 3.39zm62.208 4.453l-22.456-24.541 28.424-29.955 18.865-28.842 2.984 1.973-19.067 29.045-.102.152-26.248 27.627 20.23 22.163-2.63 2.378zm8.955-105.165l-3.295 1.295 10.294 26.233 3.295-1.294-10.294-26.234z" fill="#0B1427"/><path d="M589.139 282.289l-3.54-.203 1.619-30.208-4.35-55.205 3.49-.253 4.4 55.407-1.619 30.462zm-157.645 62.744l-39.702-67.956 2.276-15.231.101-.202c1.011-2.328 24.732-56.672 37.274-74.382l2.883 2.074c-11.936 16.85-35.15 69.727-36.819 73.522l-2.023 13.51 37.021 63.301 26.3-21.404-13.049-23.529-.05-.202-8.143-27.324-22.304 5.262-.809-3.441 25.541-6.021 9.002 30.36 14.313 25.806-31.812 25.857zm40.157 14.674c-1.466 0-2.984-.557-4.046-.911-.202-.051-.354-.152-.505-.152l-.304-.051-4.906-3.187-19.927-10.222-4.299-3.39 2.226-2.783 4.046 3.188 19.825 10.221 4.451 2.884c.202.051.405.152.658.203 2.073.759 2.832.759 3.135.658.708-.911.911-2.379.961-2.885l3.541.102c0 .303-.152 3.086-1.821 5.06-.86.961-1.922 1.265-3.035 1.265z" fill="#0B1427"/><path d="M503.464 359.352h-.253c-1.265-.05-3.035-.91-7.384-6.78-1.872-2.479-3.44-4.959-3.996-5.768l-13.757-9.766 2.074-2.884 14.313 10.17.202.304c3.136 4.959 7.435 10.575 8.851 11.182.658 0 1.163-.354 1.467-.657l-7.435-12.853-16.235-14.927c-.809-.759-1.82-1.164-2.933-1.214l-21.04-1.215.203-3.542 21.039 1.215a8.054 8.054 0 015.108 2.176l16.64 15.331 8.699 15.079-.405.86c-.556 1.215-2.326 3.289-5.158 3.289z" fill="#0B1427"/><path d="M493.197 357.227c-2.731 0-6.727-3.34-8.446-4.908l-11.532-8.552 2.124-2.833 11.785 8.703c2.276 2.075 5.108 3.997 6.018 4.048.455-.354 1.113-2.226 1.315-3.846l3.54.355c-.151 1.518-.96 6.578-4.349 6.982-.202.051-.304.051-.455.051z" fill="#0B1427"/><path d="M482.019 357.986h-.404c-2.681-.303-11.026-6.325-14.465-8.855l2.124-2.833c5.058 3.744 11.38 7.944 12.745 8.197.456-.152 1.568-1.974 2.125-3.998l3.388.962c-.253 1.113-1.972 6.527-5.513 6.527zm10.672-20.189l-24.378-33.953a2.302 2.302 0 00-2.984-.658c-.556.304-.961.86-1.112 1.518-.152.658 0 1.265.404 1.822l12.391 17.153-2.883 2.075-12.391-17.154c-.961-1.315-1.315-3.036-.961-4.655.354-1.619 1.366-3.036 2.782-3.845 2.58-1.468 5.867-.759 7.637 1.669l24.378 33.953-2.883 2.075zm13.959 32.687l-12.442-14.775 2.731-2.277 10.368 12.296 1.973-1.316-3.945-6.223 2.984-1.923 5.766 9.158-7.435 5.06z" fill="#0B1427"/><path d="M510.741 365.582l-2.944 1.969 7.307 10.937 2.944-1.968-7.307-10.938zm-42.624-155.409l-28.2 46.86 3.033 1.827 28.2-46.86-3.033-1.827z" fill="#0B1427"/><path d="M460.626 299.138l-2.58-26.261-2.528-41.138 3.54-.202 2.529 41.087 2.579 26.16-3.54.354zm114.807 109.094H468.667c-7.232 0-13.149-5.92-13.149-13.156v-20.999c0-7.236 5.917-13.156 13.149-13.156h21.799v3.542h-21.799c-5.31 0-9.609 4.301-9.609 9.614v20.999c0 5.313 4.299 9.614 9.609 9.614h106.766a9.608 9.608 0 009.61-9.614v-20.999a9.608 9.608 0 00-9.61-9.614H519.8v-3.542h55.633c7.233 0 13.15 5.92 13.15 13.156v20.999c0 7.236-5.917 13.156-13.15 13.156z" fill="#0B1427"/><path d="M561.171 390.775h-86.536v3.542h86.536v-3.542zm-79.607-8.956a5.419 5.419 0 01-5.411-5.414 5.419 5.419 0 015.411-5.415 5.42 5.42 0 015.412 5.415 5.42 5.42 0 01-5.412 5.414zm0-7.236c-1.011 0-1.871.81-1.871 1.872 0 1.012.809 1.872 1.871 1.872a1.867 1.867 0 001.872-1.872c0-1.062-.81-1.872-1.872-1.872zm12.543 7.236a5.42 5.42 0 01-5.412-5.414 5.42 5.42 0 015.412-5.415 5.42 5.42 0 015.412 5.415 5.42 5.42 0 01-5.412 5.414zm0-7.236c-1.011 0-1.871.81-1.871 1.872 0 1.012.809 1.872 1.871 1.872a1.866 1.866 0 001.871-1.872 1.867 1.867 0 00-1.871-1.872zm62.714 9.361a5.419 5.419 0 01-5.411-5.414 5.419 5.419 0 015.411-5.415 5.42 5.42 0 015.412 5.415 5.42 5.42 0 01-5.412 5.414zm0-7.236c-1.011 0-1.871.81-1.871 1.872 0 1.063.809 1.872 1.871 1.872 1.062 0 1.872-.809 1.872-1.872 0-1.062-.86-1.872-1.872-1.872zm-12.542 7.236a5.42 5.42 0 01-5.412-5.414 5.42 5.42 0 015.412-5.415 5.419 5.419 0 015.411 5.415 5.419 5.419 0 01-5.411 5.414zm0-7.236c-1.012 0-1.872.81-1.872 1.872 0 1.063.809 1.872 1.872 1.872 1.062 0 1.871-.809 1.871-1.872 0-1.062-.86-1.872-1.871-1.872z" fill="#0B1427"/><path d="M483.334 380.908h-3.54v11.638h3.54v-11.638zm12.543 0h-3.54v11.638h3.54v-11.638zm12.543 0h-3.54v11.638h3.54v-11.638zm12.543 3.643h-3.54v7.995h3.54v-7.995zm12.543-3.643h-3.541v11.638h3.541v-11.638zm12.543 0h-3.541v11.638h3.541v-11.638zm12.543 0h-3.541v11.638h3.541v-11.638zm-95.64-78.278l1.467-.962-1.467.962zm0 0c-1.719-2.632-5.209-6.477-7.182-6.224-1.77.202-3.388.961-4.754 2.226l-2.377-2.631c1.922-1.72 4.249-2.783 6.727-3.086 4.855-.608 9.71 6.375 10.621 7.792l-3.035 1.923zm-2.336 2.618l-1.333 13.291 3.523.354 1.333-13.291-3.523-.354zm122.404-39.759l-3.541-.303c0-.102.658-8.4 0-16.547-.657-8.298-5.158-53.737-5.209-54.192l3.54-.354c.051.455 4.552 45.894 5.21 54.293.657 8.451 0 16.749 0 17.103zm-.253 3.593h-3.541v3.947h3.541v-3.947z" fill="#0B1427"/></svg>