<svg width="144" height="194" fill="none" xmlns="http://www.w3.org/2000/svg"><g clip-path="url(#clip0_796_10506)"><path d="M138.102 98.592h-5.821l.353 1.776-.531.355-2.999.711-1.233-.355-1.766-1.245-.35-1.063 1.586-1.245 4.057 1.066-1.939-7.462-3.533.18-4.054 1.596h-1.588v-9.238l-.177-4.972-.173-5.51 1.056.889 3.176-1.42 1.412.355 2.115-2.844 1.061 1.068 3.527-.89-.528-4.265-3.177-1.42h-1.41l1.232-3.197-5.82 2.132-2.821 2.665h-.706l-.53-2.132-2.825-3.199-3.703-3.552L98.588 45.65l-4.94-4.441-2.294-2.307-2.117-1.6-4.23-1.245-6.177-.176-5.465-1.245-7.233-2.841-3.88-1.779-4.41.18.35-5.687 1.41-.176.707-3.91 3.529-.355-1.236-5.507-2.821-1.776-3.704 1.597-2.644-.887-4.766 1.598.883 2.665-4.41 1.068 3.527 13.324-1.588.71-3.349 2.132-2.823 2.31-2.117 1.776-2.647 1.065-3.528.355-4.057 1.424-2.645 1.242-1.588-1.066-2.116-7.462-1.412-.886v-1.07l2.117-1.956-.529-1.776 1.763.18 1.236-4.09-.881-2.841.176-1.241 2.998-1.6.176-3.02-1.233-1.245v-.177l4.938-1.6v-.885l3.351-1.066.353-1.42h2.117v-4.8l-7.232-2.487-1.764-2.841h-5.116l-.176 2.13-6.174 2.311.175 1.776-4.233 3.91 1.06 3.196h-.882l-4.059-.178-3.35 2.665 2.47 4.441-2.646.535-1.589 1.596 1.941 3.376 1.058-.176 1.236 2.662 2.116.89 1.763-1.242 1.06.71-1.06 2.131.53 2.666v.176l-2.117.534 2.293 6.396.707-.179v4.086l2.292 2.49-3.528.53-5.292 3.556-1.94 6.927 1.235 2.487 1.587 2.665-.705 2.131.881.534v2.131l3 1.242 3.175-.708 1.234-3.02 1.235-.179-.882 3.02-2.823 7.641-3.528-1.954-1.94 2.13.707 1.776-.178 1.776-3.351 3.91-3.175.71.175 5.331 5.47-1.776 2.47.531 2.116-1.775.176 7.816.53 3.376 1.94 6.751 1.941 4.263 4.408 6.751.884 1.421v2.131l-1.765 3.02.352 2.134.706.711-.53.356-1.586-1.422-2.647-.179v-1.776l-4.762-.355-1.41 1.776-1.589-.534-1.587 4.089.529.531-.706.711-.88.356-1.942 3.198.176 3.553 3.528 4.976 3-1.78 4.938 5.154 2.47-1.955v-1.068l.882 1.068 2.823-1.419 2.116 1.24 2.117-5.152.529-7.284.882.178 4.233 6.928c3.705 5.33 7.585 10.661 11.466 15.992l2.471 1.952 3 1.066 1.938.889-1.058 1.599v3.732l1.763 1.244 1.589 1.066-.53 2.131-1.764-.179-.706-.71-4.41.355-1.94 2.842-3.88 1.424-3.353 2.664v7.993l4.235-1.42v-.18l2.467 1.069.883-.534.883.355 1.234.179.705 1.597 1.588.176 1.236 1.068-1.941 1.066.178 3.731 3.174 1.597 3.701-1.597 2.12 1.244 7.583 5.507 1.944-4.975.705-4.442-1.411-.886.172-.89-3.526-3.909 2.47-12.435 1.412-1.066 2.644-1.068-1.056-2.486 3.704.179 5.293.177 3.877.178 2.65-.178 1.937-1.245 5.115-2.842 5.82-4.262 4.941-3.91 4.94-4.441 3-3.021 5.115-5.507 3.882-3.907 1.41-2.841.706-3.911-.706-4.085 1.056.886 2.823.179 1.764-6.22 2.472-3.551 1.938-1.776 7.937-1.245.883-2.662 1.589-.18 3.881-3.197-5.292-5.685z" fill="#E7742E"/><path fill-rule="evenodd" clip-rule="evenodd" d="M11.801 85.268l-.529-.355.53-.71v1.065zm14.112-40.326l-2.999-1.78-2.117-7.46-1.587-1.067v-2.841l1.94-1.6-.53.531-4.408-5.327v-.18l-5.47-6.748-2.117-3.2-.88.71 2.116 3.732 1.587.89-.529 1.42-1.588-.71-2.999.71-.528.532.882 1.423 1.234-.18 1.41 3.022.708.178 2.116-1.244 2.999 2.13-1.41 2.842.352 2.49-.353 1.6-1.236.352 1.236 3.2 1.587-.356.706 1.245-1.059 1.065v3.376l1.942 1.952 4.055.18 1.412 1.775-3.351 5.862-2.469.355-.707-.355.53-5.152-3.705.535-4.585 2.84-1.412 5.863 2.469-.887.53 1.245-2.117 1.421 1.94 3.373-.53 1.423.707.355-.177 2.132 1.412.71.176-2.31 1.587.179.176-1.245c0-.175 0-.355.178-.355l.881-.89.177-.176 3.88-1.065 1.411-.355h.353l1.588.886 7.408 2.49h.178l2.997 1.42.884-7.993-1.06-4.62-.882-4.976-3.527-2.841s-.177-.18 0-.355c.176-.176.352-.176.352 0l3.528 2.84.176.18 1.06 5.152.88 4.62v.176l-.706 7.993 10.938 4.8.178.176-3.178-6.217-2.997-6.928-1.765-4.444v.18L33.5 47.782l-3-3.376v-.179l-.529-1.065-.881.179-3.176 1.6zm-3.351 53.83h5.996a.38.38 0 01.355.354v.886h1.41l-.353-1.064-4.233-3.555-3.175 3.378zm8.29 1.062l7.584-3.373v-.356l-.175-.533c-.176-.18 0-.356.175-.356l10.584-4.972h.353l1.236.531 3.352-1.42h1.41l.527-1.6.179-.177-1.411-3.02h-1.588l-4.938-1.776h-2.82l-1.061.531v.177l-5.822.178-.706 3.197c0 .18-.174.18-.174.358l-1.765.355-.353 2.487v.179l-1.94 2.486h-.177l-2.998 1.065h-.176l-2.47-.534-1.587 1.6 4.233 3.552.176.18.353 1.24zm50.273-58.27l-1.939 6.04 1.589.534.172-.534v-.176l2.293-5.151-1.055-.714h-1.06zM62.075 37.3l-.178 3.375v6.752l4.06 2.307.706-1.242s.175 0 .175-.179l8.822-1.42h.172l2.825.71 1.94-6.04-5.645-.356-4.94-.532h-.175l-3.53-3.197-4.233-.178zm6.879 29.313h-3.53c-.173 0-.35-.18-.35-.18l-.356-3.375-2.116-1.952v-.179l-1.232-2.131-1.061 2.665v2.31l4.587 4.973c.178 0 .178 0 .178.176l1.41 1.424 1.589.355.88-1.066v-3.02zM91.005 79.76l.35 1.6 1.944.532 2.465-1.066.356-1.78-5.115.714zm-3.176-7.106l-.35-1.776-3.355-2.666-.883 2.307.355 2.845.528 1.066 3.705-1.776zm7.586 53.295l-.883-9.593-1.41-7.283v2.131l.177 3.197v.179l-1.062 3.02c.179.176.354.176.179.355l-.179.18-.177 3.727v.18l-.705 1.065v2.311l-.175.176-1.586 1.955 1.76-.535h.18l1.232 1.07 2.649-2.135zm-74.618-96.82l-.353-1.069.706-.886 1.764.179.706-2.313-.882-2.842.705-2.307 2.647-1.6.176-1.42-1.234-1.245.174-1.955 4.764-1.421v-1.065l3.529-1.066.527-1.776h1.765V6.388l-6.702-2.31L27.5 1.412h-2.822l-.176 1.6-5.822 2.31v1.422l-3.881 3.73.53 1.776 7.408-.886.882 2.307v1.955l-3 1.955-2.645-1.6-1.41 1.245-1.06-2.665-2.468.178-3.529-.179H9.33l2.294 3.197 5.467 6.93 3.705 4.442zm-7.055 35.885l.53-1.241-.177.175-.353.355v.711zm.705-1.241l4.234-.89-1.41 5.686-2.824 7.462-.529 2.13-4.233-2.486-.53.532.53 1.244-.177 2.666-4.234 4.617-2.292.534v1.955l4.056-1.245 2.117.356.706-.532-1.94-1.423 1.587-1.956 1.234.714 2.295-3.555.881.71-.705 5.863v.179c.177-.18.177 0 .177 0l3.35.71 8.997 7.462 1.588-1.776h.352l2.646.531 2.645-1.065 1.941-2.31.353-2.487c0-.176.176-.176.176-.355l1.764-.355.706-3.2-5.998-1.596c-.176 0-.176 0-.176-.356 0-.176.176-.176.354-.176l5.997 1.597 1.058-4.441v-.176l5.468-5.865-1.41-.534h-.176l-5.117-2.308.177 1.421a.38.38 0 01-.355.355l-2.115.18h-.177l-.881-.535-1.059 1.245-.177.176-6.173.71h-.176l-3.529-.886-1.058 2.131s-.176.176-.352.176h-2.118l-2.997-1.776c-.178 0-.353-.176-.178-.355.178-.355.352-.176.352-.176l3 1.596h1.763l1.06-2.13c.176-.177.352-.177.352-.177l3.881 1.066 5.998-.89 1.234-1.42h.353l.882.71 1.765-.176-.178-1.6-8.819-3.73-7.41-2.666-1.587-.71-1.058.354-3.704 1.067-.177.178zm-1.234 23.092l.177 7.107.528 3.199 1.94 6.575 1.06 2.663 5.291-1.776-.529-5.331h-2.999l-3 .532s-.175 0-.352-.176c0-.356.177-.356.353-.356l2.823-.53h3.176l3.704-3.734-8.82-7.46-3.176-.713h-.176zm9.525 17.589l1.411-.355 7.056-1.6-.176-.532-.53-1.42h-1.764c-.177 0-.352-.179-.352-.179v-.887l-6.174-.18.529 5.153zm8.996-2.131l8.29-2.842-.352-.71-.882-1.779-7.761 3.376.529 1.424v.175l.176.356zm8.82-3.021l8.997-2.841 5.293-2.841 4.232-2.135h1.41l.178-1.775.175-.18-.53-.355-3.705-.886h-.174l-.706 1.42c0 .177-.175.177-.175.177l-1.41.179-3.53 1.244h-.175l-1.235-.534-10.409 4.796.176.535 1.236 2.486.351.71zm20.46-10.303l.705-1.776 1.061-1.779-5.82-5.151-1.941 3.91 1.763 3.551 3.704.89.528.355zm-4.41-9.062l-7.584-5.683-3.879-1.6-5.47 6.042-1.057 4.44 5.466-.354 1.061-.534h3.177l4.937 1.6h1.233l2.116-3.91zM17.27 107.298l.353.532 4.41 6.572 1.058 1.955-.177 2.844-1.587 3.021.177 1.063 2.292 1.779-3.88 1.951-1.94-1.776-1.941-.175-.353 1.599h-1.235v-3.555h-2.47l-.881 1.065 1.587.891-1.235 1.599-1.41-.535v-1.42l-.883-.179-.706 1.776.882 1.068-1.94 2.132-.705.179-1.412 2.127.178 2.666 1.586 2.31 2.117-.889 2.999-2.841 2.646-3.197s.176-.176.176 0h2.469l2.294-1.775v-.18l3.528-1.6h.176l4.763-.355h.352l.53-1.242.176-.179 1.412-1.6.176-.176 3-1.421.705-1.955.176-.176 2.469-2.313-3.175-3.907v-.176l-1.233-2.845-1.413-6.393-5.115 1.241-.881 5.507 3.173 10.128.53.179c.176.176.176.355.176.531l-1.587 2.31c-.176 0-.176.179-.529 0-.176-.178 0-.355 0-.355l1.41-2.131-.352-.179s-.175 0-.175-.176l-3-9.947-.706-.36-2.292 2.133s-.178.178-.353-.178c-.176-.176 0-.176 0-.355l2.293-2.131h.352l.529.176.707-5.152-1.236.36-7.055 2.13zm-9.879 30.024l.53.531 2.646-1.777 4.939 5.152.706-.71.175-2.842h1.764l1.059 1.777 2.294-1.245 1.41.71 1.235-3.196.53-8.707 2.646.358h.352l.53-.71-4.764.175-3.352 1.601-2.292 1.952c-.176 0-.176.179-.354.179l-2.292-.179-2.47 3.199h-.177l-2.998 2.663v.178l-2.117.891zm30.165-20.787l4.586-4.087 3.177-2.842-1.41-1.421v-.176l-.709-2.135-1.236-2.841-1.41-2.486-8.644 2.842 1.41 6.395 1.06 2.842 3.176 3.909zm8.29-7.284l1.411-1.242.706-.535-1.411-1.242-2.294 1.421.177.177 1.412 1.421zm2.472-2.132l1.938-1.421c.178-.179.706-.179.706 0l1.763 2.487 1.94.179h.179l1.41-1.777 1.233-1.599-3.526-1.955-.883-1.954-2.47.713-3.704 3.906 1.414 1.421zm9.525-2.665l2.643-3.731h.178l1.763-1.421.175-.53-1.232-.893-2.116 1.602-1.59 1.421-1.766 1.242-.704.889 2.65 1.421zm3.17-6.928c-.174 0-.174-.178-.174-.178l-.53-3.728v-1.07h-.88l-4.235 2.135-5.116 2.841h-.177l-8.819 2.842 1.415 2.31v.176l1.234 2.844.35 1.421 2.293-1.6 3.882-4.085v-.177l3-.71c0-.179.177 0 .349.176l.705 1.955.534.176.705-1.062v-.179l1.76-1.245 1.589-1.242 2.116-1.6zm-32.455 30.559l3.883 6.571 1.234-.71 3.174-2.135.707-.531.705-5.861.175-.18 1.236-1.597.176-.179.882-.889-1.41-.887-.177-.178-1.413-3.553-2.115 1.955-.882 1.952-.353.359-2.999 1.42-1.234 1.597-.353.711-1.236 2.135zm12.7-5.863l1.411-1.245 5.119-4.62 2.113-2.132-3.702-3.91-3.352 2.845-4.762 4.262 1.587 3.731 1.587 1.069zm8.998-8.528l.706-.713 1.232-1.42-2.643-2.487-.883-.889-.705.71-1.411 1.065 3.704 3.734zm2.294-2.664l1.41-1.601-1.588-.178-.353-.177-1.585-2.133-1.235.889.702.71 2.649 2.49zm-19.935 23.982l4.765 6.75 2.468 3.377 1.234-.89 2.998-3.552 2.119-2.844 1.941-4.796 2.116-4.087.178-.355-4.765-1.065s0-.177-.178-.177l-.703-.89-.708.89v.177l-6.524 4.975v.176l-3.352 2.311-1.058.533-.53-.533zm18.17-6.927l2.648-3.912 2.644-4.085-2.116-1.952-1.06-.89-2.823 3.197-4.937 5.507.883 1.065 4.76 1.07zm5.645-8.529l1.588-2.844.174-.177-2.115-1.064-.178-.18-.175-.176-.353-.535-2.116 2.132 1.055 1.065 2.12 1.779zm1.94-3.554l.884-1.777v-1.777l-2.65 2.488 1.767 1.066zm.884-4.441v-.531l-3.355 3.017-.175.178.353.356 3.177-3.02zm-18.7 34.463l.705 1.07 2.65 3.551 2.115 1.776 2.996 1.065 3.53 1.6-1.766 2.842v2.489l1.06.71 2.466 1.598-1.055 4.619-3.704-.533-.53-.532-2.997.355-1.766 2.666-4.233 1.42-2.47 2.131v4.797l1.411-.356.53-1.065 3.001 1.421.703-.531 1.588.531 2.116.355.53 1.424 1.234.176 2.116 1.954.178 1.777-2.116 1.065.174 1.6 1.589.887 3.88-1.597 2.82 1.776.356.175 4.232-22.205v-.177l1.766-3.375-.53-1.955v-.355l.53-1.597.35-3.555.53-2.486h-2.469c-.177 0-.355 0-.355-.18l.883-6.571 2.116-7.287v-.175l.705-1.777.179-1.244-2.822-.176h-.178l-5.642-2.845-.883 1.777c0 .178-.178.355-.353.178-.353-.178-.175-.355-.175-.355l.88-1.776-2.29-.534h-.178l-2.472-1.422-.35.536-2.119 3.728-1.763 4.796v.179l-2.293 3.02-.884.887 1.41 1.068 2.297 2.842 7.057 2.841s.175 0 .175.355c-.175.18-.353.18-.53.18l-6.88-2.845-.174-.176-2.294-2.844-1.41-.886-1.945 2.13-1.233 1.065zM64.717 151l.356-1.065 1.058-4.087-3-.709-.705 5.861h2.291zm1.589-5.685v-.176l1.588-5.331.528-5.331h-2.291l-.175 1.245-.706 1.954-2.118 6.931 3.174.708zm2.116-11.369l-.172-4.262h-3.355l-2.822 1.062h-.177l-3.526-1.954-1.061 1.954 5.47 2.844 5.643.356zm-.172-4.797v-.534h-3.355l-4.762-2.841-1.41 2.487h-.176l3.35 1.954 2.998-1.066h3.355zm0-1.244v-1.6l-3.355-.71-3.349-1.953-.356.355-.705 1.242 4.588 2.846 3.177-.18zm.172-2.31l1.588-3.021-.35-3.373-1.06-6.22v-.176l.527-4.265-.174-.176-.176 2.131-1.765 3.552v.178l-2.644 1.597-1.411 2.669.705.531 1.411-2.31c0-.177.528.176.35.354l-3.705 6.042 3.355 1.956 3.349.531zm.705-17.942v-.534l-.174-6.04h-.703l.703 3.02v.178l.174 3.197v.179zm-1.585-6.574l-6.53 8.35v.177l-.704.534v.355l2.294-1.955v-.176l3.354-1.066h.175l2.469.176-.178-3.197-.88-3.198zm-7.234 10.302v3.199l-.88 1.955 2.645 1.601c0-.18.179 0 .179 0l.174.176 1.411-2.841.175-.18 2.472-1.42 1.766-3.556.172-2.306-2.291-.179-3.174 1.065-2.65 2.486zm-1.233 5.685v.18l-1.941 3.017 3.879 2.49.356.176 1.938-3.372-.88-.535v-.179l-3.352-1.777zm-2.116 3.732l-2.65 4.086-.35.355 3.35 2.311.882.535v-.18l1.589-2.486v-.18s.178 0 .178-.175l.88-1.245.175-.356-.35-.178-3.704-2.487zm-3.177 4.976l-1.939 2.841 2.466 1.424 2.472.531 1.061-2.131-.883-.354-3.177-2.311zm4.94 62.181l4.585 3.372 1.236-3.018.352-3.02-1.41-1.066.177-1.068-3.354-3.728-1.586 8.528zm1.586-8.708l2.649-13.857 2.116-1.597 1.41-.534-1.06-2.489.355-.887 5.468.355 5.293.179 3.701.176 2.12-.176 1.235-.889-2.999-5.686-.178-.176-.705-5.331-2.644-4.442c-.177-.178-.177-.355-.177-.355v-4.085c0-.18 0-.356.177-.356l.706-.71-1.589-2.842c0-.178-.178-.355-.178-.355l.53-4.799-1.235-.707-4.232-3.379s-.178-.177-.178-.355l-.352-1.777-1.236 1.955.178 8.173-.356 5.686v.176l-1.76 5.33v.18l2.643.886 2.822 1.955c.177 0 .177.176.177.176v5.331l4.233.534c.177 0 .355 0 .355.177l.706 4.972c0 .179 0 .358-.353.358-.175 0-.175 0-.175-.179l-.706-4.797-4.41-.531c-.177 0-.177-.179-.177-.358v-5.328l-2.822-1.775-2.47-.89-1.06 4.086-1.057 3.907-.356 3.552v.179l-.35 1.424.528 1.952s0 .355-.178.355l-1.76 3.554-.883 4.439-1.766 9.595zm24.345-20.25l4.407-2.49 4.06-2.841-1.06-1.956-1.586-4.262-1.941-6.396-1.411-2.844-1.233-1.597-4.588-3.021-3.704-2.486-.355 3.908 1.766 3.196c.177.179 0 .356 0 .534l1.41 3.196c.178.18 0 .356 0 .356l-2.115 1.599 2.471 4.087v.179l.706 5.151 3.173 5.687zm-6.173-19.724l-.53.355v3.734l1.94-1.424-1.41-2.665zm15.523 13.682l.706-.534 4.937-3.907 4.937-4.441 2.999-3.021 5.116-5.33 3.531-3.911 1.412-2.306.527-3.377-.527-2.843-.709-3.908 1.058-.176 1.06.887 1.59 1.244 1.055.177-.884-.177-1.761-1.244-1.06-.887-1.058-.71-5.112-3.376-4.943-3.376-13.23-2.665 1.41 7.283.885 9.238 1.41-1.066h.178l2.821-1.066h.353l.882.534h1.942l3.174 3.553h1.942l8.115.179c.174 0 .352 0 .352.356 0 .176-.178.176-.352.176l-8.115-.176h-2.293l-3.177-3.556h-1.761l-.883-.532-2.822 1.067-1.588 1.241-.177.178-.528.355 2.116 8.352c0 .177 0 .355-.178.355l-2.294 1.242h-.175l-6.878-.356-.528.535.703.71 1.413 2.842v.179l1.94 6.397 1.587 4.085.883 1.776zm-1.588-44.236l-3.177-1.955-3.527-2.841-2.999-1.6-2.294-1.421h-.178l-2.29-3.023-.175-.177 1.938 2.31v.18l4.232 9.414 3.177-.887a.38.38 0 01.355.355l.173 1.066.883-.18c.177-.176.355 0 .355.18l-.177 1.775 1.937 3.2.179.176-.179 1.066 1.237.889.88-2.844-.35-3.021v-2.662zM77.42 98.237l1.589 2.665v.355l.177 3.551.881 4.266v.177l-.353 7.461v.176l-.705 6.754v.177l-1.589 3.375.178 2.666 4.232 2.842 4.765 3.02.175.176.353.533.355-.533h.35l7.056.355 1.941-1.063-1.94-7.996-1.941 1.421h-.353l-1.236-1.065-2.644.889c-.177 0-.355-.354-.177-.534l2.115-2.666.179-2.31v-.176l.705-1.066.178-3.91-1.411-1.065c-.178 0-.178-.177-.178-.177v-1.244l-2.116-3.197v-.179l.175-1.42-.88.355a.38.38 0 01-.356-.355v-1.066l-2.999.886c-.175 0-.35-.175-.35-.175l-4.41-9.772-1.766-2.13zm44.453 22.561l1.233-4.618.884-1.065-.353.356-2.468-2.134-4.236-3.731-6.878-2.665-5.646-1.598-.88.889 1.233 2.132v.355l-.178 1.421 2.649.535h.176l5.117 3.55 4.937 3.197v.179l4.41 3.197zm-17.994-15.81l-5.116-3.021-2.465-1.065-3 .177h-.177l-4.232-1.245h-.177l-3.178-1.42-4.587-.356-.528 1.068.706.886 2.115 1.422 3.177 1.599 3.527 2.841 3.355 2.135 10.58 1.951.356-1.241-1.236-2.487c-.175 0 0-.179 0-.358l.88-.886zm-23.638-6.93h-.35l-.53-.179.706.713.174-.534zm44.104 16.523l1.761-2.311 2.115-2.31 7.588-1.065 1.057-2.842 1.941-.179 2.294-1.775-3.704-3.907h-3.177l.177.887-1.588 1.065-3.704.889-1.764-.355.353.711-.705 1.244-2.822-1.955.527-2.31-.882-2.13 3.177-2.488 2.116.711-.884-3.376v.176l-1.937.359-3.883 1.596-5.642.534h-.178l-2.294-.534-1.233 1.069-.355.531 2.294 1.242c.177 0 .177 0 .177.18l.178 3.375v.179l-.883 1.597 2.468 1.244c.178 0 .178.175 0 .355 0 .355-.174.18-.352.18l-2.643-1.422s-.179-.357 0-.357l.879-1.776-.175-3.2-2.116-1.066-1.766 3.376v.179l-2.821 2.487-2.472 1.065 4.94 1.42v.179l6.879 2.666h.177l4.41 3.729 2.472 2.133zm2.466-21.675h-.527l-4.233 1.6-3.354.179V82.958l-1.234.532-1.766.889-1.938.71.179 2.49v.175l-1.767 6.93.177 1.6.178-.357 1.412-1.242.174-.18 2.647.711 5.467-.531 3.88-1.6.705-.179zm-13.757-7.638l-4.94 1.776-5.115 1.779 1.41 4.083 4.235-1.776h.179l3.348.89 1.061-4.442-.178-2.31zm-10.76 3.73l-2.825 1.067-8.464 2.841.706 2.31v2.131l2.465.89s.178.176.178.355l-.35 1.242h2.466l2.65 1.068h.174l5.468 3.375 2.821-1.423 2.65-2.486 1.761-3.197-.173-.179-.178-2.131v-.176l.351-2.134-3.171-.71-4.414 1.6c-.174.179-.352 0-.352-.18L102.294 89zm-11.82 4.087l-4.234 1.42v.18l-4.055.353-.883 1.954 4.41.355h.178l3.171 1.424 4.238 1.063h.175l.174-1.242-2.468-.713s-.175-.177-.175-.353l.175-2.133-.705-2.308zm-8.993 1.953h-1.24l-2.465-.532h-.356v.887l-.177.179-.173.355 2.997.89.708.175.706-1.954zm37.041-13.325v-3.017l-.175-5.33v-2.31l1.055-.356 1.767 1.6 2.998-1.421.706.355 2.293-3.02 1.055.176 1.061 1.065 1.234-.355-.175-1.955-2.12-.886H125.4l-.177-1.066.355-1.066-2.116.887-2.999 2.665-1.235.18c0 .53-.177.53-.353.71l-3.527 1.065v3.376c0 .176 0 .176-.178.176l.178.18c.175.175.175.355 0 .53l-1.41 1.066.349 3.379c0 .176-.175.355-.349.176h-.884l.527 1.776v.179l-.349 1.065.175 2.487 1.763-.534 1.941-1.067 1.411-.71zm-3.705-11.9l-.352.176h-.178l-4.232.71h-.177l-1.234.18v2.131l6.173-.355v-2.842zm-6.703 1.066h-3.175l-4.764 2.131h-.176 8.115v-2.13zm-9.7 2.662l-3.53 1.245-4.584 1.42v.71l.528 2.132 5.47-.531c0-.176.172-.176.172-.176l3.53-.18h.352l.705-.178 2.822-1.242.178-.179h4.057v-3.02h-9.7zm-8.82 2.842l-4.587.889-2.116 1.424.175.531 2.468 1.066h1.767l3.527.89-1.059-4.087-.175-.713zm-7.233 2.665l-1.586 2.313 2.116 1.597v.179l.175.176 2.646-2.31h-.178l-.174-.176-2.647-1.245h-.177l-.175-.534zm-1.942 2.665l-1.938 1.424-2.65 1.242-.705.889.356.176.178.179 1.233 1.6 3.348-2.489v-.176l2.295-.89v-.355l-2.117-1.6zm-3.176 6.041l.533.535v.175l.175 1.78v.176l-.531 2.841h.531l2.468.71 5.645-.53 4.058-1.421-.178-.18-1.055.18h-.177l-6.352-4.266v-.176l.531-3.2v-.175l-2.294.886-3.354 2.665zm13.406 4.087l4.235-1.421-3.35-6.573h-.18l-.349-1.954-3.882-1.066h-.528l-3.176 3.02v.356l.177.176-.705 3.02 5.998 4.086 1.233-.355c.178 0 .353.18.353.18l.174.53zm4.766-1.597l3.705-1.245 2.82-1.069-1.94-9.058h-3.352l-.35 2.131c0 .18-.178.18-.178.358l-2.82 1.062h-.178l-1.588-.354.527 1.6 3.355 6.575zm7.053-2.49l5.292-1.776 5.116-1.775-.177-2.666v-.176l.355-1.068-.706-1.953c-.177-.178 0-.357.178-.357h1.055l-.174-3.197c0-.18 0-.18.174-.355l1.061-.89-.355-.176-5.464.176h-.179v3.2c0 .175 0 .355-.178.355l-4.409.176-2.821 1.245-.531.179 1.763 9.058zm15.348-19.364l-.705-3.552-2.469-2.845-3.704-3.375-13.407-11.724-4.057-3.91-.175.179-2.65 3.02-1.76 2.666-.177.176-4.766 3.375-1.585 2.666h-.176l-3.529 4.265-3.174 4.972 3.349 1.956 4.41 1.775.705-.355c0-.176.178-.176.355 0l3.528 2.841c.177 0 .177.18.177.18l.528 2.131 1.41 1.423v.177l.178.71 4.41-1.42 5.293-1.78 4.759-2.128h.178l3.352-.179v-4.086c0-.179.175-.355.352-.355l5.293-.355s.179 0 .179.176l1.232 3.555 2.472-.89.174.71zm-42.69-3.552l-1.054 1.776-1.062 6.396.178 3.552 2.644-.18c0-.175 0-.175.177 0l.178-.175h.178l2.466.889 2.65-.18 1.76-2.841-.35-.534-.178-3.02v-.176l.706-1.776h-.178l-4.585-1.776-3.53-1.955zm-1.938 12.434l-.355 3.2v.176l-.705 3.376 1.06.179.178.176.706.355.88-1.066c0-.178.174-.178.174-.178l2.825-1.242 1.585-1.245-3.704-4.087-2.643.356zm6.704 3.376l1.938-2.486v-.18l-.175-.531-2.824.176-2.291-.71 3.352 3.73zm2.469-3.02l2.115-1.421h.178l4.762-.887v-.713l-1.41-1.242v-.18l-3.882 1.777c0 .179-.178 0-.353 0l-.175-.355-1.41 2.489.174.531zm26.283-7.994h1.234l4.234-.713.53-.176-1.061-3.376-4.937.356v3.91zM92.591 42.276L90.3 40.142l-1.944-1.42-3.527-1.066-6.172-.176-5.824-1.245-7.41-3.02-3.349-1.421v4.973l4.233.179h.178l3.704 3.196 4.763.534 5.823.356v-.18l-.534-2.486s0-.178.356-.355c.178 0 .178.176.35.355l.355 2.487v.179h1.058l1.41.89a.551.551 0 01.176.355l-2.465 5.327-.356 4.441-.528 2.31v1.066l.884-1.066 1.585-2.486c0-.18.174-.18.174-.18l4.766-3.55 1.763-2.666h.175l2.647-3.197zM61.547 31.615l-5.47.355.705-8.883 1.41-.175.356-2.134-1.413-.356.53-1.42 4.232-.356-.706-3.02-1.588-1.066-3.526 1.42-2.644-.888-2.118.889 1.41 3.91.88 5.328v.179l-.88 3.02v3.731c.53.176.53.353.353.71v1.066l-.178 2.13 2.119 1.067 2.468-.532 4.06.177v-5.152zM50.784 16.157l.883 2.844-4.588 1.066 3.53 12.969-2.822 1.244-3.176 2.131-2.825 2.132-2.29 1.778-2.998 1.421-3.53.355-1.94.71.353.89 3 3.373.176.179 2.292 5.862.177.534 2.47-1.6v-.176l3.704-1.245-1.941-1.42-1.41.179c-.177 0-.353-.18-.353-.358l-.53-2.131v-.177l-.176-5.154c0-.176 0-.355.176-.355.353 0 .353.179.353.355l.176 5.154.53 1.953h1.412l2.471 1.775 2.116-1.952s.175-.179.35.177c.178.179 0 .179 0 .355l-2.116 1.779 3.177 4.086.175.176.178 3.73 3.351 1.242h.176v-.176l5.29-3.197h.177l-.883-3.2-2.644-3.02-.53-.355-4.407-3.907-.178-.178-2.65-4.973-1.232 1.065s-.35 0-.35-.176l-1.766-2.49s-.178-.175.178-.354c.177-.176.177 0 .35 0l1.588 2.31 1.06-1.066c.173 0 .35 0 .529.177l2.821 5.33 3.882 3.376.35-3.91-1.233-3.017v-.18l.177-8.348.175-1.068c0-.18 0-.356.175-.356V28.42l.884-3.021-.884-5.33-1.41-3.91zm-13.582 38.02l1.234 3.375 3.179 6.752 1.938 3.73h3.704l1.763-3.375.353-2.132v-.176l1.411-1.778-3.35-1.421-.177-.179-.353-3.728-2.996-4.087h-.177L39.67 52.4l-2.47 1.777zm6.529 14.568l1.588 2.844 4.232 1.776 7.759 5.683 1.238-1.597.175-.179h.53l-.177-3.376-.884-2.662-4.937-9.772-1.766-.71-1.588 1.952-.173 2.134-.177.176-1.764 3.376c-.177.179-.177.179-.352.179l-3.704.176zm13.934 10.658l5.998 5.51 1.411-.71-4.41-7.82-.178-.176-.352-4.442-.53-1.065-.706.89.883 2.306v3.555c0 .176 0 .176-.178.356h-.527l-1.411 1.596zm1.763-9.237l-.88-2.842-.177-.179-.179-3.018-.174-3.554-1.058-3.376h-.178l-4.938 3.02 1.76.711.179.179 4.765 9.772.88-.713zm-6.528-33.4l-.175 5.155 1.236 3.02v.177l-.178 4.265 2.999 3.372s.178.18.178.356l2.116 7.107v.179l.178 3.73.35 2.842.882 2.486 3.705-.534-4.41-4.794s0-.179-.178-.179v-2.665l1.41-3.373.178-10.482s0-.18.179-.18v-6.572l.177-3.375-4.06-.18-2.293.535h-.175l-2.119-.89zm7.764 33.223l.527 1.421v.18l.528 4.44 4.238 7.46c.175 0 .35.178.35.178l1.766-.178h.528l-1.058-3.018.352-3.376-.177-5.862-1.411-.355h-.175l-1.414-1.424-4.054.534zm8.998 13.68h1.41l.528-3.197.528-3.731-.173-3.73v-.18l1.055-6.217h-3.526v3.2l-1.061 1.42-.172.177.172 5.505v.18l-.35 3.376 1.055 2.841.534-1.952-.356-1.779v-.18l.178-2.13c0-.176 0-.356.178-.356.35 0 .35.18.35.356l-.175 2.13.352 1.96-.527 2.306zm3.526-17.59l2.294-3.906-2.472-1.6v-.176l-.527-3.2h-1.766c-.175 0-.175-.177-.175-.355l-.53-4.441-4.055-1.956-.706-.355s-.177 0-.177-.176L61.72 47.96v10.127l1.239 2.487 2.116 2.13.177.18.35 3.196h7.588zm2.644-4.44l1.766-2.842.178-.18 2.291-2.665-.175-1.596v-.18l.705-2.13.178-3.197-5.115-1.245-8.647 1.421-.528 1.065 3.882 1.955c.175 0 .175.18.175.18l.53 4.261h1.589c.172 0 .35.18.35.356l.53 3.376 2.29 1.42zm-1.41 24.516l-.88 1.244 1.235 1.776 1.232-1.245-1.232-1.42-.356-.355zm-1.412 1.6L71.6 89.71l2.646-.356-1.236-1.6zm-.882 2.489l.882.707h.178l1.233 1.42.53-1.241-.352-1.244-2.471.358zm2.649 2.662l.527.534h1.061v-.179l.528-3.017-.178-1.421-.35-.358-1.239 1.245.534 1.42v.18l-.883 1.596zm-4.06-2.486c0 .179-.175.179-.175.179l-1.058-.355-.883.176-.35.531-.356.89v.355l-.527 1.065 1.41 2.666v.358l-.177.531.527 1.242v.18l.356 1.774h.353v-7.815l.174-.177 1.589-.18.705-.176-1.588-1.244zm-2.294 7.46l-.528 2.132h.883l-.177-1.775-.178-.358zm1.944 2.132l2.294-.354 2.643-2.842h.178l-.705-2.49-1.944-2.13-1.233.176-1.233.179v7.461zm1.76-12.613l1.239-1.776-.533-.355-.705-.179v2.31zm-5.642 5.152h-.353l.175.355.178-.355zm-1.062 0h-3.876l-.177.89.527 3.551.883.534v-.89l.178-.351.705-.713 2.469-2.132-.709-.71v-.18zm-3.876-1.066h3.171l-.527-.71h-.528l-1.944-.89-.172 1.6zm3.876 0h1.415l-1.236-.71h-.706l.527.71zm1.59-.534l.177-.352-1.41-1.955-1.062 1.42h1.061l1.234.887zm-1.59-2.842l-1.937-1.775-.706 1.42-.706 1.6 1.764.89.175-.18 1.41-1.955zm2.472 1.6v-.178h.356l.527-.177-.355-1.6v-.176l.53-.713-.88-.355-1.06.889v1.066l.882 1.245zm1.589-.534l.883.18.527-1.777v-.355l-1.233-.179-.707.71.53 1.421zm1.41-2.486l.178-1.776-1.41-.179v1.6l1.232.355zm-1.94-1.955h-.703l-1.766.18.353.888v.887l1.057-.71h.178l1.055.176-.174-1.421zm1.057 16.879l.178 4.261.705-1.597-.883-2.664zm.178 5.685v1.597l.353.534 1.058.355 4.06.531 2.82-2.662h.176l-.53-2.665-.175-3.554-2.12-3.555-2.465 2.668c-.177.176-.356.176-.356.176l-2.468.356.88 3.198v.177l-1.233 2.844zm-.178 2.486l-.35 3.197 1.056 6.041.355 3.2c.175.176.175.352.175.531l.708 2.666 5.82-1.777.176-.357.706-6.573.174-7.461-.175-1.066-2.647 2.665-.177.18-4.41-.535-1.233-.535v-.176h-.178zm2.472 16.166l3.526 2.842.356.178-.178-1.955.178-.177 1.055-2.488-4.937 1.6zm3.349-31.444l.355.887v-.887h-.355zm-10.409-9.238l-.88.355 1.236 1.421-.177-1.066-.179-.71zm-1.76 12.97l1.939.888 1.236.532.88-3.552-.88-1.78-2.47 1.959-.53.707-.175 1.245zm2.822 2.485l-1.234-.531-1.413-.711-.53 1.776-3.174 5.152c-.175.178-.353.178-.353.178l-1.41-1.068-1.236 1.779-3.702 4.617.172.179 1.239 1.243.35-.177 4.94-4.441 6.35-7.996zm-3.527-.355l-1.588 1.245-2.647 3.375 1.058.886 2.999-4.972.178-.534zm-9.88 11.902l-1.234 1.424v.177l-.705.71 1.41 1.421 1.94-2.131-1.234-1.423v.178l-.177-.356zm-2.47 2.666l-2.118 2.31-4.937 4.617h-.178l-1.055 1.066 1.233.713.178.177.88 1.065 4.588-5.152 2.995-3.375-1.585-1.421zm-8.822 8.349l-1.233 1.065-1.234 1.424-.529 4.441 4.41-3.377.88-1.419-.88-1.246-1.414-.888zM20.444 47.783l-2.468 4.262h-.353l.528-4.796 1.94.179.353.355zm-3.526-34.112l4.762-.71.353 1.068v.71l-1.412.887-2.822-1.597-.529.531-.352-.889zm-1.236 33.047l-3.528.53-5.292 3.556-1.94 6.927 1.235 2.487 1.587 2.665-.706 2.131.882.534v2.131l3 1.242 3.175-.708 1.234-3.02 1.236-.179-.883 3.02-2.823 7.641-3.528-1.954-1.94 2.13.707 1.776-.178 1.776-3.351 3.91-3.174.71.174 5.331 5.47-1.776 2.47.531 2.116-1.775.176 7.816.53 3.376 1.94 6.751 1.941 4.263 4.409 6.751.883 1.421v2.131l-1.765 3.02.352 2.134.706.711-.53.356-1.586-1.422-2.646-.179v-1.776l-4.763-.355-1.41 1.776-1.589-.534-1.587 4.089.529.531-.706.711-.881.356-1.941 3.198.176 3.553 3.528 4.976 3-1.78 4.938 5.154 2.47-1.955v-1.068l.882 1.068 2.823-1.419 2.116 1.24 2.117-5.152.53-7.284.881.178 4.233 6.928c3.705 5.33 7.585 10.661 11.466 15.992l2.472 1.952 2.999 1.066 1.938.889-1.057 1.599v3.732l1.763 1.244 1.588 1.066-.53 2.131-1.764-.179-.705-.71-4.41.355-1.94 2.842-3.882 1.424-3.352 2.664v7.993l4.235-1.42v-.18l2.467 1.069.884-.534.883.355 1.233.179.705 1.597 1.589.176 1.236 1.068-1.942 1.066.178 3.731 3.174 1.597 3.701-1.597 2.12 1.244 7.583 5.507 1.944-4.975.706-4.442-1.412-.886.172-.89-3.526-3.909 2.472-12.435 1.41-1.066 2.644-1.068-1.055-2.486 3.704.179 5.293.177 3.876.178 2.65-.178 1.938-1.245 5.115-2.842 5.82-4.262 4.941-3.91 4.94-4.441 2.999-3.021 5.115-5.507 3.883-3.907 1.409-2.841.707-3.911-.707-4.085 1.057.886 2.823.179 1.763-6.22 2.472-3.551 1.938-1.776 7.938-1.246.882-2.662 1.588-.179 3.883-3.197-5.293-5.685h-5.82l.353 1.776-.531.355-2.999.711-1.233-.355-1.766-1.245-.35-1.063 1.585-1.245 4.057 1.066-1.938-7.462-3.533.18-4.054 1.596h-1.588v-9.238l-.177-4.972-.173-5.51 1.055.889 3.177-1.42 1.411.355 2.116-2.844 1.061 1.068 3.527-.89-.528-4.265-3.177-1.42h-1.411l1.233-3.197-5.821 2.132-2.82 2.665h-.707l-.529-2.132-2.825-3.199-3.703-3.552L98.589 45.65l-4.94-4.441-2.294-2.307-2.116-1.6-4.232-1.245-6.176-.176-5.465-1.245-7.234-2.841-3.88-1.779-4.409.18.35-5.687 1.41-.176.706-3.91 3.53-.355-1.236-5.507-2.822-1.776-3.704 1.597-2.644-.887-4.765 1.598.883 2.665-4.41 1.068 3.527 13.324-1.589.71-3.348 2.132-2.823 2.31-2.118 1.776-2.646 1.065-3.529.355-4.057 1.424-2.645 1.242-1.588-1.066-2.116-7.462-1.412-.886v-1.07l2.117-1.956-.529-1.776 1.764.18 1.236-4.09-.882-2.841.176-1.241 2.998-1.6.176-3.02-1.233-1.245v-.177l4.938-1.6v-.885l3.352-1.066.352-1.42h2.118v-4.8l-7.233-2.487-1.764-2.841h-5.116l-.176 2.13-6.173 2.311.174 1.776-4.233 3.91 1.06 3.196h-.882l-4.059-.178-3.35 2.665 2.47 4.441-2.646.535-1.589 1.596 1.941 3.376 1.058-.176 1.236 2.662 2.116.89 1.763-1.242 1.06.71-1.06 2.131.53 2.666v.176l-2.117.534 2.293 6.396.707-.179v4.086l2.292 2.49z" fill="#fff"/></g><defs><clipPath id="clip0_796_10506"><path fill="#fff" d="M0 0h144v194H0z"/></clipPath></defs></svg>