<svg width="21" height="18" fill="none" xmlns="http://www.w3.org/2000/svg"><path fill-rule="evenodd" clip-rule="evenodd" d="M10.885.377a1.327 1.327 0 011.856 0l7.875 7.721c.246.241.384.569.384.91 0 .341-.138.668-.384.91l-7.875 7.72a1.327 1.327 0 01-1.84-.015 1.274 1.274 0 01-.385-.899c-.003-.337.13-.662.369-.905l5.634-5.524H1.313a1.33 1.33 0 01-.929-.377A1.274 1.274 0 010 9.008c0-.342.138-.669.384-.91.247-.242.58-.377.929-.377h15.206l-5.634-5.525a1.274 1.274 0 01-.385-.91c0-.34.139-.668.385-.91z" fill="#0B1427"/></svg>