<svg width="102" height="96" fill="none" xmlns="http://www.w3.org/2000/svg"><path d="M47.62 63.103h6.187l1.563-30.45h-9.25l1.5 30.45zm3.125 15.55c2.875 0 4.937-2.277 4.937-5.075 0-2.797-2.062-5.01-4.937-5.01-2.938 0-5.063 2.213-5.063 5.01 0 2.798 2.125 5.075 5.063 5.075z" fill="#E7742E"/><path fill-rule="evenodd" clip-rule="evenodd" d="M44.48 6.75c2.898-5 10.142-5 13.04 0l43.46 75c2.898 5-.724 11.25-6.519 11.25H7.54c-5.795 0-9.417-6.25-6.52-11.25l43.462-75zm8.693 2.5c-.966-1.667-3.38-1.667-4.346 0l-43.461 75C4.4 85.917 5.607 88 7.539 88H94.46c1.932 0 3.139-2.083 2.173-3.75l-43.46-75z" fill="#E7742E"/></svg>