<svg width="48" height="48" fill="none" xmlns="http://www.w3.org/2000/svg"><path fill-rule="evenodd" clip-rule="evenodd" d="M24 45a21 21 0 100-42 21 21 0 000 42zm0 3a24 24 0 100-48 24 24 0 000 48z" fill="#E7742E"/><path fill-rule="evenodd" clip-rule="evenodd" d="M22.938 34.062a1.498 1.498 0 010-2.124L30.875 24l-7.937-7.938a1.502 1.502 0 012.123-2.124l8.996 9a1.502 1.502 0 010 2.124l-8.996 9a1.5 1.5 0 01-2.123 0z" fill="#E7742E"/><path fill-rule="evenodd" clip-rule="evenodd" d="M13.5 24a1.5 1.5 0 011.5-1.5h15a1.5 1.5 0 110 3H15a1.5 1.5 0 01-1.5-1.5z" fill="#E7742E"/></svg>