<svg width="48" height="48" fill="none" xmlns="http://www.w3.org/2000/svg"><g clip-path="url(#clip0_646_578)" fill-rule="evenodd" clip-rule="evenodd" fill="#B4B4B4"><path d="M24 45a21 21 0 100-42 21 21 0 000 42zm0 3a24 24 0 100-48 24 24 0 000 48z"/><path d="M25.057 34.062a1.498 1.498 0 000-2.124L17.119 24l7.938-7.938a1.502 1.502 0 00-2.123-2.124l-8.996 9a1.502 1.502 0 000 2.124l8.996 9a1.5 1.5 0 002.123 0z"/><path d="M34.5 24a1.5 1.5 0 00-1.5-1.5H18a1.5 1.5 0 100 3h15a1.5 1.5 0 001.5-1.5z"/></g><defs><clipPath id="clip0_646_578"><path fill="#fff" d="M0 0h48v48H0z"/></clipPath></defs></svg>