<svg width="236" height="114" fill="none" xmlns="http://www.w3.org/2000/svg"><path d="M121.416 37.574a.254.254 0 01.041.152.305.305 0 01-.097.223.276.276 0 01-.221.097h-1.427a.45.45 0 01-.249-.056 1.065 1.065 0 01-.166-.18l-2.382-3.818h-1.316v3.72a.32.32 0 01-.097.236.29.29 0 01-.235.098h-1.26a.32.32 0 01-.236-.097.324.324 0 01-.097-.236v-9.038c0-.102.028-.185.084-.25a.335.335 0 01.249-.097h1.26a.29.29 0 01.235.097.337.337 0 01.097.25v3.582l1.219.014 2.243-3.693c.093-.167.259-.25.499-.25h1.371c.092 0 .161.028.208.083a.284.284 0 01.083.208.429.429 0 01-.056.167l-2.617 4.234 2.867 4.554zm4.76.611c-1.255 0-2.234-.32-2.935-.958-.702-.639-1.071-1.588-1.108-2.846a37.824 37.824 0 01-.014-1.18c0-.528.005-.926.014-1.194.037-1.231.415-2.175 1.135-2.832s1.69-.986 2.908-.986c1.219 0 2.189.329 2.909.986.729.657 1.112 1.6 1.149 2.832.018.537.028.935.028 1.194 0 .25-.01.643-.028 1.18-.046 1.258-.42 2.207-1.122 2.846-.701.638-1.68.958-2.936.958zm0-1.597c.619 0 1.113-.185 1.482-.555.37-.38.568-.953.596-1.722.018-.555.027-.93.027-1.124 0-.213-.009-.588-.027-1.125-.028-.768-.226-1.337-.596-1.707-.369-.38-.863-.57-1.482-.57-.609 0-1.098.19-1.467.57-.37.37-.568.94-.596 1.707-.009.269-.014.644-.014 1.125 0 .472.005.847.014 1.124.028.769.222 1.342.582 1.722.369.37.863.555 1.481.555zm6.25 1.458a.37.37 0 01-.249-.084.337.337 0 01-.097-.25v-9.037c0-.102.032-.185.097-.25a.338.338 0 01.249-.097h1.094c.194 0 .333.088.416.264l2.673 4.997 2.7-4.997c.092-.176.231-.264.415-.264h1.081c.101 0 .184.032.249.097a.341.341 0 01.097.25v9.037a.341.341 0 01-.097.25.37.37 0 01-.249.084h-1.164a.32.32 0 01-.235-.097.32.32 0 01-.097-.236V31.7l-1.939 3.707c-.12.204-.277.305-.471.305h-.567c-.194 0-.351-.101-.471-.305l-1.939-3.707v6.011a.32.32 0 01-.097.236.292.292 0 01-.235.098h-1.164zm11.211 0a.319.319 0 01-.235-.097.32.32 0 01-.097-.236v-9.038c0-.102.028-.185.083-.25a.338.338 0 01.249-.097h7.257c.101 0 .184.032.249.097a.337.337 0 01.097.25v9.037a.337.337 0 01-.097.25.37.37 0 01-.249.084h-1.247a.32.32 0 01-.235-.097.32.32 0 01-.097-.236v-7.65h-4.085v7.65a.324.324 0 01-.097.236.294.294 0 01-.236.097h-1.26zm10.089 0a.32.32 0 01-.236-.097.324.324 0 01-.097-.236V28.66c0-.102.033-.18.097-.236a.32.32 0 01.236-.097h1.26a.29.29 0 01.235.097.293.293 0 01.097.236v3.18h1.787c1.108 0 1.957.258 2.548.777.6.518.9 1.277.9 2.276a3.28 3.28 0 01-.402 1.625c-.258.472-.646.846-1.163 1.124-.517.268-1.145.403-1.883.403h-3.379zm3.296-1.541c.489 0 .868-.148 1.135-.445.277-.296.416-.689.416-1.18 0-1-.517-1.499-1.551-1.499h-1.704v3.124h1.704zm12.974 1.68c-1.284 0-2.258-.329-2.922-.986-.665-.657-1.034-1.555-1.108-2.693a7.412 7.412 0 01-.028-.514h-1.883v3.72a.324.324 0 01-.097.236.294.294 0 01-.236.098h-1.26a.319.319 0 01-.235-.097.32.32 0 01-.097-.236V28.66c0-.102.032-.18.097-.236a.319.319 0 01.235-.097h1.26c.102 0 .18.032.236.097a.296.296 0 01.097.236v3.596h1.897l.014-.445c.092-1.092.471-1.966 1.135-2.623.674-.667 1.639-1 2.895-1 1.301 0 2.289.352 2.963 1.055.683.694 1.048 1.615 1.094 2.763.019.537.028.935.028 1.194 0 .25-.009.643-.028 1.18-.046 1.175-.406 2.105-1.08 2.79-.674.676-1.666 1.014-2.977 1.014zm0-1.597c.627 0 1.121-.18 1.481-.541.37-.361.568-.926.596-1.694.018-.555.027-.944.027-1.166 0-.24-.009-.63-.027-1.166-.028-.768-.226-1.333-.596-1.694-.369-.36-.863-.541-1.481-.541-.619 0-1.113.18-1.482.541-.36.36-.554.925-.582 1.694-.009.268-.014.657-.014 1.166 0 .5.005.888.014 1.166.028.768.222 1.333.582 1.694.369.36.863.541 1.482.541zm8.366 1.458a.322.322 0 01-.236-.097.324.324 0 01-.097-.236v-7.678h-2.561a.32.32 0 01-.236-.097.324.324 0 01-.097-.236v-1.027c0-.102.028-.185.083-.25a.339.339 0 01.25-.097h7.062c.102 0 .185.032.249.097a.337.337 0 01.097.25v1.027a.335.335 0 01-.346.333h-2.548v7.677a.32.32 0 01-.097.236.336.336 0 01-.249.098h-1.274zm6.252 0a.322.322 0 01-.236-.097.323.323 0 01-.096-.236v-9.038c0-.102.027-.185.083-.25a.335.335 0 01.249-.097h6.093c.102 0 .185.032.249.097a.337.337 0 01.097.25v.916a.337.337 0 01-.097.25.366.366 0 01-.249.083h-4.556v2.458h4.251c.102 0 .185.032.25.097a.296.296 0 01.097.236v.86a.341.341 0 01-.097.25.37.37 0 01-.25.084h-4.251v2.54h4.667a.34.34 0 01.249.097.337.337 0 01.097.25v.916a.337.337 0 01-.097.25.368.368 0 01-.249.084h-6.204zm8.614 0a.32.32 0 01-.235-.097.32.32 0 01-.097-.236v-9.038c0-.102.028-.185.083-.25a.338.338 0 01.249-.097h3.712c1.108 0 1.98.264 2.617.791.637.518.956 1.282.956 2.29 0 1.01-.319 1.773-.956 2.291-.628.51-1.5.764-2.617.764h-2.064v3.248a.32.32 0 01-.097.236.29.29 0 01-.235.098h-1.316zm3.643-5.123c.535 0 .946-.125 1.232-.375.286-.259.429-.638.429-1.138 0-.481-.138-.856-.415-1.125-.277-.277-.693-.416-1.246-.416h-2.022v3.054h2.022zm5.486 5.123a.319.319 0 01-.235-.097.32.32 0 01-.097-.236v-9.038c0-.102.027-.185.083-.25a.335.335 0 01.249-.097h1.26c.102 0 .18.032.236.097a.34.34 0 01.096.25v3.582h4.086v-3.582c0-.102.027-.185.083-.25a.336.336 0 01.249-.097h1.246c.102 0 .185.032.25.097a.341.341 0 01.097.25v9.037a.341.341 0 01-.097.25.37.37 0 01-.25.084h-1.246a.319.319 0 01-.235-.097.32.32 0 01-.097-.236v-3.721h-4.086v3.72a.323.323 0 01-.096.236.294.294 0 01-.236.098h-1.26zm10.089 0a.32.32 0 01-.236-.097.324.324 0 01-.097-.236V28.66c0-.102.033-.18.097-.236a.32.32 0 01.236-.097h1.26c.101 0 .18.032.235.097a.293.293 0 01.097.236v3.18h1.537c1.108 0 1.958.258 2.548.777.6.518.9 1.277.9 2.276a3.28 3.28 0 01-.401 1.625 2.792 2.792 0 01-1.163 1.124c-.517.268-1.145.403-1.884.403h-3.129zm8.101 0a.32.32 0 01-.236-.097.324.324 0 01-.097-.236V28.66c0-.102.033-.18.097-.236a.32.32 0 01.236-.097h1.302c.101 0 .18.032.235.097a.293.293 0 01.097.236v9.051a.32.32 0 01-.097.236.292.292 0 01-.235.098h-1.302zm-5.041-1.541c.48 0 .854-.148 1.122-.445.277-.296.415-.689.415-1.18 0-1-.512-1.499-1.537-1.499h-1.468v3.124h1.468zm9.178 1.541a.338.338 0 01-.249-.097.373.373 0 01-.083-.25v-9.024c0-.102.032-.185.097-.25a.338.338 0 01.249-.097h1.247c.101 0 .18.032.235.097a.337.337 0 01.097.25v6.372l4.556-6.497a.468.468 0 01.402-.222h1.149c.102 0 .18.032.236.097a.34.34 0 01.096.25v9.037a.323.323 0 01-.096.236.294.294 0 01-.236.098h-1.246a.366.366 0 01-.249-.084.337.337 0 01-.097-.25v-6.247l-4.543 6.359a.688.688 0 01-.166.166.42.42 0 01-.235.056h-1.164zm3.878-10.273c-.803 0-1.389-.172-1.759-.514-.369-.352-.554-.8-.554-1.347a.24.24 0 01.07-.18.236.236 0 01.193-.083h.804a.24.24 0 01.194.083.245.245 0 01.069.18c0 .528.328.792.983.792.646 0 .969-.264.969-.792a.24.24 0 01.07-.18.236.236 0 01.193-.083h.804a.24.24 0 01.194.083.245.245 0 01.069.18c0 .546-.185.995-.554 1.347-.369.342-.951.514-1.745.514zM117.413 54.844c-1.274 0-2.261-.329-2.963-.986-.692-.657-1.062-1.583-1.108-2.776-.009-.25-.014-.658-.014-1.222 0-.574.005-.99.014-1.25.046-1.184.42-2.105 1.122-2.762.711-.667 1.694-1 2.949-1 .822 0 1.538.144 2.147.43.609.278 1.08.662 1.412 1.153.333.481.508 1.027.527 1.638v.028a.252.252 0 01-.097.194.294.294 0 01-.194.07h-1.316c-.11 0-.194-.024-.249-.07-.055-.046-.102-.134-.138-.264-.148-.583-.393-.99-.734-1.221-.342-.241-.799-.361-1.371-.361-1.33 0-2.022.745-2.078 2.235-.009.25-.013.634-.013 1.152 0 .518.004.912.013 1.18.056 1.49.748 2.235 2.078 2.235.572 0 1.029-.12 1.371-.36.35-.241.595-.649.734-1.222.027-.13.069-.218.124-.264a.446.446 0 01.263-.07h1.316c.083 0 .152.028.208.084a.229.229 0 01.083.208 3.048 3.048 0 01-.527 1.652c-.332.481-.803.865-1.412 1.152-.609.278-1.325.417-2.147.417zm6.06-.139a.32.32 0 01-.235-.097.32.32 0 01-.097-.236v-9.038c0-.102.028-.185.083-.25a.338.338 0 01.249-.097h6.094c.101 0 .184.032.249.097a.341.341 0 01.097.25v.916a.341.341 0 01-.097.25.37.37 0 01-.249.084h-4.556v2.457h4.251c.101 0 .185.032.249.097a.293.293 0 01.097.236v.86a.337.337 0 01-.097.25.368.368 0 01-.249.084h-4.251v2.54h4.666c.102 0 .185.033.25.098a.341.341 0 01.097.25v.916a.341.341 0 01-.097.25.37.37 0 01-.25.083h-6.204zm8.615 0a.319.319 0 01-.235-.097.32.32 0 01-.097-.236v-9.038c0-.102.027-.185.083-.25a.335.335 0 01.249-.097h3.711c1.108 0 1.981.264 2.618.791.637.519.955 1.282.955 2.291s-.318 1.772-.955 2.29c-.628.51-1.501.764-2.618.764h-2.063v3.249a.32.32 0 01-.097.236.292.292 0 01-.235.097h-1.316zm3.642-5.123c.536 0 .946-.125 1.233-.375.286-.259.429-.638.429-1.138 0-.481-.139-.856-.416-1.125-.277-.277-.692-.416-1.246-.416h-2.022v3.054h2.022zm5.486 5.123a.32.32 0 01-.235-.097.32.32 0 01-.097-.236v-9.038c0-.102.028-.185.083-.25a.338.338 0 01.249-.097h4.016c1.081 0 1.884.24 2.41.722.535.472.803 1.12.803 1.944 0 .48-.12.893-.36 1.235-.231.333-.503.574-.817.722.388.176.711.463.969.86.268.399.402.852.402 1.361 0 .86-.291 1.555-.872 2.082-.573.528-1.381.792-2.424.792h-4.127zm3.767-5.734c.48 0 .845-.115 1.094-.347.249-.231.374-.541.374-.93 0-.398-.125-.703-.374-.916-.249-.222-.614-.333-1.094-.333h-2.174v2.526h2.174zm.139 4.262c.48 0 .854-.13 1.121-.388.268-.269.402-.607.402-1.014 0-.416-.134-.754-.402-1.013-.267-.269-.641-.403-1.121-.403h-2.313v2.818h2.313zm5.588 1.472a.335.335 0 01-.249-.097.368.368 0 01-.083-.25v-9.024c0-.102.032-.185.097-.25a.335.335 0 01.249-.097h1.246c.102 0 .18.032.236.097a.341.341 0 01.097.25v6.372l4.556-6.497a.465.465 0 01.401-.222h1.15c.101 0 .18.032.235.097a.337.337 0 01.097.25v9.038a.32.32 0 01-.097.236.292.292 0 01-.235.097h-1.247a.37.37 0 01-.249-.083.337.337 0 01-.097-.25v-6.248l-4.542 6.359a.723.723 0 01-.166.166.424.424 0 01-.236.056h-1.163zm13.928.139c-1.274 0-2.262-.329-2.963-.986-.693-.657-1.062-1.583-1.108-2.776-.009-.25-.014-.658-.014-1.222 0-.574.005-.99.014-1.25.046-1.184.42-2.105 1.121-2.762.711-.667 1.695-1 2.95-1 .822 0 1.537.144 2.147.43.609.278 1.08.662 1.412 1.153.332.481.508 1.027.526 1.638v.028a.249.249 0 01-.097.194.292.292 0 01-.193.07h-1.316c-.111 0-.194-.024-.249-.07-.056-.046-.102-.134-.139-.264-.148-.583-.392-.99-.734-1.221-.341-.241-.798-.361-1.371-.361-1.329 0-2.022.745-2.077 2.235-.009.25-.014.634-.014 1.152 0 .518.005.912.014 1.18.055 1.49.748 2.235 2.077 2.235.573 0 1.03-.12 1.371-.36.351-.241.596-.649.734-1.222.028-.13.069-.218.125-.264a.442.442 0 01.263-.07h1.316a.28.28 0 01.207.084.224.224 0 01.083.208 3.047 3.047 0 01-.526 1.652c-.332.481-.803.865-1.412 1.152-.61.278-1.325.417-2.147.417z" fill="#fff"/><path d="M66.822 73.612l-3.232 3.385c-2.138-1.692-3.907-2.52-6.598-2.52-4.46 0-8.269 3.385-8.269 11.885 0 8.636 2.544 11.885 7.458 11.885 1.77 0 3.502-.37 5.001-1.236v-8.228h-4.73l-.64-4.484h11.28v15.455c-3.133 1.915-6.868 3.113-10.825 3.113-8.957 0-13.872-5.67-13.872-16.505 0-10.699 6.55-16.456 14.413-16.456 4.374.012 7.372 1.47 10.014 3.706zM92.55 91.897H77.462c.454 4.941 2.727 6.535 5.91 6.535 2.138 0 3.907-.68 5.996-2.15l2.408 3.336c-2.36 1.915-5.271 3.249-8.908 3.249-7.458 0-11.464-4.979-11.464-12.614 0-7.363 3.87-12.934 10.69-12.934 6.733 0 10.591 4.57 10.591 12.206 0 .778-.098 1.741-.135 2.372zm-5.64-4.065c0-3.978-1.413-6.35-4.681-6.35-2.728 0-4.46 1.828-4.767 6.634h9.46v-.284h-.012zm15.851 14.356h-5.825V68.312l5.825-.642v34.518zm6.413-13.528l8.773 13.528h-6.684l-8.269-13.207 8.048-10.97h6.143l-8.011 10.649zm31.909 1.408c0 7.635-4.226 12.799-11.316 12.799-7.089 0-11.316-4.843-11.316-12.799 0-7.585 4.227-12.75 11.365-12.75 7.09 0 11.267 4.843 11.267 12.75zm-16.501 0c0 5.807 1.769 8.364 5.185 8.364 3.416 0 5.185-2.607 5.185-8.364 0-5.757-1.769-8.314-5.136-8.314-3.415 0-5.234 2.606-5.234 8.314zm43.323-16.814l-3.047 3.57c-1.818-1.457-3.686-2.236-5.824-2.236-4.361 0-7.728 3.2-7.728 11.75 0 8.314 3.268 11.699 7.728 11.699 2.728 0 4.596-1.186 6.414-2.558l2.814 3.57c-1.905 1.965-5.185 3.843-9.461 3.843-8.134 0-13.823-5.806-13.823-16.555 0-10.6 5.996-16.406 13.725-16.406 4.017-.013 6.61 1.173 9.202 3.323zm24.648 16.814c0 7.635-4.227 12.799-11.317 12.799-7.089 0-11.316-4.843-11.316-12.799 0-7.585 4.227-12.75 11.366-12.75 7.077 0 11.267 4.843 11.267 12.75zm-16.514 0c0 5.807 1.769 8.364 5.185 8.364 3.416 0 5.185-2.607 5.185-8.364 0-5.757-1.769-8.314-5.136-8.314-3.415 0-5.234 2.606-5.234 8.314zm34.403-12.378l-.995 5.67a7.735 7.735 0 00-2.138-.272c-2.912 0-4.411 2.15-5.32 6.214v12.886h-5.824V78.01h5.05l.54 4.757c1.143-3.472 3.453-5.4 6.279-5.4.86 0 1.634.087 2.408.322zm24.918 12.341c0 7.413-3.403 12.849-9.498 12.849-2.457 0-4.546-.865-6.045-2.657v11.292l-5.824.643V78.01h5.087l.319 2.978c1.905-2.52 4.461-3.657 7.053-3.657 6.266-.013 8.908 4.966 8.908 12.7zm-6.094.037c0-6.128-1.634-8.364-4.546-8.364-2.052 0-3.772 1.42-4.915 3.286v10.885c1.13 1.692 2.592 2.52 4.411 2.52 3.182 0 5.05-2.471 5.05-8.327z" fill="#E7742E"/><path d="M98.554 31.666c-.049-2.339-.344-4.665-.823-6.966-.64-3.093-1.696-6.001-3.588-8.55-2.36-3.167-5.198-5.79-8.454-7.968a55.524 55.524 0 00-8.479-4.677c-2.605-1.15-5.296-2.066-8.085-2.648a35.512 35.512 0 00-5.468-.68c-1.4-.062-2.814-.247-4.202-.148-1.303.086-2.593.123-3.896.235-2.285.198-4.485.717-6.635 1.51-2.691.989-5.32 2.127-7.852 3.5a38.84 38.84 0 00-8.49 6.224c-2.397 2.314-4.51 4.887-6.501 7.56a61.906 61.906 0 00-1.29 1.843c-.221.334-.504.508-.897.483-.258-.012-.516.012-.762-.025-1.598-.235-3.207-.111-4.817-.148a16.624 16.624 0 00-4.485.482c-2.703.68-5.234 1.745-7.422 3.563-.54.458-.725.978-.577 1.646.16.705.454 1.312.958 1.844.848.878 1.819 1.596 2.826 2.251.222.149.504.223.59.52-.196.21-.405.149-.602.173-1.499.186-2.986.396-4.423.903a5.93 5.93 0 00-2.188 1.399c-.123.123-.282.272-.184.47.11.21.32.111.48.062.933-.273 1.892-.421 2.85-.582.602-.099 1.192-.087 1.88-.037-.197.248-.369.26-.54.297-.873.21-1.709.52-2.544.854-2.114.853-3.846 2.14-4.743 4.38-.062.148-.123.284-.172.433-.037.099-.025.222.086.26.061.024.16 0 .209-.038.32-.26.639-.52.946-.791 1.757-1.547 3.772-2.574 6.045-3.032.566-.111 1.143-.31 1.757-.198-.688.42-1.327.879-1.99 1.312-1.34.878-2.224 2.128-2.937 3.526-.086.173-.283.396-.11.57.208.197.344-.087.516-.174.061-.037.122-.087.184-.136 2.543-2.017 5.259-3.675 8.331-4.702.664-.223 1.34-.458 2.04-.63.024.346-.185.494-.307.667-.725 1.04-.762 2.178-.48 3.366.037.173.062.396.295.396.221.012.283-.21.344-.372.799-1.893 2.224-3.13 3.982-4.033 1.191-.619 2.445-1.052 3.686-1.522.712-.26.91-.594.897-1.349 0-.185-.037-.358-.05-.544-.012-.26.148-.371.37-.408.245-.037.38.086.43.334.024.123.024.26.049.383.147 1.238.319 2.475.724 3.663.406 1.188.91 2.313 1.537 3.402.344.582.258.718-.406.743-.848.024-1.671.198-2.494.358-.652.136-1.303.31-1.868.68-.725.471-1.389 1.04-1.475 1.98-.086.854-.086 1.72.074 2.574.393 2.14 1.18 4.145 1.978 6.15.443 1.113.946 2.19 1.413 3.29.185.446.099.57-.356.594-.54.037-1.069-.123-1.573-.284-1.118-.36-2.236-.743-3.354-1.077-1.524-.457-3.048-.89-4.657-.829-1.045.037-1.93.433-2.691 1.139-.16.148-.43.297-.357.556.086.285.393.174.602.186.664.012 1.327-.012 1.991 0 .995.025 1.917.31 2.728.903.135.1.332.161.282.409-.245.148-.528.173-.81.197-.947.075-1.88.161-2.827.198-.97.038-1.941.025-2.912.025-.467 0-.91.074-1.327.334-.995.619-1.499 1.609-1.93 2.648-.036.099-.048.21.05.285.086.074.197.061.283.012.135-.062.27-.136.405-.21.91-.545 1.892-.891 2.925-1.102 1.646-.346 3.305-.272 4.952-.198.037 0 .061.075.123.136-.357.372-.8.632-1.205.928-1.4 1.003-2.752 2.08-3.944 3.341-1.07 1.126-.54 2.215.258 3.093.184.198.369.174.48-.099.11-.26.171-.544.282-.804.491-1.237 1.266-2.19 2.519-2.672 2.482-.953 5.075-1.349 7.704-1.621.43-.05.86-.112 1.29-.136.504-.025.602.086.517.581-.025.124-.05.26-.086.384-.259.853-.025 1.608.479 2.276.307.409.7.755 1.056 1.126.087.087.197.186.332.124.185-.087.135-.26.11-.408-.368-2.128.48-3.737 2.078-5.048.516-.421 1.13-.73 1.56-1.262.97-1.213 1.511-2.586 1.487-4.17-.025-1.782-.369-3.514-.725-5.246-.148-.718-.074-.804.627-.606l.22.074c2.962.903 5.948 1.683 9.008 2.227 2.69.483 5.406.78 8.134.841.799.013 1.585-.111 2.372-.123 1.536-.013 3.06-.198 4.57-.372 3.33-.383 6.611-.99 9.868-1.818 1.683-.421 3.367-.854 5.025-1.398.64-.21.75-.137.762.52a58.09 58.09 0 01-.012 2.573c-.012.606-.123.717-.676.866-.147.037-.295.062-.454.099-2.95.618-5.899 1.25-8.798 2.103-4.252 1.237-8.467 2.586-12.534 4.355-3.121 1.349-6.267 2.66-9.142 4.541-2.138 1.398-4.215 2.858-6.095 4.578a26.048 26.048 0 00-5.566 7.288 23.117 23.117 0 00-2.249 6.693c-.528 3.081-.405 6.174.086 9.255.467 2.982 1.389 5.803 2.814 8.463a24.7 24.7 0 002.802 4.17c.54.655 1.18 1.237 1.781 1.831 1.672 1.67 3.54 3.081 5.665 4.083 3.072 1.435 6.205 2.672 9.572 3.18 12.927 1.967 21.614-.557 25.608-5.135.32-.359-.123-.903-.676-.73-1.794.594-2.826 1.769-8.134 3.118-5.309 1.348-12.313.618-13.726.383-2.863-.47-5.615-1.348-8.245-2.573-2.076-.965-4.03-2.128-5.824-3.576-1.118-.915-2.102-1.98-2.998-3.118-1.635-2.054-3.011-4.268-3.871-6.78-1.155-3.39-1.327-6.867-.787-10.393.455-2.908 1.561-5.53 3.17-7.968 1.414-2.128 3.134-3.972 5.05-5.63a36.644 36.644 0 016.735-4.59c3.145-1.67 6.5-2.796 9.867-3.823 5.333-1.634 10.788-2.772 16.293-3.675 1.008-.16 1.008-.16 1.29.89.197.73.136.855-.59 1.053-1.093.284-2.187.544-3.268.84-1.327.372-2.666.73-3.969 1.164-1.425.47-1.462 1.3-1.34 2.35.013.162.05.335.21.397.184.074.258-.112.344-.235.454-.582 1.044-.891 1.757-1.003 2.371-.37 4.73-.804 7.065-1.398.725-.185.738-.173 1.07.582.307.693.773 1.2 1.474 1.51.75.333 1.511.618 2.298.865 1.314.409 2.642.817 3.944 1.25 1.794.606 3.38 1.584 4.706 2.982.197.198.369.643.7.445.283-.173.087-.581.013-.866-.32-1.188-1.057-2.066-1.978-2.808-.934-.743-1.966-1.3-3.01-1.856-.185-.1-.43-.136-.505-.409.332-.111.59.037.873.05 3.182.173 6.266.854 9.302 1.831.196.062.393.136.59.148.196.025.294-.11.196-.296a1.555 1.555 0 00-.356-.396 12.564 12.564 0 00-1.635-1.151c-1.67-.978-3.526-1.336-5.394-1.695-.713-.136-1.425-.235-2.26-.371.196-.136.245-.198.306-.21 2.138-.644 4.313-.793 6.513-.582.663.062 1.327.099 1.99.148.136.013.27-.012.308-.16a.26.26 0 00-.11-.273c-.124-.099-.259-.173-.382-.247-.491-.272-1.032-.446-1.585-.57-2.224-.494-4.46-.445-6.71-.309-1.277.075-2.543.174-3.82.223-.701.025-1.143-.408-1.23-1.126a2.315 2.315 0 01.099-1.002c.135-.42.307-.829.442-1.25.16-.482.492-.754.971-.915 3.084-1.077 5.996-2.512 8.773-4.244 2.999-1.868 5.604-4.17 7.52-7.226 1.954-3.105 3.183-6.508 3.957-10.096.234-1.014.234-2.128.21-3.204zm-63.22-11.99c.491-2.486 1.744-4.652 3.22-6.68a18.194 18.194 0 016.241-5.433c2.347-1.237 4.792-2.338 7.422-2.882 1.622-.334 3.256-.644 4.927-.644.689 0 1.377-.123 2.065-.123 2.74-.013 5.443.334 8.11.977 3.158.767 6.242 1.806 9.203 3.167.11.05.258.062.295.235-.233.062-.454-.037-.663-.098-2.507-.743-5.075-1.188-7.668-1.448-1.438-.136-2.888-.334-4.35-.087-.418.075-.86.025-1.302.037-3.208.087-6.353.52-9.437 1.436-2.09.618-3.92 1.72-5.591 3.13-.91.767-1.807 1.51-2.568 2.45-1.463 1.819-2.212 3.91-2.36 6.236-.172 2.932.492 5.679 1.979 8.215.909 1.547 2.26 2.598 3.698 3.551 1.745 1.15 3.613 2.042 5.554 2.809.185.074.381.148.566.235.59.26.602.346.098.755-3.686 3.006-7.741 3.315-12.054 1.67-.959-.371-1.844-.879-2.704-1.46-2.027-1.349-3.33-3.23-4.178-5.518-1.278-3.465-1.204-6.991-.503-10.53zm43.179 42.018c-.283.31-.651.297-.983.396-.369.111-.418.272-.148.544.307.31.688.532 1.057.768.086.05.184.099.209.222-.086.21-.258.1-.38.075a10.26 10.26 0 01-1.893-.62c-.148-.061-.307-.098-.406.075-.073.136.037.248.086.359.172.384.602.532.799.878-.05.062-.061.1-.074.1-1.314-.1-2.556-.421-3.305-1.61-.467-.741-.922-1.236-1.942-.79.148-.446.443-.508.652-.632.65-.371.921-.829.75-1.658a43.409 43.409 0 01-.873-6.174c-.11-1.658-.258-3.316-.221-4.986.012-.47.172-.792.614-.965 1.02-.408 2.04-.842 3.06-1.237.466-.186.614-.087.602.445-.013 1.745.073 3.477-.086 5.221-.11 1.3-.172 2.599-.357 3.885-.123.854-.27 1.695-.504 2.524-.036.149-.073.297-.11.458-.307 1.485-.037 1.943 1.413 2.4.664.186 1.352.198 2.04.322zm-5.42-17.631c-2.346.68-4.705 1.175-7.163 1.101a12.125 12.125 0 01-2.42-.322c-1.635-.395-3.06-1.546-3.183-3.612 0-.075-.05-.136-.098-.285-1.155 1.002-1.23 2.772-.221 3.96.884 1.051 2.04 1.62 3.317 1.991.811.236 1.634.396 2.458.594.16.037.368 0 .467.21-.037.248-.246.236-.406.285-3.072.916-6.168 1.67-9.338 2.14-1.745.26-3.49.483-5.247.57-1.205.062-2.397.123-3.588.111a38.855 38.855 0 01-9.093-1.126 70.993 70.993 0 01-12.595-4.38c-.234-.111-.504-.383-.762-.099-.221.26 0 .545.11.792.381.841 1.057 1.41 1.77 1.906.7.482.958 1.064.897 1.905-.11 1.435.147 2.858.368 4.269.197 1.311.111 2.598-.466 3.81-.553 1.176-1.426 1.782-2.765 1.869-3.06.185-6.107.482-9.08 1.286-.136.038-.296.112-.455-.074.553-.755 1.18-1.386 2.064-1.757.221-.086.577-.111.528-.445-.049-.334-.38-.272-.626-.297-.123-.013-.258.012-.394-.112.099-.358.443-.37.7-.47.812-.321.86-.544.308-1.2-.233-.284-.565-.433-.86-.643.123-.285.32-.173.48-.149.638.112 1.215.384 1.756.743.492.334.97.68 1.5.952a5.375 5.375 0 002.973.582c.405-.037.81-.124 1.18-.322.884-.482 1.228-1.175 1.08-2.202-.22-1.51-.786-2.895-1.375-4.293-.59-1.423-1.315-2.76-2.028-4.12a6.722 6.722 0 01-.59-1.522c-.294-1.151.16-2.079 1.254-2.487a9.446 9.446 0 012.912-.644c1.757-.099 3.526-.111 5.271.21 2.335.446 4.67.916 6.918 1.72.185.062.369.21.578.05.012-.26-.197-.346-.356-.47-1.475-1.238-3.17-1.968-4.99-2.462a34.786 34.786 0 00-3.747-.805c-.651-.099-1.094-.42-1.462-.99-.934-1.484-1.512-3.117-2.003-4.8-.381-1.324-.676-2.673-.959-4.021-.184-.879-.27-.953-1.192-.953h-2.297c-2.175.025-4.252-.495-6.28-1.25-.712-.272-1.412-.581-2.162-.878-.148.42.135.606.32.829 1.068 1.262 2.42 2.054 3.98 2.524 1.008.297 2.016.57 3.048.767.172.037.356.062.516.136.516.235.614.817.209 1.213a1.892 1.892 0 01-.442.31 16.527 16.527 0 01-3.453 1.261c-.492.124-.504.1-.381-.42.074-.335 0-.434-.332-.36-.197.038-.393.112-.59.186-1.77.594-3.539 1.2-5.271 1.906-.135.062-.27.136-.442.11-.086-.246.122-.32.233-.432.147-.136.332-.248.48-.384.134-.111.343-.198.282-.42-.062-.21-.27-.235-.443-.235-.81-.025-1.634-.087-2.445.099-.246.05-.48.099-.75.086.296-.359.726-.458 1.107-.63.614-.285.626-.31.417-1.053 1.34-.11 2.63-.544 4.006-.247.995.223 2.015.371 3.035.198.148-.025.307-.037.443-.099.16-.087.208-.26.024-.359-.172-.099-.38-.148-.577-.198-2.2-.68-4.363-1.472-6.34-2.697-.701-.433-1.303-1.002-1.93-1.534l-.11-.112c-.935-1.212-1.045-2.029.528-2.833 1.081-.557 2.236-.89 3.403-1.163 2.593-.606 5.21-1.002 7.89-.854 1.609.087 3.194.297 4.78.619.97.198.957.185 1.388-.693.663-1.348 1.277-2.722 2.297-3.86.295-.334.627-.607.959-.891.135-.111.282-.285.467-.186.209.112.073.322.049.495-.148.928-.221 1.856-.344 2.784-.295 2.438-.074 4.838.467 7.201.246 1.064.504 2.128.823 3.168.467 1.558 1.29 2.944 2.175 4.28 1.536 2.364 3.576 4.195 5.947 5.642a9.46 9.46 0 002.384 1.027c1.954.557 3.944.891 5.96 1.002 2.715.149 5.259-.569 7.63-1.905 1.647-.928 3.146-2.054 4.375-3.514a12.826 12.826 0 012.69-2.412c2.729-1.856 5.727-2.809 9.02-2.772 2.335.025 4.632.248 6.857 1.027.872.31 1.708.718 2.433 1.287.921.717 1.106 1.41.725 2.536-.357 1.064-1.119 1.782-1.93 2.462-1.843 1.485-3.944 2.562-6.254 3.242zm11.846-.198a53.09 53.09 0 01-6.131 4.9c-.11.074-.21.16-.308.222-.11.075-.22.149-.356.087-.184-.087-.147-.26-.11-.408.172-.792.024-1.547-.16-2.314-.135-.594-.123-.631.442-.866 2.458-1.064 4.928-2.128 7.397-3.205.394-.173.787-.358 1.168-.532.037.05.061.087.098.136-.676.669-1.34 1.35-2.04 1.98zm6.82-13.895c.05 1.337-.037 2.586-.16 3.824-.074.693-.22.78-.81.433a102.812 102.812 0 00-7.177-3.848 35.865 35.865 0 00-6.697-2.438c-.405-.099-.798-.148-1.216-.099-1.794.198-3.6.384-5.394.619-2.839.371-5.665.792-8.442 1.51-1.56.408-2.961 1.113-4.178 2.202-.295.26-.59.371-.983.272-2.715-.643-5.296-1.584-7.52-3.34-1.585-1.263-2.814-2.797-3.404-4.789-.54-1.806-.54-3.625-.024-5.456.43-1.485 1.24-2.735 2.248-3.848.885-.978 1.831-1.88 2.925-2.623.762-.52 1.56-.978 2.408-1.349 2.753-1.2 5.653-1.732 8.614-1.992 3.698-.31 7.323.173 10.936.953a49.728 49.728 0 016.918 2.004c2.273.854 4.35 2.067 6.132 3.75 1.388 1.298 2.666 2.709 3.661 4.38.971 1.632 1.45 3.426 1.819 5.27.32 1.534.405 3.093.344 4.566z" fill="#fff"/><path d="M78.849 14.41c-.651-.335-1.266-.236-1.831.296-.725.693-.823 1.374-.27 2.227.233.347.368.656.196 1.077-.663 1.571-1.597 2.895-3.182 3.637-1.868.867-3.87.285-4.94-1.497-.872-1.447-1.327-3.03-1.425-4.726a.708.708 0 01.32-.656 2.13 2.13 0 00.65-.754c.516-.965.148-2.104-.823-2.574-.97-.47-2.089-.062-2.519.903-.393.916-.11 1.955.774 2.413.602.31.799.755.762 1.386-.012.123 0 .26 0 .321.037 1.312-.295 2.487-.627 3.663-.196.705-.577 1.336-1.032 1.905-.737.94-1.732 1.312-2.863 1.04-.786-.186-1.548-.533-2.187-1.09a34.99 34.99 0 01-1.978-1.843c-.48-.495-.738-.903-.32-1.62.369-.632.099-1.473-.405-1.919-.566-.494-1.278-.556-1.917-.173-.602.359-.885.99-.762 1.732.123.706.713 1.3 1.487 1.361.467.038.725.236.97.631.738 1.225 1.254 2.562 1.831 3.86.652 1.473 1.143 3.007 1.844 4.455.479.977.577 1.027 1.597.767 1.683-.433 3.404-.705 5.124-.953 2.396-.346 4.805-.68 7.213-.903.627-.062.835-.124 1.007-.928.148-.693.332-1.36.517-2.041.196-.73.417-1.448.59-2.178.257-1.138.479-2.289.724-3.44.136-.643.344-1.15 1.155-1.187.652-.038 1.23-.792 1.303-1.46.086-.631-.369-1.423-.983-1.732zM67.716 25.904c-1.044-.05-1.917-1.015-1.88-2.067.037-1.064.983-1.98 2.015-1.954 1.13.024 1.979.94 1.942 2.078-.037 1.126-.959 2.005-2.077 1.943z" fill="#E7742E"/></svg>