<svg width="32" height="32" fill="none" xmlns="http://www.w3.org/2000/svg"><path d="M29.631 2.003a3.635 3.635 0 00-1.149.277h-.005c-.35.14-2.018.848-4.554 1.921l-9.088 3.862c-6.52 2.77-12.931 5.497-12.931 5.497l.076-.03s-.442.147-.903.466c-.285.183-.53.423-.722.704a2.077 2.077 0 00-.34 1.379c.11.897.686 1.434 1.1 1.731.418.3.817.441.817.441h.01l6.011 2.043c.27.874 1.832 6.055 2.208 7.249.221.713.437 1.159.706 1.5.13.173.283.318.467.435.095.056.197.1.303.132l-.062-.015c.019.005.033.02.047.025.05.013.082.018.145.028.952.29 1.716-.305 1.716-.305l.043-.035 3.55-3.26 5.948 4.604.135.058c1.24.55 2.496.244 3.16-.296.668-.542.927-1.237.927-1.237l.044-.111 4.596-23.76c.13-.585.164-1.134.02-1.667a2.243 2.243 0 00-.961-1.3 2.289 2.289 0 00-1.314-.336zm-.124 2.546c-.005.078.01.07-.025.22v.014l-4.554 23.511c-.02.034-.053.107-.144.18-.096.078-.172.126-.572-.034l-7.276-5.628-4.395 4.042.924-5.95L25.352 9.726c.49-.46.326-.556.326-.556.034-.564-.74-.166-.74-.166l-14.99 9.369-.004-.025-7.184-2.44v-.005l-.019-.004a.348.348 0 00.037-.015l.04-.02.038-.014 12.935-5.497c3.265-1.387 6.555-2.784 9.084-3.863 2.53-1.071 4.4-1.858 4.506-1.9.101-.04.053-.04.126-.04z" fill="#E7742E"/></svg>